<svg xmlns="http://www.w3.org/2000/svg" xmlns:xlink="http://www.w3.org/1999/xlink" width="748.154" height="657.4" viewBox="0 0 748.154 657.4">
  <defs>
    <clipPath id="clip-path">
      <path id="パス_907" data-name="パス 907" d="M414.743,699.963q8.276.236,16.639.04l-.638-28.818q-7.6.184-15.131-.031Zm31.112-29.534L448,699.171q8.249-.629,16.553-1.694l-3.653-28.6q-7.541.982-15.048,1.553m-64.275,26.829q8.222,1.1,16.548,1.79l2.375-28.726q-7.565-.622-15.045-1.631Zm94.273-30.7,5.141,28.362q8.229-1.494,16.284-3.4l-6.617-28.059q-7.327,1.735-14.809,3.1M348.885,691.081q8.07,1.974,16.271,3.517l5.36-28.324q-7.449-1.407-14.791-3.194Zm156.4-31.475,8.082,27.667q8.015-2.344,15.838-5.093l-9.515-27.205q-7.115,2.494-14.4,4.631M317.027,681.485c5.214,1.871,10.482,3.625,15.8,5.221l8.3-27.6q-7.26-2.193-14.367-4.754Zm216.787-31.9,10.931,26.678q7.717-3.175,15.214-6.729l-12.311-26.065q-6.812,3.222-13.833,6.116M286.35,668.6q7.493,3.612,15.171,6.839l11.133-26.575q-6.991-2.931-13.795-6.219Zm274.782-31.972,13.659,25.385q7.334-3.963,14.416-8.289l-14.963-24.636q-6.434,3.938-13.112,7.54m25.8-15.751,16.235,23.812q6.869-4.7,13.468-9.741l-17.454-22.939q-5.994,4.587-12.249,8.867m24.006-18.361L629.571,624.5q6.332-5.4,12.358-11.115l-19.75-20.981q-5.484,5.2-11.239,10.107m-85.766-59.938,9.068,14.416q4.58-2.9,8.968-6.04L533.4,537.04c-2.69,1.908-5.426,3.764-8.229,5.537m16.152-11.491,10.523,13.387q4.246-3.364,8.29-6.935l-11.2-12.809c-2.48,2.181-5.007,4.308-7.609,6.356m14.869-13.1,11.867,12.209q3.863-3.777,7.516-7.742L563.1,510.879q-3.356,3.645-6.9,7.107m13.427-14.559,13.07,10.9q3.461-4.149,6.686-8.479l-13.622-10.195q-2.956,3.963-6.134,7.777m11.862-15.863,14.14,9.479c2.005-2.992,3.938-6.025,5.781-9.124L586.787,479.2c-1.691,2.836-3.472,5.624-5.3,8.363m10.167-16.989,15.055,7.942q2.521-4.771,4.787-9.676l-15.456-7.152q-2.083,4.495-4.386,8.885m8.3-17.98,15.812,6.326q2-5.007,3.744-10.127L603.388,443.3c-1.072,3.128-2.208,6.227-3.443,9.292m6.389-18.747,16.384,4.642q1.472-5.181,2.67-10.465l-16.6-3.776q-1.1,4.836-2.451,9.6m4.4-19.312,16.778,2.907q.92-5.308,1.561-10.685l-16.911-2.024q-.582,4.943-1.429,9.8m2.349-19.66,16.987,1.132c.239-3.575.391-7.175.436-10.785l-17.029-.244Zm-60.735-37.624c.265,1.381.547,2.75.771,4.142,11.3,71.061-37.3,138.062-108.351,149.369a129.71,129.71,0,0,1-53.257-2.591q-1.047,4.1-2.1,8.251a138.044,138.044,0,0,0,56.7,2.746c75.695-12.045,127.471-83.413,115.427-159.112-.235-1.48-.535-2.935-.817-4.4q-4.214.813-8.363,1.6m29.9-28.423a166.78,166.78,0,0,1,6.636,26.877c.514,3.214.9,6.426,1.222,9.636l36.722-3.666c-.4-3.925-.874-7.838-1.5-11.771a204.122,204.122,0,0,0-8.113-32.867c-11.668,3.926-23.38,7.878-34.972,11.791M192.683,419.115a233.618,233.618,0,0,1,11.783-118.279c1.405.532,50.388,19.054,51.7,19.548a178.364,178.364,0,0,0-8.9,90.047,180.52,180.52,0,0,0,8.6,33.213c-1.328.494-50.462,18.638-51.858,19.152a236.761,236.761,0,0,1-11.322-43.68m10.611-119.529a235.114,235.114,0,0,0-12.1,119.769,238.04,238.04,0,0,0,11.64,44.678l.26.713,54.7-20.2-.262-.709a178.926,178.926,0,0,1-8.771-33.649,176.892,176.892,0,0,1,9.069-89.99l.267-.7-54.528-20.618ZM336.01,396.306a89.01,89.01,0,1,1,87.9,75.068H423.9a89.189,89.189,0,0,1-87.894-75.068m73.482-104.935a92.035,92.035,0,1,0,14.522-1.15,92.192,92.192,0,0,0-14.522,1.15M300.847,401.538C310.979,465.2,367.789,510.03,430.788,506.7l-1.041-19.851a105.04,105.04,0,0,1-76.1-182.7l-13.354-14.7a124.931,124.931,0,0,0-39.444,112.1M407.538,279.072a103.934,103.934,0,0,0-38.719,14.433l2.229,3.6a100.293,100.293,0,0,1,151.972,69.445c.31,1.938.55,3.865.756,5.794l4.19-.416c-.2-2.01-.444-4.023-.767-6.043a104.47,104.47,0,0,0-119.66-86.811M282.311,404.487C269.857,326.223,323.4,252.413,401.674,239.959S553.746,281.048,566.2,359.315,525.109,511.391,446.849,523.848a144.429,144.429,0,0,1-22.669,1.8c-69.39,0-130.627-50.509-141.87-121.16M401.226,237.156c-79.819,12.7-134.418,87.963-121.717,167.777s87.962,134.418,167.783,121.72S581.7,438.681,569,358.869c-11.466-72.044-73.911-123.543-144.661-123.548a146.989,146.989,0,0,0-23.118,1.835M275.253,405.607c-13.072-82.152,43.136-159.634,125.3-172.708s159.629,43.136,172.7,125.29S530.128,517.832,447.971,530.906a151.273,151.273,0,0,1-23.8,1.889c-72.836,0-137.119-53.02-148.922-127.188M400.292,231.269c-83.064,13.216-139.884,91.545-126.668,174.6s91.543,139.889,174.6,126.669S588.1,441,574.885,357.931c-11.927-74.971-76.915-128.565-150.54-128.57a153.194,153.194,0,0,0-24.054,1.908M267.508,406.842c-13.753-86.428,45.377-167.936,131.811-181.689S567.253,270.53,581.008,356.958,535.631,524.9,449.2,538.654a159.359,159.359,0,0,1-25.037,1.987h-.01c-76.62.005-144.231-55.773-156.646-133.8M398.871,222.35C310.888,236.35,250.7,319.315,264.7,407.29S361.665,555.457,449.65,541.452s148.161-96.958,134.161-184.941C571.174,277.1,502.338,220.333,424.354,220.328a162.082,162.082,0,0,0-25.483,2.022m-6.607-41.522a202.433,202.433,0,0,0-75.415,28.115L336.318,240.3a165.761,165.761,0,0,1,61.746-23.02c78.511-12.494,153.114,32.3,181.192,103.354l34.287-13.636C583.086,230.009,507.9,178.286,424.364,178.281a204.047,204.047,0,0,0-32.1,2.547m70.643-67.209A270.551,270.551,0,0,1,504.284,123l4.177-13.561a284.2,284.2,0,0,0-43.536-9.867ZM400.583,97.587l1.177,14.145a270.258,270.258,0,0,1,43.533-.1l1.1-14.154q-10.964-.865-22.1-.868-11.779,0-23.7.98M286.505,571.794c-1.641-1.192-3.227-2.44-4.833-3.668l33.777-43.73c1.165.89,2.314,1.8,3.505,2.66a177.708,177.708,0,0,0,133.125,31.95,180.566,180.566,0,0,0,33.745-8.8c.494,1.333,18.644,50.47,19.162,51.861a236.731,236.731,0,0,1-81.4,14.468h-.015a232.55,232.55,0,0,1-137.063-44.746m-56.739-58.574c1.236-.83,44.824-29.965,45.975-30.735a179.1,179.1,0,0,0,38.5,41c-6.867,8.894-19.327,25.024-33.773,43.73a233.981,233.981,0,0,1-50.7-53.991m-50.086-92.035A245.9,245.9,0,0,1,195.927,286.68q34.234,14.251,71.724,30a169.167,169.167,0,0,0,52.27,199.452l-4.752,6.152a177.345,177.345,0,0,1-38.62-41.25l-.423-.632-48.475,32.409.421.63a235.4,235.4,0,0,0,51.472,54.967l-7.13,9.23a246.441,246.441,0,0,1-92.733-156.455m-8.869,1.409a254.785,254.785,0,0,1,16.82-139.367l5.677,2.364A249.687,249.687,0,0,0,270.68,579.886q-1.867,2.417-3.752,4.86a255.388,255.388,0,0,1-96.116-162.151M47.219,442.265a380.008,380.008,0,0,1,24.716-206.6q18.512,7.5,38.777,15.8a339.133,339.133,0,0,0-8.5,239.447l1.424-.479a337.693,337.693,0,0,1,8.471-238.4q23.136,9.48,48.415,19.941A285.133,285.133,0,0,0,200.3,559.964l11.116-8.821a270.972,270.972,0,0,1-37.784-273.73l8.763,3.638a261.515,261.515,0,0,0,81.067,308.186l-72.98,94.492A379.781,379.781,0,0,1,47.219,442.265m582.43,42.845A229.536,229.536,0,0,0,558.969,196.2a234.9,234.9,0,0,0-28.634-17.758c.144-.282,3.229-6.255,7.934-15.374,66.983,35.031,117.2,100.157,129.966,180.38A245.98,245.98,0,0,1,645.1,492.912c-9.162-4.628-15.167-7.661-15.452-7.8M319.84,525.832c-1.177-.855-2.314-1.754-3.467-2.632l5.658-7.326-.6-.466a167.758,167.758,0,0,1-52.12-198.844l.3-.7-.7-.3q-37.842-15.9-72.392-30.283C228.887,209.747,298.111,151.868,385.1,138.025a246,246,0,0,1,151.824,24.351l-8.609,16.685.668.346a233.188,233.188,0,0,1,29.1,18.013,228.076,228.076,0,0,1,69.905,287.692l-.341.678,16.77,8.468C609.688,562.425,543.994,613.681,462.836,626.6a246.7,246.7,0,0,1-189.231-48.026l7.142-9.247c1.619,1.236,3.215,2.5,4.87,3.694A234.111,234.111,0,0,0,461,615.082a238.055,238.055,0,0,0,45.225-11.834l.709-.265-20.212-54.7-.714.265a179.284,179.284,0,0,1-62.3,11.2h-.007A176.254,176.254,0,0,1,319.84,525.832m327.8-31.64A248.844,248.844,0,0,0,671.041,343C658.13,261.85,607.33,195.975,539.572,160.541c16.969-32.885,51.433-99.67,51.966-100.7A367.858,367.858,0,0,1,717.02,167.2,362.9,362.9,0,0,1,748.8,545.276c-.927-.467-55.676-28.112-90.633-45.765A261.514,261.514,0,0,0,577.1,169.874q-1.668,2.29-3.346,4.591A255.848,255.848,0,0,1,653.1,496.953l-5.468-2.761M370.607,46.938C250.814,66,155.558,145.9,111.3,250.077q-20.623-8.448-39.5-16.1l-.69-.28-.293.688A382.238,382.238,0,0,0,190.141,685.4l.6.461,73.908-95.692a262.111,262.111,0,0,0,141.023,53.548c.124-1.894.254-3.777.383-5.67a256.379,256.379,0,0,1-137.935-52.37l3.752-4.86A249.527,249.527,0,0,0,463.281,629.4c82.094-13.064,148.544-64.912,183.667-133.861l5.473,2.763a258.518,258.518,0,0,1-55.791,73.341l3.822,4.2a264.294,264.294,0,0,0,57.032-74.982l92,46.453.335-.668A364.434,364.434,0,0,0,718.233,166.3,369.3,369.3,0,0,0,591.569,58.127l-.67-.35L538.225,159.853a248.814,248.814,0,0,0-153.573-24.633c-87.995,14-158.02,72.557-190.754,148.975-1.888-.786-3.794-1.579-5.668-2.357A257.435,257.435,0,0,1,315.179,150.186l-2.417-5.14A263.136,263.136,0,0,0,182.987,279.661l-8.768-3.641C209.708,193,285.741,129.377,381.3,114.171q3.955-.631,7.906-1.134l-1.836-14.08q-4.142.537-8.3,1.195c-100.6,16.007-180.638,83.017-217.96,170.437q-25.274-10.462-48.415-19.942C156.758,146.939,251.588,67.4,370.841,48.423A336.129,336.129,0,0,1,508.252,54.93l.371-1.455a337.657,337.657,0,0,0-138.016-6.537" transform="translate(-40.959 -42.693)" fill="#44bed5"/>
    </clipPath>
    <filter id="パス_1215" x="137.154" y="218.621" width="169.253" height="246.472" filterUnits="userSpaceOnUse">
      <feOffset input="SourceAlpha"/>
      <feGaussianBlur stdDeviation="5" result="blur"/>
      <feFlood flood-opacity="0.161"/>
      <feComposite operator="in" in2="blur"/>
      <feComposite in="SourceGraphic"/>
    </filter>
    <filter id="パス_1216" x="375.425" y="96.725" width="217.556" height="202.989" filterUnits="userSpaceOnUse">
      <feOffset input="SourceAlpha"/>
      <feGaussianBlur stdDeviation="5" result="blur-2"/>
      <feFlood flood-opacity="0.161"/>
      <feComposite operator="in" in2="blur-2"/>
      <feComposite in="SourceGraphic"/>
    </filter>
    <filter id="パス_1217" x="457.886" y="218.589" width="169.269" height="246.535" filterUnits="userSpaceOnUse">
      <feOffset input="SourceAlpha"/>
      <feGaussianBlur stdDeviation="5" result="blur-3"/>
      <feFlood flood-opacity="0.161"/>
      <feComposite operator="in" in2="blur-3"/>
      <feComposite in="SourceGraphic"/>
    </filter>
    <filter id="パス_1218" x="375.425" y="383.98" width="217.4" height="202.744" filterUnits="userSpaceOnUse">
      <feOffset input="SourceAlpha"/>
      <feGaussianBlur stdDeviation="5" result="blur-4"/>
      <feFlood flood-opacity="0.161"/>
      <feComposite operator="in" in2="blur-4"/>
      <feComposite in="SourceGraphic"/>
    </filter>
    <filter id="パス_1219" x="171.31" y="96.725" width="217.574" height="203.019" filterUnits="userSpaceOnUse">
      <feOffset input="SourceAlpha"/>
      <feGaussianBlur stdDeviation="5" result="blur-5"/>
      <feFlood flood-opacity="0.161"/>
      <feComposite operator="in" in2="blur-5"/>
      <feComposite in="SourceGraphic"/>
    </filter>
    <filter id="パス_1220" x="171.466" y="383.95" width="217.418" height="202.774" filterUnits="userSpaceOnUse">
      <feOffset input="SourceAlpha"/>
      <feGaussianBlur stdDeviation="5" result="blur-6"/>
      <feFlood flood-opacity="0.161"/>
      <feComposite operator="in" in2="blur-6"/>
      <feComposite in="SourceGraphic"/>
    </filter>
    <linearGradient id="linear-gradient" y1="1" x2="1" gradientUnits="objectBoundingBox">
      <stop offset="0" stop-color="#000046"/>
      <stop offset="1" stop-color="#1cb5e0"/>
    </linearGradient>
    <linearGradient id="linear-gradient-4" x1="-0.18" y1="1" x2="1" y2="0.107" xlink:href="#linear-gradient"/>
  </defs>
  <g id="グループ_2647" data-name="グループ 2647" transform="translate(-197.846 -4951.664)">
    <g id="グループ_2414" data-name="グループ 2414" transform="translate(197.846 4951.664)" opacity="0.371">
      <g id="グループ_1645" data-name="グループ 1645" transform="translate(0 0)" clip-path="url(#clip-path)">
        <rect id="長方形_2512" data-name="長方形 2512" width="954.95" height="991.336" transform="matrix(0.508, -0.861, 0.861, 0.508, -294.862, 487.411)" fill="#44bed5"/>
      </g>
    </g>
    <g id="グループ_2628" data-name="グループ 2628" transform="translate(649.701 64.532)">
      <g id="グループ_2594" data-name="グループ 2594" transform="translate(-299.701 4998.856)">
        <g transform="matrix(1, 0, 0, 1, -152.15, -111.72)" filter="url(#パス_1215)">
          <path id="パス_1215-2" data-name="パス 1215" d="M129.173,524.728a99.2,99.2,0,0,1,9.948-43.435L27.108,416.623a229.116,229.116,0,0,0,.14,216.472l112.005-64.666a99.191,99.191,0,0,1-10.08-43.7" transform="translate(152.15 -183)" fill="#fff"/>
        </g>
        <g transform="matrix(1, 0, 0, 1, -152.15, -111.72)" filter="url(#パス_1216)">
          <path id="パス_1216-2" data-name="パス 1216" d="M814.937,129.315a99.525,99.525,0,0,1,75.555,43.676l112-64.664A228.642,228.642,0,0,0,814.937,0Z" transform="translate(-424.51 111.72)" fill="#fff"/>
        </g>
        <g transform="matrix(1, 0, 0, 1, -152.15, -111.72)" filter="url(#パス_1217)">
          <path id="パス_1217-2" data-name="パス 1217" d="M1110,524.651a99.2,99.2,0,0,1-10.1,43.732l112,64.666a229.118,229.118,0,0,0,.14-216.535l-112.012,64.67A99.192,99.192,0,0,1,1110,524.651" transform="translate(-627.02 -182.92)" fill="#fff"/>
        </g>
        <g transform="matrix(1, 0, 0, 1, -152.15, -111.72)" filter="url(#パス_1218)">
          <path id="パス_1218-2" data-name="パス 1218" d="M890.323,983.453a99.522,99.522,0,0,1-75.386,43.431V1156.2a228.641,228.641,0,0,0,187.4-108.073Z" transform="translate(-424.51 -584.47)" fill="#fff"/>
        </g>
        <g transform="matrix(1, 0, 0, 1, -152.15, -111.72)" filter="url(#パス_1219)">
          <path id="パス_1219-2" data-name="パス 1219" d="M230.03,173.022A99.527,99.527,0,0,1,305.6,129.316V0A228.642,228.642,0,0,0,118.031,108.359Z" transform="translate(68.28 111.72)" fill="#fff"/>
        </g>
        <g transform="matrix(1, 0, 0, 1, -152.15, -111.72)" filter="url(#パス_1220)">
          <path id="パス_1220-2" data-name="パス 1220" d="M305.986,1026.811A99.52,99.52,0,0,1,230.58,983.35l-112.012,64.67a228.64,228.64,0,0,0,187.418,108.1Z" transform="translate(67.9 -584.4)" fill="#fff"/>
        </g>
      </g>
      <path id="パス_1929" data-name="パス 1929" d="M-20.88-19.865h-7.54v-1.45h7.54Zm0,3.77h-7.54V-17.6h7.54Zm3.48-7.627H-31.755v10.034H-17.4Zm-19.343-.812a20.685,20.685,0,0,1-6.032,5.684,21.4,21.4,0,0,1,1.711,2.929,30.7,30.7,0,0,0,7.6-7.279Zm.754,6.322a26.032,26.032,0,0,1-7.105,7.453,25.734,25.734,0,0,1,1.653,3.567,27.243,27.243,0,0,0,2.61-2.349V2.494H-35.5V-13.253a30.622,30.622,0,0,0,2.523-3.654ZM-15.863-7.946h-3.944V-9.6h3.364v-2.813H-33.234V-9.6h9.918v1.653H-33.93v2.929h4.06L-32.016-3.6A24.429,24.429,0,0,1-28.681.435L-26.1-1.392a30.491,30.491,0,0,0-3.306-3.625h6.09V-.986c0,.319-.116.435-.522.464-.377,0-1.74,0-2.958-.058a12.117,12.117,0,0,1,1.073,3.074A11.48,11.48,0,0,0-21.228,2C-20.1,1.508-19.807.7-19.807-.9V-5.017h3.973ZM3.625-20.358c-.232.609-.58,1.334-.841,1.885l.406.087H-3.248l.377-.087a17.668,17.668,0,0,0-.7-1.885Zm8.961,1.972H6.177c.377-.522.783-1.16,1.218-1.885l-.435-.087h4.089v-2.668H1.682v-1.537H-1.74v1.537h-9.338v2.668h4.205l-.145.029a17.6,17.6,0,0,1,.725,1.943H-12.5v2.668H12.586ZM-10.933,1.943a11.066,11.066,0,0,0,4-5.713l-2.9-1.015a9.588,9.588,0,0,1-3.8,4.9ZM-6.177-9.164H6.351v1.305H-6.177Zm0-3.248H6.351v1.276H-6.177Zm4.9,11.861c-1.3,0-1.537-.087-1.537-.87v-2.9A18.1,18.1,0,0,1,1.276-1.827L3.364-3.973A18.439,18.439,0,0,0,.348-5.742H9.773v-8.787H-9.454v8.787H-2.2l-1.189,1.16.348.145H-6.177v3.045c0,2.755.9,3.6,4.553,3.6H3.045c2.7,0,3.625-.812,4-4.031a9.3,9.3,0,0,1-2.929-1.1C3.973-.87,3.8-.551,2.726-.551Zm7.482-3.1a24.04,24.04,0,0,1,4.553,5.423L13.6.116A21.3,21.3,0,0,0,8.874-5.133ZM28.188-23.345l-4-.406a24.387,24.387,0,0,1-.783,4.843c-.9.087-1.769.116-2.639.116a36.636,36.636,0,0,1-3.857-.2l.261,3.364c1.247.087,2.436.116,3.625.116.493,0,.986,0,1.508-.029A45.69,45.69,0,0,1,16.385-5.307l3.509,1.8A53.435,53.435,0,0,0,26.1-15.921a50.311,50.311,0,0,0,5.075-1.015L31.059-20.3a35.552,35.552,0,0,1-3.915.928C27.579-20.938,27.956-22.417,28.188-23.345ZM26.68-3.277c0-1.015,1.073-1.769,2.755-1.769a10.418,10.418,0,0,1,2.349.29v.58c0,1.595-.609,2.7-2.61,2.7C27.579-1.479,26.68-2.2,26.68-3.277Zm8.294-11.049H31.349c.058,1.769.2,4.35.319,6.5-.667-.058-1.305-.116-2-.116-4.031,0-6.409,2.175-6.409,5.017,0,3.19,2.842,4.785,6.438,4.785,4.118,0,5.6-2.088,5.6-4.785v-.29a24.585,24.585,0,0,1,3.915,3.1l1.943-3.1a18.964,18.964,0,0,0-6-3.712c-.058-1.45-.145-2.842-.174-3.683C34.945-11.89,34.887-13.108,34.974-14.326Zm4.988,1.537,2.059-3.045a49.954,49.954,0,0,0-7.163-3.944L33-16.907A41.856,41.856,0,0,1,39.962-12.789ZM-36.105,15.728l-2.436,1.015A26.2,26.2,0,0,1-35.989,21.3l2.523-1.073A49.313,49.313,0,0,0-36.105,15.728Zm3.973-1.392L-34.6,15.351a27.866,27.866,0,0,1,2.726,4.408l2.465-1.1A37.293,37.293,0,0,0-32.132,14.336Zm-16.588.841-2.088,3.19c1.914,1.073,4.93,3.016,6.554,4.147l2.146-3.19C-43.616,18.251-46.806,16.221-48.72,15.177Zm-5.365,20.59,2.175,3.8A36.472,36.472,0,0,0-42.224,36a34.981,34.981,0,0,0,11.513-10.44l-2.233-3.944A29.357,29.357,0,0,1-44.225,32.49,31.1,31.1,0,0,1-54.085,35.767Zm.9-13.978-2.088,3.19c1.943,1.044,4.959,2.987,6.612,4.147l2.117-3.248C-48.024,24.834-51.214,22.833-53.186,21.789Zm35.061-2.2-3.886.928a10.156,10.156,0,0,1,.812,2.059c.2.638.464,1.566.754,2.7-1.334.261-2.378.435-2.784.493-.957.174-1.74.261-2.668.348l.9,3.48c.87-.2,2.987-.638,5.423-1.16,1.044,3.944,2.233,8.468,2.668,10.034a16.622,16.622,0,0,1,.522,2.552l3.944-.986c-.232-.58-.609-1.885-.783-2.378-.435-1.508-1.682-5.974-2.784-9.976,3.132-.638,6.032-1.247,6.728-1.363a25.745,25.745,0,0,1-4.292,5.22l3.19,1.595a45.647,45.647,0,0,0,6.177-9.077L-6.525,22.4A5.528,5.528,0,0,1-8,22.862c-1.131.261-5.191,1.044-8.874,1.74-.319-1.131-.58-2.117-.783-2.813C-17.835,21.035-18.009,20.252-18.125,19.585ZM6.264,15.96l-2.726,2.9a60.3,60.3,0,0,1,7.25,6.264l2.958-3.016A58.57,58.57,0,0,0,6.264,15.96ZM2.639,35.274,5.075,39.1a31.406,31.406,0,0,0,10.759-4.089,30.837,30.837,0,0,0,10.73-10.73L24.3,20.194A27.307,27.307,0,0,1,13.746,31.475,29.89,29.89,0,0,1,2.639,35.274Zm40.223,2.088,2.436,2a6.2,6.2,0,0,1,1.247-.87,31.931,31.931,0,0,0,9.831-7.917l-2.233-3.19a18.364,18.364,0,0,1-7.163,6.119V18.338a14.726,14.726,0,0,1,.2-2.523H42.862a12.857,12.857,0,0,1,.232,2.494V35.216A11.035,11.035,0,0,1,42.862,37.362Zm-13.427-.435,3.538,2.349a17,17,0,0,0,5.162-8.323c.783-2.929.87-9.048.87-12.47a19.1,19.1,0,0,1,.2-2.639H34.945a11.005,11.005,0,0,1,.261,2.668c0,3.509-.029,8.99-.841,11.484A13.681,13.681,0,0,1,29.435,36.927Z" transform="translate(-69.729 5221.424)" fill="#fff"/>
      <path id="交差_121" data-name="交差 121" d="M17.664,37.731c.567-3.4,3.385-8.18,5.523-10.315a2.488,2.488,0,0,1,1.873-.135,16.935,16.935,0,0,0,17.818,0,2.485,2.485,0,0,1,1.872.135c2.139,2.135,4.957,6.911,5.524,10.315,1.4,8.386-7.559,11.413-16.306,11.413S16.265,46.117,17.664,37.731Zm34.627,4.757a11.084,11.084,0,0,0,.285-5.137,20.629,20.629,0,0,0-2.2-5.937,10.3,10.3,0,0,1,1.161-1.425,1.529,1.529,0,0,1,1.158-.086,10.443,10.443,0,0,0,10.993,0,1.531,1.531,0,0,1,1.158.086,14.41,14.41,0,0,1,3.405,6.363c.864,5.171-4.661,7.042-10.061,7.042A17.742,17.742,0,0,1,52.291,42.488ZM.09,36.351a14.386,14.386,0,0,1,3.405-6.363A1.533,1.533,0,0,1,4.654,29.9a10.443,10.443,0,0,0,10.993,0,1.53,1.53,0,0,1,1.158.086,9.559,9.559,0,0,1,.929,1.1,21.284,21.284,0,0,0-2.372,6.258,11.063,11.063,0,0,0,.322,5.264,18.239,18.239,0,0,1-5.534.779C4.751,43.394-.773,41.522.09,36.351ZM50.332,20.924a7.857,7.857,0,1,1,7.856,7.856A7.858,7.858,0,0,1,50.332,20.924Zm-48.039,0A7.857,7.857,0,1,1,10.15,28.78,7.859,7.859,0,0,1,2.293,20.924Zm18.944-8.193A12.732,12.732,0,1,1,33.968,25.466,12.732,12.732,0,0,1,21.237,12.731Z" transform="translate(53.032 5194.584)" fill="url(#linear-gradient)"/>
      <path id="交差_120" data-name="交差 120" d="M43.728,44.729a2.778,2.778,0,0,1-2.718-2.841l-.295-10.64a3.27,3.27,0,0,1,3.272-3.27h7.258V17.172a5.063,5.063,0,1,1,10.125,0V29.483a5.062,5.062,0,0,1-5.062,5.062c-.381,0-9.255-.026-9.255-.026l-.485,7.492a2.781,2.781,0,0,1-2.779,2.718Zm-19.851,0a2.782,2.782,0,0,1-2.78-2.718l-.486-7.492s-8.874.026-9.254.026A5.062,5.062,0,0,1,6.3,29.483V17.172a5.062,5.062,0,1,1,10.124,0V27.978h7.26a3.269,3.269,0,0,1,3.27,3.27L26.654,41.89a2.776,2.776,0,0,1-2.717,2.84Zm26.568-3.423V37.385H55.8a7.957,7.957,0,0,0,7.942-7.943V21.275h3.92v8.167A11.875,11.875,0,0,1,55.8,41.306Zm-38.582,0A11.874,11.874,0,0,1,0,29.441V21.275H3.92v8.167a7.957,7.957,0,0,0,7.943,7.943H17.22v3.921Zm20.389-1.077V28.666h3.267V40.229ZM20.307,26.1V21.325H48.374V26.1ZM51.135,5.174a5.174,5.174,0,1,1,5.173,5.174A5.173,5.173,0,0,1,51.135,5.174Zm-44.955,0a5.174,5.174,0,1,1,5.175,5.174A5.176,5.176,0,0,1,6.18,5.174Z" transform="translate(-260.099 5199)" fill="url(#linear-gradient)"/>
      <path id="交差_122" data-name="交差 122" d="M0,48.933V23.589H12.671V48.933Zm20.126-3.761H16.958V25.517s2.888-.859,3.913-2.053c1.459-1.7,4.545-4.031,8.107-7.335A27.5,27.5,0,0,0,36.011,3.543c.666-4.213,4.9-4.919,6.295-.756,1.326,3.963-.119,7.5-.761,9.342s-4.1,5.2-2.038,7.52c1.3,1.469,4.751,1.174,6.149,1.174H64.011a3.622,3.622,0,0,1,0,7.236H54.856a3.666,3.666,0,0,1,1.33,2.836,3.579,3.579,0,0,1-2.751,3.541,3.668,3.668,0,0,1,1.26,2.778,3.536,3.536,0,0,1-3.45,3.616H49.7a3.662,3.662,0,0,1,1.174,2.7,3.536,3.536,0,0,1-3.446,3.617c-1.958,0-6.989.294-12.022.294C28.793,47.444,26.742,45.172,20.126,45.172Z" transform="translate(-184.701 5344.099)" fill="url(#linear-gradient)"/>
      <path id="交差_124" data-name="交差 124" d="M.5,35.057C-2.483,21.509,8.237,6.534,24.443,1.611,37.323-2.3,50.085,1.1,55.863,9.757c3.216,4.819.968,9.958-9.956,10.923-8.788.776-7.6,11.268.964,10.924,8.033-.322,7.431,5.9,5.7,7.915a37.207,37.207,0,0,1-17.33,11.155A35.628,35.628,0,0,1,24.893,52.25C12.869,52.25,2.831,45.662.5,35.057Zm31.052.964a5.14,5.14,0,1,0,3.634-1.506A5.176,5.176,0,0,0,31.55,36.021Zm-22.294-1.1a3.469,3.469,0,1,0,2.521-1.085A3.467,3.467,0,0,0,9.256,34.925ZM7.292,22.854a3.657,3.657,0,1,0,3.475-2.51A3.663,3.663,0,0,0,7.292,22.854Zm9.5-12.482h0a3.853,3.853,0,1,0,2.247-.726A3.856,3.856,0,0,0,16.788,10.373ZM43.125,8.934a4.242,4.242,0,1,0,3-1.242A4.268,4.268,0,0,0,43.125,8.934ZM31.54,4.83a4.045,4.045,0,1,0,.471-.027A4.1,4.1,0,0,0,31.54,4.83Z" transform="translate(-18 5054.525)" fill="url(#linear-gradient-4)"/>
      <path id="交差_123" data-name="交差 123" d="M0,29.731A30.524,30.524,0,1,1,30.524,60.255,30.555,30.555,0,0,1,0,29.731ZM10.883,10.089A27.744,27.744,0,1,0,30.524,1.94,27.7,27.7,0,0,0,10.883,10.089ZM23.273,52.8l1.987-5.311L31.054,32l7.354,20.587a24.238,24.238,0,0,1-15.134.214ZM6.345,29.731a24.087,24.087,0,0,1,2.071-9.794H8.59L19.835,51.422A24.177,24.177,0,0,1,6.345,29.731ZM43.484,47.7l5.264-14.069s3.635-8.609,4.22-12.534c.014-.09.022-.184.032-.275a24.173,24.173,0,0,1-10.69,30.02ZM33.569,19.937h3.858V16.742H22.615v3.195h4.127l2.728,7.632L23.675,43.055,15.416,19.937h3.568V16.742H10.133a24.165,24.165,0,0,1,36.18-5.315c-3.833.653-4.143,6.612-2.057,9.528C46.43,24,46.868,28.94,46.119,31.98L41.9,43.256Z" transform="translate(-19 5332.777)" fill="url(#linear-gradient)"/>
      <path id="パス_1895" data-name="パス 1895" d="M42.918,19.949l4.558,6.587H42.32l-4.558-6.587H31.241l4.56,6.587H30.646l-4.558-6.587H19.567l4.558,6.587H18.971l-4.558-6.587H7.892l4.558,6.587H7.294L2.9,20.19,48.325,7.518l-.512-1.832L47.7,5.293,47,2.758A3.786,3.786,0,0,0,43.514,0L41.041,7.152,36.074,8.538l2.558-7.393L32.353,2.9,29.795,10.29,24.83,11.675l2.558-7.393L21.106,6.034l-2.558,7.395-4.965,1.384,2.558-7.391L9.86,9.173,7.3,16.566,2.337,17.951l2.558-7.393-2.114.591A3.8,3.8,0,0,0,.14,15.831l.708,2.533L.7,18.408l.621,2.223.152-.043V54.659a3.8,3.8,0,0,0,3.8,3.8H46.316a3.8,3.8,0,0,0,3.8-3.8V19.949h-7.2Z" transform="translate(-175.701 5048.317)" fill="url(#linear-gradient)"/>
      <text id="動画作成" transform="translate(-171.701 5111.317)" font-size="11" font-family="SourceHanSansJP-Bold, Source Han Sans JP" font-weight="700" letter-spacing="-0.05em"><tspan x="-0.175" y="13">動画作成</tspan></text>
      <text id="ディレクション" transform="translate(-150.701 5410)" font-size="11" font-family="SourceHanSansJP-Bold, Source Han Sans JP" font-weight="700" letter-spacing="-0.05em"><tspan x="-36.465" y="0">ディレクション</tspan></text>
      <text id="提案_折衝" data-name="提案・折衝" transform="translate(-225.874 5261)" font-size="11" font-family="SourceHanSansJP-Bold, Source Han Sans JP" font-weight="700" letter-spacing="-0.05em"><tspan x="-26.4" y="0">提案・折衝</tspan></text>
      <text id="デザイン" transform="translate(-10 5111.317)" font-size="11" font-family="SourceHanSansJP-Bold, Source Han Sans JP" font-weight="700" letter-spacing="-0.05em"><tspan x="-0.175" y="13">デザイン</tspan></text>
      <text id="WordPress" transform="translate(11 5410)" font-size="11" font-family="SourceHanSansJP-Bold, Source Han Sans JP" font-weight="700" letter-spacing="-0.05em"><tspan x="-26.791" y="0">WordPress</tspan></text>
      <text id="UX" transform="translate(87.533 5261)" font-size="11" font-family="SourceHanSansJP-Bold, Source Han Sans JP" font-weight="700" letter-spacing="-0.05em"><tspan x="-7.221" y="0">UX</tspan></text>
    </g>
  </g>
</svg>
