<svg xmlns="http://www.w3.org/2000/svg" xmlns:xlink="http://www.w3.org/1999/xlink" width="748.154" height="657.4" viewBox="0 0 748.154 657.4"><defs><clipPath id="a"><path d="M414.743,699.963q8.276.236,16.639.04l-.638-28.818q-7.6.184-15.131-.031Zm31.112-29.534L448,699.171q8.249-.629,16.553-1.694l-3.653-28.6q-7.541.982-15.048,1.553m-64.275,26.829q8.222,1.1,16.548,1.79l2.375-28.726q-7.565-.622-15.045-1.631Zm94.273-30.7,5.141,28.362q8.229-1.494,16.284-3.4l-6.617-28.059q-7.327,1.735-14.809,3.1M348.885,691.081q8.07,1.974,16.271,3.517l5.36-28.324q-7.449-1.407-14.791-3.194Zm156.4-31.475,8.082,27.667q8.015-2.344,15.838-5.093l-9.515-27.205q-7.115,2.494-14.4,4.631M317.027,681.485c5.214,1.871,10.482,3.625,15.8,5.221l8.3-27.6q-7.26-2.193-14.367-4.754Zm216.787-31.9,10.931,26.678q7.717-3.175,15.214-6.729l-12.311-26.065q-6.812,3.222-13.833,6.116M286.35,668.6q7.493,3.612,15.171,6.839l11.133-26.575q-6.991-2.931-13.795-6.219Zm274.782-31.972,13.659,25.385q7.334-3.963,14.416-8.289l-14.963-24.636q-6.434,3.938-13.112,7.54m25.8-15.751,16.235,23.812q6.869-4.7,13.468-9.741l-17.454-22.939q-5.994,4.587-12.249,8.867m24.006-18.361L629.571,624.5q6.332-5.4,12.358-11.115l-19.75-20.981q-5.484,5.2-11.239,10.107m-85.766-59.938,9.068,14.416q4.58-2.9,8.968-6.04L533.4,537.04c-2.69,1.908-5.426,3.764-8.229,5.537m16.152-11.491,10.523,13.387q4.246-3.364,8.29-6.935l-11.2-12.809c-2.48,2.181-5.007,4.308-7.609,6.356m14.869-13.1,11.867,12.209q3.863-3.777,7.516-7.742L563.1,510.879q-3.356,3.645-6.9,7.107m13.427-14.559,13.07,10.9q3.461-4.149,6.686-8.479l-13.622-10.195q-2.956,3.963-6.134,7.777m11.862-15.863,14.14,9.479c2.005-2.992,3.938-6.025,5.781-9.124L586.787,479.2c-1.691,2.836-3.472,5.624-5.3,8.363m10.167-16.989,15.055,7.942q2.521-4.771,4.787-9.676l-15.456-7.152q-2.083,4.495-4.386,8.885m8.3-17.98,15.812,6.326q2-5.007,3.744-10.127L603.388,443.3c-1.072,3.128-2.208,6.227-3.443,9.292m6.389-18.747,16.384,4.642q1.472-5.181,2.67-10.465l-16.6-3.776q-1.1,4.836-2.451,9.6m4.4-19.312,16.778,2.907q.92-5.308,1.561-10.685l-16.911-2.024q-.582,4.943-1.429,9.8m2.349-19.66,16.987,1.132c.239-3.575.391-7.175.436-10.785l-17.029-.244Zm-60.735-37.624c.265,1.381.547,2.75.771,4.142,11.3,71.061-37.3,138.062-108.351,149.369a129.71,129.71,0,0,1-53.257-2.591q-1.047,4.1-2.1,8.251a138.044,138.044,0,0,0,56.7,2.746c75.695-12.045,127.471-83.413,115.427-159.112-.235-1.48-.535-2.935-.817-4.4q-4.214.813-8.363,1.6m29.9-28.423a166.78,166.78,0,0,1,6.636,26.877c.514,3.214.9,6.426,1.222,9.636l36.722-3.666c-.4-3.925-.874-7.838-1.5-11.771a204.122,204.122,0,0,0-8.113-32.867c-11.668,3.926-23.38,7.878-34.972,11.791M192.683,419.115a233.618,233.618,0,0,1,11.783-118.279c1.405.532,50.388,19.054,51.7,19.548a178.364,178.364,0,0,0-8.9,90.047,180.52,180.52,0,0,0,8.6,33.213c-1.328.494-50.462,18.638-51.858,19.152a236.761,236.761,0,0,1-11.322-43.68m10.611-119.529a235.114,235.114,0,0,0-12.1,119.769,238.04,238.04,0,0,0,11.64,44.678l.26.713,54.7-20.2-.262-.709a178.926,178.926,0,0,1-8.771-33.649,176.892,176.892,0,0,1,9.069-89.99l.267-.7-54.528-20.618ZM336.01,396.306a89.01,89.01,0,1,1,87.9,75.068H423.9a89.189,89.189,0,0,1-87.894-75.068m73.482-104.935a92.035,92.035,0,1,0,14.522-1.15,92.192,92.192,0,0,0-14.522,1.15M300.847,401.538C310.979,465.2,367.789,510.03,430.788,506.7l-1.041-19.851a105.04,105.04,0,0,1-76.1-182.7l-13.354-14.7a124.931,124.931,0,0,0-39.444,112.1M407.538,279.072a103.934,103.934,0,0,0-38.719,14.433l2.229,3.6a100.293,100.293,0,0,1,151.972,69.445c.31,1.938.55,3.865.756,5.794l4.19-.416c-.2-2.01-.444-4.023-.767-6.043a104.47,104.47,0,0,0-119.66-86.811M282.311,404.487C269.857,326.223,323.4,252.413,401.674,239.959S553.746,281.048,566.2,359.315,525.109,511.391,446.849,523.848a144.429,144.429,0,0,1-22.669,1.8c-69.39,0-130.627-50.509-141.87-121.16M401.226,237.156c-79.819,12.7-134.418,87.963-121.717,167.777s87.962,134.418,167.783,121.72S581.7,438.681,569,358.869c-11.466-72.044-73.911-123.543-144.661-123.548a146.989,146.989,0,0,0-23.118,1.835M275.253,405.607c-13.072-82.152,43.136-159.634,125.3-172.708s159.629,43.136,172.7,125.29S530.128,517.832,447.971,530.906a151.273,151.273,0,0,1-23.8,1.889c-72.836,0-137.119-53.02-148.922-127.188M400.292,231.269c-83.064,13.216-139.884,91.545-126.668,174.6s91.543,139.889,174.6,126.669S588.1,441,574.885,357.931c-11.927-74.971-76.915-128.565-150.54-128.57a153.194,153.194,0,0,0-24.054,1.908M267.508,406.842c-13.753-86.428,45.377-167.936,131.811-181.689S567.253,270.53,581.008,356.958,535.631,524.9,449.2,538.654a159.359,159.359,0,0,1-25.037,1.987h-.01c-76.62.005-144.231-55.773-156.646-133.8M398.871,222.35C310.888,236.35,250.7,319.315,264.7,407.29S361.665,555.457,449.65,541.452s148.161-96.958,134.161-184.941C571.174,277.1,502.338,220.333,424.354,220.328a162.082,162.082,0,0,0-25.483,2.022m-6.607-41.522a202.433,202.433,0,0,0-75.415,28.115L336.318,240.3a165.761,165.761,0,0,1,61.746-23.02c78.511-12.494,153.114,32.3,181.192,103.354l34.287-13.636C583.086,230.009,507.9,178.286,424.364,178.281a204.047,204.047,0,0,0-32.1,2.547m70.643-67.209A270.551,270.551,0,0,1,504.284,123l4.177-13.561a284.2,284.2,0,0,0-43.536-9.867ZM400.583,97.587l1.177,14.145a270.258,270.258,0,0,1,43.533-.1l1.1-14.154q-10.964-.865-22.1-.868-11.779,0-23.7.98M286.505,571.794c-1.641-1.192-3.227-2.44-4.833-3.668l33.777-43.73c1.165.89,2.314,1.8,3.505,2.66a177.708,177.708,0,0,0,133.125,31.95,180.566,180.566,0,0,0,33.745-8.8c.494,1.333,18.644,50.47,19.162,51.861a236.731,236.731,0,0,1-81.4,14.468h-.015a232.55,232.55,0,0,1-137.063-44.746m-56.739-58.574c1.236-.83,44.824-29.965,45.975-30.735a179.1,179.1,0,0,0,38.5,41c-6.867,8.894-19.327,25.024-33.773,43.73a233.981,233.981,0,0,1-50.7-53.991m-50.086-92.035A245.9,245.9,0,0,1,195.927,286.68q34.234,14.251,71.724,30a169.167,169.167,0,0,0,52.27,199.452l-4.752,6.152a177.345,177.345,0,0,1-38.62-41.25l-.423-.632-48.475,32.409.421.63a235.4,235.4,0,0,0,51.472,54.967l-7.13,9.23a246.441,246.441,0,0,1-92.733-156.455m-8.869,1.409a254.785,254.785,0,0,1,16.82-139.367l5.677,2.364A249.687,249.687,0,0,0,270.68,579.886q-1.867,2.417-3.752,4.86a255.388,255.388,0,0,1-96.116-162.151M47.219,442.265a380.008,380.008,0,0,1,24.716-206.6q18.512,7.5,38.777,15.8a339.133,339.133,0,0,0-8.5,239.447l1.424-.479a337.693,337.693,0,0,1,8.471-238.4q23.136,9.48,48.415,19.941A285.133,285.133,0,0,0,200.3,559.964l11.116-8.821a270.972,270.972,0,0,1-37.784-273.73l8.763,3.638a261.515,261.515,0,0,0,81.067,308.186l-72.98,94.492A379.781,379.781,0,0,1,47.219,442.265m582.43,42.845A229.536,229.536,0,0,0,558.969,196.2a234.9,234.9,0,0,0-28.634-17.758c.144-.282,3.229-6.255,7.934-15.374,66.983,35.031,117.2,100.157,129.966,180.38A245.98,245.98,0,0,1,645.1,492.912c-9.162-4.628-15.167-7.661-15.452-7.8M319.84,525.832c-1.177-.855-2.314-1.754-3.467-2.632l5.658-7.326-.6-.466a167.758,167.758,0,0,1-52.12-198.844l.3-.7-.7-.3q-37.842-15.9-72.392-30.283C228.887,209.747,298.111,151.868,385.1,138.025a246,246,0,0,1,151.824,24.351l-8.609,16.685.668.346a233.188,233.188,0,0,1,29.1,18.013,228.076,228.076,0,0,1,69.905,287.692l-.341.678,16.77,8.468C609.688,562.425,543.994,613.681,462.836,626.6a246.7,246.7,0,0,1-189.231-48.026l7.142-9.247c1.619,1.236,3.215,2.5,4.87,3.694A234.111,234.111,0,0,0,461,615.082a238.055,238.055,0,0,0,45.225-11.834l.709-.265-20.212-54.7-.714.265a179.284,179.284,0,0,1-62.3,11.2h-.007A176.254,176.254,0,0,1,319.84,525.832m327.8-31.64A248.844,248.844,0,0,0,671.041,343C658.13,261.85,607.33,195.975,539.572,160.541c16.969-32.885,51.433-99.67,51.966-100.7A367.858,367.858,0,0,1,717.02,167.2,362.9,362.9,0,0,1,748.8,545.276c-.927-.467-55.676-28.112-90.633-45.765A261.514,261.514,0,0,0,577.1,169.874q-1.668,2.29-3.346,4.591A255.848,255.848,0,0,1,653.1,496.953l-5.468-2.761M370.607,46.938C250.814,66,155.558,145.9,111.3,250.077q-20.623-8.448-39.5-16.1l-.69-.28-.293.688A382.238,382.238,0,0,0,190.141,685.4l.6.461,73.908-95.692a262.111,262.111,0,0,0,141.023,53.548c.124-1.894.254-3.777.383-5.67a256.379,256.379,0,0,1-137.935-52.37l3.752-4.86A249.527,249.527,0,0,0,463.281,629.4c82.094-13.064,148.544-64.912,183.667-133.861l5.473,2.763a258.518,258.518,0,0,1-55.791,73.341l3.822,4.2a264.294,264.294,0,0,0,57.032-74.982l92,46.453.335-.668A364.434,364.434,0,0,0,718.233,166.3,369.3,369.3,0,0,0,591.569,58.127l-.67-.35L538.225,159.853a248.814,248.814,0,0,0-153.573-24.633c-87.995,14-158.02,72.557-190.754,148.975-1.888-.786-3.794-1.579-5.668-2.357A257.435,257.435,0,0,1,315.179,150.186l-2.417-5.14A263.136,263.136,0,0,0,182.987,279.661l-8.768-3.641C209.708,193,285.741,129.377,381.3,114.171q3.955-.631,7.906-1.134l-1.836-14.08q-4.142.537-8.3,1.195c-100.6,16.007-180.638,83.017-217.96,170.437q-25.274-10.462-48.415-19.942C156.758,146.939,251.588,67.4,370.841,48.423A336.129,336.129,0,0,1,508.252,54.93l.371-1.455a337.657,337.657,0,0,0-138.016-6.537" transform="translate(-40.959 -42.693)" fill="#44bed5"/></clipPath><filter id="b" x="138.701" y="215.252" width="169.619" height="247.041" filterUnits="userSpaceOnUse"><feOffset input="SourceAlpha"/><feGaussianBlur stdDeviation="5" result="c"/><feFlood flood-opacity="0.161"/><feComposite operator="in" in2="c"/><feComposite in="SourceGraphic"/></filter><filter id="d" x="375.141" y="94.378" width="218.049" height="203.444" filterUnits="userSpaceOnUse"><feOffset input="SourceAlpha"/><feGaussianBlur stdDeviation="5" result="e"/><feFlood flood-opacity="0.161"/><feComposite operator="in" in2="e"/><feComposite in="SourceGraphic"/></filter><filter id="f" x="457.819" y="215.221" width="169.635" height="247.104" filterUnits="userSpaceOnUse"><feOffset input="SourceAlpha"/><feGaussianBlur stdDeviation="5" result="g"/><feFlood flood-opacity="0.161"/><feComposite operator="in" in2="g"/><feComposite in="SourceGraphic"/></filter><filter id="h" x="375.141" y="379.707" width="217.893" height="203.198" filterUnits="userSpaceOnUse"><feOffset input="SourceAlpha"/><feGaussianBlur stdDeviation="5" result="i"/><feFlood flood-opacity="0.161"/><feComposite operator="in" in2="i"/><feComposite in="SourceGraphic"/></filter><filter id="j" x="172.947" y="94.378" width="218.067" height="203.474" filterUnits="userSpaceOnUse"><feOffset input="SourceAlpha"/><feGaussianBlur stdDeviation="5" result="k"/><feFlood flood-opacity="0.161"/><feComposite operator="in" in2="k"/><feComposite in="SourceGraphic"/></filter><filter id="l" x="173.102" y="379.677" width="217.911" height="203.229" filterUnits="userSpaceOnUse"><feOffset input="SourceAlpha"/><feGaussianBlur stdDeviation="5" result="m"/><feFlood flood-opacity="0.161"/><feComposite operator="in" in2="m"/><feComposite in="SourceGraphic"/></filter><linearGradient id="n" y1="1" x2="1" gradientUnits="objectBoundingBox"><stop offset="0" stop-color="#000046"/><stop offset="1" stop-color="#1cb5e0"/></linearGradient></defs><g transform="translate(-197.846 -4951.664)"><g transform="translate(197.846 4951.664)" opacity="0.371"><g transform="translate(0 0)" clip-path="url(#a)"><rect width="954.95" height="991.336" transform="matrix(0.508, -0.861, 0.861, 0.508, -294.862, 487.411)" fill="#44bed5"/></g></g><g transform="translate(-7830.893 60)"><g transform="translate(8182.439 5001.042)"><g transform="matrix(1, 0, 0, 1, -153.7, -109.38)" filter="url(#b)"><path d="M129.512,525.012a99.457,99.457,0,0,1,9.974-43.549L27.179,416.623a229.719,229.719,0,0,0,.14,217.041l112.3-64.836a99.451,99.451,0,0,1-10.106-43.815" transform="translate(153.7 -186.37)" fill="#fff"/></g><g transform="matrix(1, 0, 0, 1, -153.7, -109.38)" filter="url(#d)"><path d="M814.937,129.655a99.787,99.787,0,0,1,75.754,43.791l112.3-64.834A229.243,229.243,0,0,0,814.937,0Z" transform="translate(-424.8 109.38)" fill="#fff"/></g><g transform="matrix(1, 0, 0, 1, -153.7, -109.38)" filter="url(#f)"><path d="M1110.024,524.935a99.454,99.454,0,0,1-10.122,43.847l112.3,64.836a229.72,229.72,0,0,0,.14-217.1l-112.307,64.84a99.454,99.454,0,0,1,9.99,43.581" transform="translate(-627.08 -186.29)" fill="#fff"/></g><g transform="matrix(1, 0, 0, 1, -153.7, -109.38)" filter="url(#h)"><path d="M890.521,983.453A99.783,99.783,0,0,1,814.937,1027v129.653a229.241,229.241,0,0,0,187.893-108.357Z" transform="translate(-424.8 -588.75)" fill="#fff"/></g><g transform="matrix(1, 0, 0, 1, -153.7, -109.38)" filter="url(#j)"><path d="M230.325,173.477A99.788,99.788,0,0,1,306.1,129.656V0A229.243,229.243,0,0,0,118.031,108.644Z" transform="translate(69.92 109.37)" fill="#fff"/></g><g transform="matrix(1, 0, 0, 1, -153.7, -109.38)" filter="url(#l)"><path d="M306.479,1026.925a99.781,99.781,0,0,1-75.6-43.575l-112.307,64.84a229.241,229.241,0,0,0,187.911,108.388Z" transform="translate(69.53 -588.67)" fill="#fff"/></g></g><text transform="translate(8414.814 5220.068)" fill="#fff" font-size="30" font-family="YuGothicUI-Bold, Yu Gothic UI" font-weight="700"><tspan x="-43.14" y="0">得意な</tspan><tspan y="0" font-family="SegoeUI-Bold, Segoe UI"></tspan><tspan x="-47.483" y="40">ジャンル</tspan></text><path d="M7.817,42.288C4.984,29.412,15.174,15.18,30.576,10.5c12.24-3.719,24.369-.482,29.86,7.743,3.057,4.579.92,9.464-9.462,10.38-8.352.737-7.225,10.709.915,10.382,7.635-.306,7.064,5.611,5.416,7.523a35.374,35.374,0,0,1-16.47,10.6A33.864,33.864,0,0,1,31,58.629C19.575,58.628,10.035,52.368,7.817,42.288ZM37.33,43.2a4.884,4.884,0,1,0,3.453-1.431A4.919,4.919,0,0,0,37.33,43.2ZM16.142,42.162a3.3,3.3,0,1,0,2.4-1.032A3.3,3.3,0,0,0,16.142,42.162ZM14.275,30.69a3.477,3.477,0,1,0,3.3-2.385A3.483,3.483,0,0,0,14.275,30.69ZM23.3,18.829h0a3.664,3.664,0,1,0,2.137-.69A3.665,3.665,0,0,0,23.3,18.83ZM48.33,17.461a4.033,4.033,0,1,0,2.85-1.18A4.06,4.06,0,0,0,48.33,17.461Zm-11.011-3.9a3.844,3.844,0,1,0,.448-.026A3.889,3.889,0,0,0,37.319,13.561Z" transform="translate(8447.655 5039.03)" fill="url(#n)"/><path d="M7.345,34.2A27.945,27.945,0,1,1,35.291,62.142,27.973,27.973,0,0,1,7.345,34.2Zm9.963-17.982a25.4,25.4,0,1,0,17.983-7.46A25.36,25.36,0,0,0,17.308,16.214Zm11.344,39.1,1.819-4.862,5.3-14.181,6.732,18.847a22.173,22.173,0,0,1-13.855.2ZM13.154,34.2a22.056,22.056,0,0,1,1.9-8.966h.159L25.5,54.055A22.133,22.133,0,0,1,13.154,34.2Zm34,16.452,4.819-12.881s3.328-7.882,3.864-11.475c.013-.083.022-.167.03-.252a22.131,22.131,0,0,1-9.787,27.483ZM38.077,25.231H41.61V22.306H28.049v2.925h3.777l2.5,6.987L29.021,46.4,21.459,25.231h3.266V22.306h-8.1a22.122,22.122,0,0,1,33.123-4.866c-3.509.6-3.793,6.053-1.884,8.723,1.991,2.792,2.391,7.311,1.706,10.094L45.7,46.58Z" transform="translate(8446.655 5325.553)" fill="url(#n)"/><path d="M13.6,62.868a3.657,3.657,0,0,1-3.657-3.657V26.423l-.146.041-.6-2.139.143-.041-.682-2.438A3.66,3.66,0,0,1,11.2,17.339l2.034-.568L10.77,23.886l4.779-1.332L18.01,15.44l6.045-1.687-2.462,7.114,4.778-1.333,2.462-7.116,6.045-1.686-2.461,7.115,4.777-1.332L39.656,9.4,45.7,7.714l-2.462,7.115,4.78-1.335L50.4,6.611a3.642,3.642,0,0,1,3.351,2.654l.681,2.44.105.377.492,1.763L11.315,26.041l4.226,6.107H20.5l-4.387-6.339h6.275l4.387,6.339h4.96l-4.387-6.339h6.276l4.386,6.339h4.962l-4.388-6.339h6.276l4.386,6.339h4.962l-4.387-6.339H56.75v33.4a3.656,3.656,0,0,1-3.657,3.657Z" transform="translate(8300.479 5036.389)" fill="url(#n)"/><path d="M3.268,57.842v-23.9H15.219v23.9ZM22.25,54.3H19.262V35.755s2.724-.809,3.691-1.935c1.377-1.608,4.288-3.8,7.646-6.918A25.938,25.938,0,0,0,37.232,15.03c.629-3.973,4.625-4.639,5.938-.713,1.25,3.738-.113,7.069-.719,8.812s-3.867,4.9-1.922,7.093c1.231,1.386,4.482,1.107,5.8,1.107H63.641a3.416,3.416,0,0,1,0,6.825H55.006a3.46,3.46,0,0,1,1.255,2.676,3.377,3.377,0,0,1-2.594,3.34,3.459,3.459,0,0,1,1.188,2.619A3.336,3.336,0,0,1,51.6,50.2H50.144a3.451,3.451,0,0,1,1.107,2.547A3.335,3.335,0,0,1,48,56.159c-1.846,0-6.592.277-11.339.277C30.425,56.436,28.49,54.3,22.25,54.3Z" transform="translate(8299.789 5320.553)" fill="url(#n)"/><path d="M48.59,57.163a2.785,2.785,0,0,1-2.724-2.848l-.3-10.669a3.278,3.278,0,0,1,3.28-3.28h7.278V29.534a5.076,5.076,0,1,1,10.152,0V41.876A5.077,5.077,0,0,1,61.2,46.952c-.381,0-9.279-.026-9.279-.026l-.487,7.511a2.79,2.79,0,0,1-2.786,2.726ZM25.9,54.437l-.487-7.511s-8.9.026-9.279.026a5.075,5.075,0,0,1-5.074-5.076V29.534a5.075,5.075,0,1,1,10.15,0V40.367h7.278a3.278,3.278,0,0,1,3.28,3.28l-.3,10.669a2.785,2.785,0,0,1-2.724,2.848h-.062A2.789,2.789,0,0,1,25.9,54.437Zm29.425-.707V49.8H60.7a7.98,7.98,0,0,0,7.963-7.964V33.646h3.93v8.188A11.907,11.907,0,0,1,60.7,53.73Zm-38.683,0a11.906,11.906,0,0,1-11.894-11.9V33.646h3.93v8.188A7.98,7.98,0,0,0,16.642,49.8h5.37V53.73Zm20.443-1.08V41.057H40.36V52.65ZM25.107,38.486V33.7H53.249v4.79ZM56.017,17.5A5.188,5.188,0,1,1,61.2,22.692,5.187,5.187,0,0,1,56.017,17.5Zm-45.072,0a5.188,5.188,0,1,1,5.188,5.188A5.189,5.189,0,0,1,10.945,17.5Z" transform="translate(8205.483 5188.574)" fill="url(#n)"/><path d="M20.978,48.16c.568-3.414,3.394-8.2,5.538-10.343a2.5,2.5,0,0,1,1.877-.135,16.983,16.983,0,0,0,17.865,0,2.494,2.494,0,0,1,1.876.135c2.144,2.141,4.97,6.929,5.539,10.343,1.4,8.408-7.579,11.444-16.348,11.444S19.576,56.568,20.978,48.16ZM55.7,52.929a11.12,11.12,0,0,0,.286-5.152,20.667,20.667,0,0,0-2.208-5.952,10.412,10.412,0,0,1,1.164-1.43,1.529,1.529,0,0,1,1.161-.085,10.475,10.475,0,0,0,11.022,0,1.53,1.53,0,0,1,1.161.085A14.453,14.453,0,0,1,71.7,46.777c.868,5.183-4.673,7.061-10.087,7.061A17.818,17.818,0,0,1,55.7,52.929ZM3.358,46.777A14.421,14.421,0,0,1,6.772,40.4a1.531,1.531,0,0,1,1.162-.085,10.475,10.475,0,0,0,11.022,0,1.529,1.529,0,0,1,1.161.085,9.8,9.8,0,0,1,.931,1.108,21.327,21.327,0,0,0-2.377,6.274,11.067,11.067,0,0,0,.323,5.278,18.287,18.287,0,0,1-5.549.781C8.031,53.837,2.492,51.96,3.358,46.777ZM53.732,31.309a7.878,7.878,0,1,1,7.877,7.876A7.878,7.878,0,0,1,53.732,31.309Zm-48.165,0a7.878,7.878,0,1,1,7.879,7.876A7.879,7.879,0,0,1,5.567,31.309Zm18.995-8.215A12.766,12.766,0,1,1,37.325,35.861,12.765,12.765,0,0,1,24.561,23.094Z" transform="translate(8542.287 5188.703)" fill="url(#n)"/><text transform="translate(8580.555 5281.775)" font-size="13" font-family="SegoeUI-Bold, Segoe UI" font-weight="700"><tspan x="-8.96" y="0">UX</tspan></text><text transform="translate(8482 5129.536)" font-size="13" font-family="YuGothicUI-Bold, Yu Gothic UI" font-weight="700"><tspan x="-20.503" y="0">デザイン</tspan></text><text transform="translate(8482 5414.488)" font-size="13" font-family="SegoeUI-Bold, Segoe UI" font-weight="700"><tspan x="-32.706" y="0">WordPress</tspan></text><text transform="translate(8335.057 5414.488)" font-size="13" font-family="YuGothicUI-Bold, Yu Gothic UI" font-weight="700"><tspan x="-33.436" y="0">ディレクション</tspan></text><text transform="translate(8244.229 5281.775)" font-size="13" font-family="YuGothicUI-Bold, Yu Gothic UI" font-weight="700"><tspan x="-29.25" y="0">提案・折衝</tspan></text><text transform="translate(8333 5129.536)" font-size="13" font-family="YuGothicUI-Bold, Yu Gothic UI" font-weight="700"><tspan x="-26" y="0">動画作成</tspan></text></g></g></svg>