<svg xmlns="http://www.w3.org/2000/svg" xmlns:xlink="http://www.w3.org/1999/xlink" width="748.154" height="657.4" viewBox="0 0 748.154 657.4"><defs><clipPath id="a"><path d="M414.743,699.963q8.276.236,16.639.04l-.638-28.818q-7.6.184-15.131-.031Zm31.112-29.534L448,699.171q8.249-.629,16.553-1.694l-3.653-28.6q-7.541.982-15.048,1.553m-64.275,26.829q8.222,1.1,16.548,1.79l2.375-28.726q-7.565-.622-15.045-1.631Zm94.273-30.7,5.141,28.362q8.229-1.494,16.284-3.4l-6.617-28.059q-7.327,1.735-14.809,3.1M348.885,691.081q8.07,1.974,16.271,3.517l5.36-28.324q-7.449-1.407-14.791-3.194Zm156.4-31.475,8.082,27.667q8.015-2.344,15.838-5.093l-9.515-27.205q-7.115,2.494-14.4,4.631M317.027,681.485c5.214,1.871,10.482,3.625,15.8,5.221l8.3-27.6q-7.26-2.193-14.367-4.754Zm216.787-31.9,10.931,26.678q7.717-3.175,15.214-6.729l-12.311-26.065q-6.812,3.222-13.833,6.116M286.35,668.6q7.493,3.612,15.171,6.839l11.133-26.575q-6.991-2.931-13.795-6.219Zm274.782-31.972,13.659,25.385q7.334-3.963,14.416-8.289l-14.963-24.636q-6.434,3.938-13.112,7.54m25.8-15.751,16.235,23.812q6.869-4.7,13.468-9.741l-17.454-22.939q-5.994,4.587-12.249,8.867m24.006-18.361L629.571,624.5q6.332-5.4,12.358-11.115l-19.75-20.981q-5.484,5.2-11.239,10.107m-85.766-59.938,9.068,14.416q4.58-2.9,8.968-6.04L533.4,537.04c-2.69,1.908-5.426,3.764-8.229,5.537m16.152-11.491,10.523,13.387q4.246-3.364,8.29-6.935l-11.2-12.809c-2.48,2.181-5.007,4.308-7.609,6.356m14.869-13.1,11.867,12.209q3.863-3.777,7.516-7.742L563.1,510.879q-3.356,3.645-6.9,7.107m13.427-14.559,13.07,10.9q3.461-4.149,6.686-8.479l-13.622-10.195q-2.956,3.963-6.134,7.777m11.862-15.863,14.14,9.479c2.005-2.992,3.938-6.025,5.781-9.124L586.787,479.2c-1.691,2.836-3.472,5.624-5.3,8.363m10.167-16.989,15.055,7.942q2.521-4.771,4.787-9.676l-15.456-7.152q-2.083,4.495-4.386,8.885m8.3-17.98,15.812,6.326q2-5.007,3.744-10.127L603.388,443.3c-1.072,3.128-2.208,6.227-3.443,9.292m6.389-18.747,16.384,4.642q1.472-5.181,2.67-10.465l-16.6-3.776q-1.1,4.836-2.451,9.6m4.4-19.312,16.778,2.907q.92-5.308,1.561-10.685l-16.911-2.024q-.582,4.943-1.429,9.8m2.349-19.66,16.987,1.132c.239-3.575.391-7.175.436-10.785l-17.029-.244Zm-60.735-37.624c.265,1.381.547,2.75.771,4.142,11.3,71.061-37.3,138.062-108.351,149.369a129.71,129.71,0,0,1-53.257-2.591q-1.047,4.1-2.1,8.251a138.044,138.044,0,0,0,56.7,2.746c75.695-12.045,127.471-83.413,115.427-159.112-.235-1.48-.535-2.935-.817-4.4q-4.214.813-8.363,1.6m29.9-28.423a166.78,166.78,0,0,1,6.636,26.877c.514,3.214.9,6.426,1.222,9.636l36.722-3.666c-.4-3.925-.874-7.838-1.5-11.771a204.122,204.122,0,0,0-8.113-32.867c-11.668,3.926-23.38,7.878-34.972,11.791M192.683,419.115a233.618,233.618,0,0,1,11.783-118.279c1.405.532,50.388,19.054,51.7,19.548a178.364,178.364,0,0,0-8.9,90.047,180.52,180.52,0,0,0,8.6,33.213c-1.328.494-50.462,18.638-51.858,19.152a236.761,236.761,0,0,1-11.322-43.68m10.611-119.529a235.114,235.114,0,0,0-12.1,119.769,238.04,238.04,0,0,0,11.64,44.678l.26.713,54.7-20.2-.262-.709a178.926,178.926,0,0,1-8.771-33.649,176.892,176.892,0,0,1,9.069-89.99l.267-.7-54.528-20.618ZM336.01,396.306a89.01,89.01,0,1,1,87.9,75.068H423.9a89.189,89.189,0,0,1-87.894-75.068m73.482-104.935a92.035,92.035,0,1,0,14.522-1.15,92.192,92.192,0,0,0-14.522,1.15M300.847,401.538C310.979,465.2,367.789,510.03,430.788,506.7l-1.041-19.851a105.04,105.04,0,0,1-76.1-182.7l-13.354-14.7a124.931,124.931,0,0,0-39.444,112.1M407.538,279.072a103.934,103.934,0,0,0-38.719,14.433l2.229,3.6a100.293,100.293,0,0,1,151.972,69.445c.31,1.938.55,3.865.756,5.794l4.19-.416c-.2-2.01-.444-4.023-.767-6.043a104.47,104.47,0,0,0-119.66-86.811M282.311,404.487C269.857,326.223,323.4,252.413,401.674,239.959S553.746,281.048,566.2,359.315,525.109,511.391,446.849,523.848a144.429,144.429,0,0,1-22.669,1.8c-69.39,0-130.627-50.509-141.87-121.16M401.226,237.156c-79.819,12.7-134.418,87.963-121.717,167.777s87.962,134.418,167.783,121.72S581.7,438.681,569,358.869c-11.466-72.044-73.911-123.543-144.661-123.548a146.989,146.989,0,0,0-23.118,1.835M275.253,405.607c-13.072-82.152,43.136-159.634,125.3-172.708s159.629,43.136,172.7,125.29S530.128,517.832,447.971,530.906a151.273,151.273,0,0,1-23.8,1.889c-72.836,0-137.119-53.02-148.922-127.188M400.292,231.269c-83.064,13.216-139.884,91.545-126.668,174.6s91.543,139.889,174.6,126.669S588.1,441,574.885,357.931c-11.927-74.971-76.915-128.565-150.54-128.57a153.194,153.194,0,0,0-24.054,1.908M267.508,406.842c-13.753-86.428,45.377-167.936,131.811-181.689S567.253,270.53,581.008,356.958,535.631,524.9,449.2,538.654a159.359,159.359,0,0,1-25.037,1.987h-.01c-76.62.005-144.231-55.773-156.646-133.8M398.871,222.35C310.888,236.35,250.7,319.315,264.7,407.29S361.665,555.457,449.65,541.452s148.161-96.958,134.161-184.941C571.174,277.1,502.338,220.333,424.354,220.328a162.082,162.082,0,0,0-25.483,2.022m-6.607-41.522a202.433,202.433,0,0,0-75.415,28.115L336.318,240.3a165.761,165.761,0,0,1,61.746-23.02c78.511-12.494,153.114,32.3,181.192,103.354l34.287-13.636C583.086,230.009,507.9,178.286,424.364,178.281a204.047,204.047,0,0,0-32.1,2.547m70.643-67.209A270.551,270.551,0,0,1,504.284,123l4.177-13.561a284.2,284.2,0,0,0-43.536-9.867ZM400.583,97.587l1.177,14.145a270.258,270.258,0,0,1,43.533-.1l1.1-14.154q-10.964-.865-22.1-.868-11.779,0-23.7.98M286.505,571.794c-1.641-1.192-3.227-2.44-4.833-3.668l33.777-43.73c1.165.89,2.314,1.8,3.505,2.66a177.708,177.708,0,0,0,133.125,31.95,180.566,180.566,0,0,0,33.745-8.8c.494,1.333,18.644,50.47,19.162,51.861a236.731,236.731,0,0,1-81.4,14.468h-.015a232.55,232.55,0,0,1-137.063-44.746m-56.739-58.574c1.236-.83,44.824-29.965,45.975-30.735a179.1,179.1,0,0,0,38.5,41c-6.867,8.894-19.327,25.024-33.773,43.73a233.981,233.981,0,0,1-50.7-53.991m-50.086-92.035A245.9,245.9,0,0,1,195.927,286.68q34.234,14.251,71.724,30a169.167,169.167,0,0,0,52.27,199.452l-4.752,6.152a177.345,177.345,0,0,1-38.62-41.25l-.423-.632-48.475,32.409.421.63a235.4,235.4,0,0,0,51.472,54.967l-7.13,9.23a246.441,246.441,0,0,1-92.733-156.455m-8.869,1.409a254.785,254.785,0,0,1,16.82-139.367l5.677,2.364A249.687,249.687,0,0,0,270.68,579.886q-1.867,2.417-3.752,4.86a255.388,255.388,0,0,1-96.116-162.151M47.219,442.265a380.008,380.008,0,0,1,24.716-206.6q18.512,7.5,38.777,15.8a339.133,339.133,0,0,0-8.5,239.447l1.424-.479a337.693,337.693,0,0,1,8.471-238.4q23.136,9.48,48.415,19.941A285.133,285.133,0,0,0,200.3,559.964l11.116-8.821a270.972,270.972,0,0,1-37.784-273.73l8.763,3.638a261.515,261.515,0,0,0,81.067,308.186l-72.98,94.492A379.781,379.781,0,0,1,47.219,442.265m582.43,42.845A229.536,229.536,0,0,0,558.969,196.2a234.9,234.9,0,0,0-28.634-17.758c.144-.282,3.229-6.255,7.934-15.374,66.983,35.031,117.2,100.157,129.966,180.38A245.98,245.98,0,0,1,645.1,492.912c-9.162-4.628-15.167-7.661-15.452-7.8M319.84,525.832c-1.177-.855-2.314-1.754-3.467-2.632l5.658-7.326-.6-.466a167.758,167.758,0,0,1-52.12-198.844l.3-.7-.7-.3q-37.842-15.9-72.392-30.283C228.887,209.747,298.111,151.868,385.1,138.025a246,246,0,0,1,151.824,24.351l-8.609,16.685.668.346a233.188,233.188,0,0,1,29.1,18.013,228.076,228.076,0,0,1,69.905,287.692l-.341.678,16.77,8.468C609.688,562.425,543.994,613.681,462.836,626.6a246.7,246.7,0,0,1-189.231-48.026l7.142-9.247c1.619,1.236,3.215,2.5,4.87,3.694A234.111,234.111,0,0,0,461,615.082a238.055,238.055,0,0,0,45.225-11.834l.709-.265-20.212-54.7-.714.265a179.284,179.284,0,0,1-62.3,11.2h-.007A176.254,176.254,0,0,1,319.84,525.832m327.8-31.64A248.844,248.844,0,0,0,671.041,343C658.13,261.85,607.33,195.975,539.572,160.541c16.969-32.885,51.433-99.67,51.966-100.7A367.858,367.858,0,0,1,717.02,167.2,362.9,362.9,0,0,1,748.8,545.276c-.927-.467-55.676-28.112-90.633-45.765A261.514,261.514,0,0,0,577.1,169.874q-1.668,2.29-3.346,4.591A255.848,255.848,0,0,1,653.1,496.953l-5.468-2.761M370.607,46.938C250.814,66,155.558,145.9,111.3,250.077q-20.623-8.448-39.5-16.1l-.69-.28-.293.688A382.238,382.238,0,0,0,190.141,685.4l.6.461,73.908-95.692a262.111,262.111,0,0,0,141.023,53.548c.124-1.894.254-3.777.383-5.67a256.379,256.379,0,0,1-137.935-52.37l3.752-4.86A249.527,249.527,0,0,0,463.281,629.4c82.094-13.064,148.544-64.912,183.667-133.861l5.473,2.763a258.518,258.518,0,0,1-55.791,73.341l3.822,4.2a264.294,264.294,0,0,0,57.032-74.982l92,46.453.335-.668A364.434,364.434,0,0,0,718.233,166.3,369.3,369.3,0,0,0,591.569,58.127l-.67-.35L538.225,159.853a248.814,248.814,0,0,0-153.573-24.633c-87.995,14-158.02,72.557-190.754,148.975-1.888-.786-3.794-1.579-5.668-2.357A257.435,257.435,0,0,1,315.179,150.186l-2.417-5.14A263.136,263.136,0,0,0,182.987,279.661l-8.768-3.641C209.708,193,285.741,129.377,381.3,114.171q3.955-.631,7.906-1.134l-1.836-14.08q-4.142.537-8.3,1.195c-100.6,16.007-180.638,83.017-217.96,170.437q-25.274-10.462-48.415-19.942C156.758,146.939,251.588,67.4,370.841,48.423A336.129,336.129,0,0,1,508.252,54.93l.371-1.455a337.657,337.657,0,0,0-138.016-6.537" transform="translate(-40.959 -42.693)" fill="#44bed5"/></clipPath><filter id="b" x="138.594" y="94.474" width="488.75" height="488.527" filterUnits="userSpaceOnUse"><feOffset input="SourceAlpha"/><feGaussianBlur stdDeviation="5" result="c"/><feFlood flood-opacity="0.161"/><feComposite operator="in" in2="c"/><feComposite in="SourceGraphic"/></filter><linearGradient id="d" x1="-0.18" y1="1" x2="1" y2="0.107" gradientUnits="objectBoundingBox"><stop offset="0" stop-color="#000046"/><stop offset="1" stop-color="#1cb5e0"/></linearGradient></defs><g transform="translate(-320.893 -2761.024)"><g transform="translate(320.893 2761.024)" opacity="0.371"><g transform="translate(0 0)" clip-path="url(#a)"><rect width="954.95" height="991.336" transform="matrix(0.508, -0.861, 0.861, 0.508, -294.862, 487.411)" fill="#44bed5"/></g></g><g transform="translate(474.487 2870.498)"><g transform="matrix(1, 0, 0, 1, -153.59, -109.47)" filter="url(#b)"><path d="M236.443,328.873a99.766,99.766,0,0,0,75.581-43.548l112.31,64.847a229.241,229.241,0,0,1-187.89,108.355ZM34.4,350.141,146.711,285.3a99.79,99.79,0,0,0,75.605,43.574V458.527A229.249,229.249,0,0,1,34.4,350.141Zm284.716-77.031a100.057,100.057,0,0,0,.135-87.429l112.3-64.84a229.73,229.73,0,0,1-.135,217.1ZM0,229.261A228.366,228.366,0,0,1,27.178,120.873l112.3,64.84a100.077,100.077,0,0,0,.134,87.365l-112.3,64.834A228.374,228.374,0,0,1,0,229.261ZM34.246,108.637A229.236,229.236,0,0,1,222.316,0V129.654a99.778,99.778,0,0,0-75.779,43.817Zm202.2,21.016V0A229.23,229.23,0,0,1,424.486,108.606L312.2,173.439A99.793,99.793,0,0,0,236.443,129.654Z" transform="translate(153.59 109.47)" fill="#fff"/></g><text transform="translate(229.375 218.93)" fill="#fff" font-size="30" font-family="sans-serif" font-weight="700"><tspan x="-43.14" y="0">得意な</tspan><tspan y="0" font-family="sans-serif"></tspan><tspan x="-47.483" y="40">ジャンル</tspan></text><path d="M4.529,51.612c-1.251-1.248-.693-3.4,1.163-5.688C7.335,43.854,16.11,33.007,21.571,27.33c3.443-3.955,6.8-7.034,9.281-7.709l5.667,5.665c-.677,2.485-3.754,5.84-7.709,9.283-5.677,5.462-16.522,14.238-18.593,15.88a6.894,6.894,0,0,1-4,1.834A2.3,2.3,0,0,1,4.529,51.612Zm36-1.33c-1.581-1.253-8.137-6.55-13.786-11.485,1.169-1.049,2.263-2.053,3.215-2.969,1.526-1.328,2.834-2.566,3.939-3.722C38.771,37.7,43.933,44.088,45.166,45.642c1.9,2.345,2.475,4.553,1.194,5.835a2.362,2.362,0,0,1-1.729.687A7.055,7.055,0,0,1,40.53,50.282Zm-26.966-25.8c-.443-1.611-.223-3,.358-3.579l1.87-1.871c.58-.581,1.969-.8,3.582-.358a13.893,13.893,0,0,1,5.011,3.24,56.94,56.94,0,0,0-4.07,4.263c-1,1.047-2.122,2.264-3.285,3.569A14.415,14.415,0,0,1,13.564,24.485Zm18.381-6.141,2.914-2.913,5.822,5.823-2.912,2.913ZM3.957,19.392C-.68,14.755-1.123,6.223,2.008,1.839A8.016,8.016,0,0,0,3.663,3.166C7.191,5.519,11.206,6,14.279,9.07a7.3,7.3,0,0,1,1.863,7.138L11.1,21.258a7.31,7.31,0,0,1-7.139-1.866Zm32.019-5.081c1.68-1.68-1.174-3.527,2.353-7.058l1.064-1.062L49.921,16.719l-1.064,1.066c-2.062,2.058-3.55,1.94-4.767,1.822a2.453,2.453,0,0,0-2.291.53ZM40.582,5,45.09.492a1.688,1.688,0,0,1,2.383,0L55.62,8.639a1.686,1.686,0,0,1,0,2.381l-4.506,4.508Z" transform="translate(124.326 331.086)" fill="url(#d)"/><path d="M25.578,49.189a16.988,16.988,0,0,1,1.38-4.43l-4.687-4.741-5.236,5.113a2.482,2.482,0,1,1-2.228-1.4c.057,0,.111.012.172.018l5.7-5.753V34.45h3.064v3.407h.095l-.047.065h.047l4.385,4.6a17.206,17.206,0,0,1,31.286,6.668Zm16.535-15.5H0V29.859H2.3V6.125H0V2.292H19.908V0h4.6V2.292h19.9V6.125h-2.3v5.656c.14-.006.283-.01.426-.01a9.808,9.808,0,0,1,1.871,19.437v2.477ZM5.364,29.859H37.281a9.884,9.884,0,0,1-2.822-2.727v.487H28.331V10.011h6.127v6.01a9.815,9.815,0,0,1,4.59-3.611V6.125H5.364Zm13.781-2.24V13.839h6.124v13.78Zm-9.19,0V17.666h6.127v9.953Z" transform="translate(278.175 335.959)" fill="url(#d)"/><path d="M18.894,32.1,26.186-.767h3.8L22.721,32.1Zm13.5-14.652,6.435-2.079,5.148-1.782v-.132l-5.148-1.782L32.39,9.595V4.777l17.523,6.732v4.026L32.39,22.267Zm-32.8-1.914V11.509L17.112,4.777V9.595l-6.435,2.079L5.529,13.456v.132l5.148,1.782,6.435,2.079v4.818Z" transform="translate(366.901 206.451)" fill="url(#d)"/><path d="M1.229,40.029A1.091,1.091,0,0,1,.057,38.663L2.688,31.5a1.223,1.223,0,0,1,1.173-.738H45.924A1.22,1.22,0,0,1,47.1,31.5l2.632,7.166a1.089,1.089,0,0,1-1.172,1.367ZM4.641,28.457a1.624,1.624,0,0,1-1.623-1.623V1.622A1.621,1.621,0,0,1,4.641,0H45.263a1.622,1.622,0,0,1,1.623,1.622V26.833a1.625,1.625,0,0,1-1.623,1.623Zm2.414-3.889H42.848V3.888H7.055Z" transform="translate(41.268 200.551)" fill="url(#d)"/><path d="M.476,33.519c-2.85-12.954,7.4-27.272,22.9-31.979C35.686-2.2,47.888,1.056,53.413,9.329c3.075,4.607.926,9.522-9.519,10.444-8.4.742-7.269,10.774.922,10.445,7.68-.308,7.105,5.645,5.448,7.568a35.575,35.575,0,0,1-16.57,10.665A34.066,34.066,0,0,1,23.8,49.959C12.3,49.958,2.707,43.659.476,33.519Zm29.691.922A4.915,4.915,0,1,0,33.641,33,4.949,4.949,0,0,0,30.166,34.441ZM8.85,33.393a3.316,3.316,0,1,0,2.41-1.038A3.315,3.315,0,0,0,8.85,33.393ZM6.972,21.852a3.5,3.5,0,1,0,3.322-2.4A3.5,3.5,0,0,0,6.972,21.852Zm9.08-11.934h0A3.684,3.684,0,1,0,18.2,9.224,3.687,3.687,0,0,0,16.052,9.918ZM41.233,8.542A4.056,4.056,0,1,0,44.1,7.355,4.081,4.081,0,0,0,41.233,8.542ZM30.156,4.618a3.868,3.868,0,1,0,.45-.026A3.917,3.917,0,0,0,30.156,4.618Z" transform="translate(279.896 44.138)" fill="url(#d)"/><text transform="translate(390.257 263.568)" font-size="13" font-family="sans-serif" font-weight="700"><tspan x="-28.472" y="0">コーディング</tspan></text><text transform="translate(307.245 116.964)" font-size="13" font-family="sans-serif" font-weight="700"><tspan x="-20.503" y="0">デザイン</tspan></text><text transform="translate(302.809 406.583)" font-size="13" font-family="sans-serif" font-weight="700"><tspan x="-20.474" y="0">プレゼン</tspan></text><text transform="translate(150.326 406.515)" font-size="13" font-family="sans-serif" font-weight="700"><tspan x="-18.992" y="0">イラスト</tspan></text><text transform="translate(65.662 263.568)" font-size="13" font-family="sans-serif" font-weight="700"><tspan x="-34.233" y="0">プログラミング</tspan></text><g transform="translate(111.662 39.531)"><path d="M22.378,35.947H36.967L22.378,50.564ZM0,50.564V0H36.967V33.209H19.642V50.564Zm5.031-23.7a1.2,1.2,0,0,0,1.2,1.2H30.738a1.2,1.2,0,0,0,0-2.4H6.23A1.2,1.2,0,0,0,5.031,26.865Zm0-8.678a1.2,1.2,0,0,0,1.2,1.2H30.738a1.2,1.2,0,0,0,0-2.4H6.23A1.2,1.2,0,0,0,5.031,18.187Zm0-8.677a1.2,1.2,0,0,0,1.2,1.2H30.738a1.2,1.2,0,0,0,0-2.4H6.23A1.2,1.2,0,0,0,5.031,9.51Z" transform="translate(23.802 4)" fill="url(#d)"/><path d="M-31.362-12.765A15.739,15.739,0,0,1-37.2-7.412a7.152,7.152,0,0,1,1.071,1.37,17.685,17.685,0,0,0,5.71-5.053A19.106,19.106,0,0,0-24.6-6.056a9.257,9.257,0,0,1,1.142-1.527,15.176,15.176,0,0,1-6.166-5.182Zm1.984,8.607h3.825v-1.5h-3.825V-8.711h-1.784V-1.3h-2.027V-6.256h-1.67V-1.3h-1.556V.239h12.147V-1.3h-5.11Zm17.629,2.341h-8.622V-9.325h-1.656V.624h1.656V-.218h8.622V.61h1.642V-9.325h-1.642Zm-2.4-4.725h-1.242v-1.2h1.242Zm0,2.5h-1.242V-5.257h1.242Zm-3.94-1.213h1.242v1.213h-1.242Zm0-2.484h1.242v1.2h-1.242Zm-4.368-4.111v1.584h5.481v1.142h-2.5v6.466h6.794V-9.125h-2.6v-1.142h5.6v-1.584ZM-1.8-7.869A1.84,1.84,0,0,0-3.627-6.042,1.84,1.84,0,0,0-1.8-4.215,1.84,1.84,0,0,0,.027-6.042,1.84,1.84,0,0,0-1.8-7.869Zm17.7,6.58H9.205V-2.53H15.9ZM10.361-7.1H14.6v1H10.361Zm5.881,2.241v-3.5H8.791v3.5h2.6c-.057.285-.143.585-.214.871H7.592V.653H9.205V.182H15.9V.653h1.684V-3.986H12.859c.128-.271.257-.557.371-.871Zm.371-5.638c.4-.471.828-1.042,1.242-1.584l-1.827-.571a10.676,10.676,0,0,1-1.27,2.155H12.417l1-.371a9.6,9.6,0,0,0-1.085-1.884l-1.485.5a11.654,11.654,0,0,1,.928,1.756h-2.2l.457-.2a9.216,9.216,0,0,0-1.27-1.827l-1.47.642A11.266,11.266,0,0,1,8.235-10.5H6.493v3.04H8.049v-1.6H16.97v1.6h1.642V-10.5ZM28.5-9c-.157.385-.328.8-.5,1.142H25.335l.243-.043A7.668,7.668,0,0,0,25.092-9ZM33.114-2.63v-1.4H27.562v-.628h4.282V-5.885H27.562v-.642h4.953V-7.855h-2.8c.214-.343.442-.728.671-1.142h2.684v-1.385H31.216c.328-.5.714-1.142,1.113-1.8l-1.784-.428a11.5,11.5,0,0,1-.9,2.07l.514.157h-1.27v-2.327h-1.6v2.327H26.234v-2.327H24.65v2.327h-1.3l.7-.257a10.8,10.8,0,0,0-1.085-2.013l-1.456.5a12.8,12.8,0,0,1,.885,1.77H20.482V-9h2.983l-.171.029a6.414,6.414,0,0,1,.485,1.113H21.067v1.327h4.825v.642H21.781v1.228h4.111v.628H20.439v1.4h4.1A15,15,0,0,1,20.025-.96,7.918,7.918,0,0,1,21.11.453,13.54,13.54,0,0,0,25.892-1.86V.624h1.67V-1.945a12.184,12.184,0,0,0,4.8,2.412A7.984,7.984,0,0,1,33.5-1.074,12.752,12.752,0,0,1,28.975-2.63Z" transform="translate(42.637 77.781)"/></g></g></g></svg>