<svg xmlns="http://www.w3.org/2000/svg" xmlns:xlink="http://www.w3.org/1999/xlink" width="552.858" height="485.794" viewBox="0 0 552.858 485.794"><defs><clipPath id="a"><path d="M317.171,528.392q6.116.175,12.3.029l-.472-21.3q-5.614.136-11.181-.023Zm22.99-21.824,1.587,21.239q6.1-.465,12.232-1.252l-2.7-21.135q-5.572.726-11.12,1.148m-47.5,19.826q6.075.814,12.228,1.323l1.755-21.228q-5.591-.459-11.117-1.205Zm69.664-22.687,3.8,20.958q6.081-1.1,12.033-2.512l-4.889-20.734q-5.414,1.282-10.943,2.288M268.5,521.828q5.963,1.459,12.024,2.6l3.961-20.93q-5.5-1.04-10.93-2.36ZM384.077,498.57l5.972,20.445q5.923-1.732,11.7-3.764l-7.031-20.1q-5.258,1.843-10.645,3.422M244.963,514.737c3.853,1.383,7.745,2.679,11.675,3.858l6.13-20.393q-5.365-1.62-10.616-3.513Zm160.2-23.571,8.077,19.714q5.7-2.346,11.242-4.973l-9.1-19.261q-5.034,2.381-10.222,4.519M222.294,505.214q5.537,2.669,11.21,5.053l8.227-19.638q-5.166-2.166-10.194-4.6Zm203.054-23.626,10.093,18.759q5.42-2.928,10.653-6.125l-11.057-18.205q-4.755,2.91-9.689,5.572m19.066-11.639,12,17.6q5.076-3.476,9.953-7.2l-12.9-16.951q-4.429,3.39-9.051,6.553m17.74-13.568,13.768,16.249q4.679-3.99,9.132-8.213l-14.594-15.5q-4.053,3.842-8.305,7.469m-63.377-44.292,6.7,10.653q3.384-2.146,6.627-4.463L404.857,408c-1.988,1.41-4.01,2.781-6.081,4.092m11.935-8.491,7.776,9.893q3.138-2.486,6.126-5.124l-8.28-9.465c-1.832,1.612-3.7,3.183-5.623,4.7m10.988-9.681,8.769,9.022q2.855-2.791,5.554-5.721l-9.221-8.553q-2.48,2.693-5.1,5.252m9.922-10.758,9.659,8.053q2.557-3.066,4.941-6.266l-10.066-7.534q-2.184,2.928-4.533,5.747m8.766-11.722,10.449,7c1.482-2.211,2.91-4.452,4.272-6.742l-10.8-6.442c-1.249,2.1-2.566,4.156-3.919,6.18m7.513-12.554,11.125,5.869q1.863-3.525,3.537-7.15l-11.421-5.285q-1.54,3.322-3.241,6.566m6.13-13.286,11.684,4.675q1.479-3.7,2.767-7.483l-11.907-4.058c-.792,2.311-1.631,4.6-2.544,6.866m4.722-13.853,12.107,3.431q1.088-3.829,1.973-7.733l-12.269-2.79q-.816,3.573-1.811,7.093M462,317.471l12.4,2.148q.68-3.922,1.154-7.9l-12.5-1.5q-.43,3.652-1.056,7.243m1.736-14.528,12.553.837c.176-2.642.289-5.3.322-7.97l-12.583-.18Zm-44.881-27.8c.2,1.02.4,2.032.57,3.061A96.368,96.368,0,0,1,300,386.665q-.773,3.03-1.555,6.1A102.665,102.665,0,0,0,425.639,277.214c-.174-1.094-.4-2.169-.6-3.254-2.076.4-4.136.79-6.18,1.181m22.1-21a123.243,123.243,0,0,1,4.9,19.861c.38,2.375.664,4.748.9,7.121l27.136-2.709c-.3-2.9-.645-5.792-1.1-8.7a150.841,150.841,0,0,0-6-24.287c-8.622,2.9-17.277,5.821-25.843,8.713M153.078,320.855a172.635,172.635,0,0,1,8.707-87.4c1.039.393,37.235,14.08,38.206,14.445a131.8,131.8,0,0,0-6.58,66.541,133.4,133.4,0,0,0,6.354,24.543c-.981.365-37.29,13.773-38.321,14.152a174.957,174.957,0,0,1-8.366-32.278m7.841-88.327a173.741,173.741,0,0,0-8.945,88.505,175.9,175.9,0,0,0,8.6,33.015l.192.527,40.42-14.924-.194-.524a132.217,132.217,0,0,1-6.482-24.865,130.717,130.717,0,0,1,6.7-66.5l.2-.521L161.118,232ZM258.991,304a65.775,65.775,0,1,1,64.955,55.473h0A65.907,65.907,0,0,1,258.991,304m54.3-77.543a68.01,68.01,0,1,0,10.732-.85,68.127,68.127,0,0,0-10.732.85m-80.284,81.41a92.478,92.478,0,0,0,96.022,77.707l-.769-14.669A77.621,77.621,0,0,1,272.022,235.9l-9.868-10.864a92.319,92.319,0,0,0-29.147,82.834m78.84-90.5a76.8,76.8,0,0,0-28.612,10.665l1.647,2.659a74.112,74.112,0,0,1,112.3,51.317c.229,1.432.407,2.856.559,4.282l3.1-.307c-.151-1.486-.328-2.973-.567-4.466a77.2,77.2,0,0,0-88.424-64.15m-92.538,92.677a106.153,106.153,0,1,1,104.836,89.533,106.332,106.332,0,0,1-104.836-89.533m87.874-123.651a108.238,108.238,0,1,0,17.083-1.356,108.427,108.427,0,0,0-17.083,1.356M214.094,310.873a111.42,111.42,0,1,1,110.048,93.987,111.622,111.622,0,0,1-110.048-93.987m92.4-128.83a112.642,112.642,0,1,0,17.775-1.41,112.84,112.84,0,0,0-17.775,1.41M208.37,311.786a117.212,117.212,0,1,1,115.763,98.873h-.007A117.464,117.464,0,0,1,208.37,311.786m97.072-136.333a119.311,119.311,0,1,0,18.831-1.494,119.521,119.521,0,0,0-18.831,1.494m-4.882-30.683a149.591,149.591,0,0,0-55.729,20.776l14.386,23.168A122.491,122.491,0,0,1,304.846,171.7c58.017-9.232,113.145,23.866,133.894,76.375L464.078,238A150.3,150.3,0,0,0,300.561,144.77m52.2-49.665a199.926,199.926,0,0,1,30.575,6.93l3.086-10.021a210.014,210.014,0,0,0-32.171-7.291ZM306.708,83.258l.87,10.452a199.711,199.711,0,0,1,32.169-.075l.812-10.46q-8.1-.639-16.334-.642-8.7,0-17.517.724m-84.3,350.422c-1.213-.881-2.385-1.8-3.571-2.71l24.96-32.315c.861.658,1.71,1.328,2.59,1.966a131.32,131.32,0,0,0,98.374,23.61,133.434,133.434,0,0,0,24.936-6.5c.365.985,13.778,37.3,14.16,38.323A174.935,174.935,0,0,1,323.7,466.745h-.011A171.846,171.846,0,0,1,222.409,433.68M180.481,390.4c.914-.614,33.123-22.143,33.974-22.712a132.346,132.346,0,0,0,28.45,30.295c-5.074,6.572-14.282,18.492-24.957,32.315a172.9,172.9,0,0,1-37.467-39.9m-37.012-68.011a181.707,181.707,0,0,1,12.005-99.395q25.3,10.531,53,22.17A125.008,125.008,0,0,0,247.1,392.548l-3.511,4.546a131.051,131.051,0,0,1-28.539-30.482l-.312-.467-35.821,23.949.311.465a173.952,173.952,0,0,0,38.036,40.619L212,438a182.111,182.111,0,0,1-68.526-115.614m-6.554,1.041a188.277,188.277,0,0,1,12.429-102.987l4.195,1.747a184.51,184.51,0,0,0,57.175,217.473q-1.38,1.786-2.773,3.591a188.722,188.722,0,0,1-71.026-119.824M45.585,337.962A280.812,280.812,0,0,1,63.849,185.294q13.68,5.543,28.655,11.678a250.608,250.608,0,0,0-6.283,176.943l1.052-.354a249.543,249.543,0,0,1,6.26-176.168q17.1,7.005,35.777,14.735A210.7,210.7,0,0,0,158.7,424.937l8.215-6.518A200.238,200.238,0,0,1,139,216.143l6.475,2.688a193.25,193.25,0,0,0,59.905,227.738L151.448,516.4A280.644,280.644,0,0,1,45.585,337.962m430.394,31.661a169.619,169.619,0,0,0-52.229-213.5A173.588,173.588,0,0,0,402.59,143c.107-.208,2.386-4.622,5.863-11.361A182.538,182.538,0,0,1,487.4,375.389c-6.771-3.42-11.208-5.661-11.419-5.766M247.042,399.715c-.87-.632-1.71-1.3-2.562-1.945l4.181-5.414-.441-.344a123.967,123.967,0,0,1-38.514-146.938l.222-.517-.521-.219q-27.964-11.751-53.495-22.378a182.548,182.548,0,0,1,251.545-90.826l-6.362,12.33.494.256a172.322,172.322,0,0,1,21.5,13.311,168.54,168.54,0,0,1,51.658,212.594l-.252.5,12.392,6.257a182.544,182.544,0,0,1-274.013,62.3l5.278-6.833c1.2.914,2.376,1.844,3.6,2.73a173,173,0,0,0,129.605,31.083,175.919,175.919,0,0,0,33.419-8.745l.524-.2-14.936-40.42-.528.2a132.484,132.484,0,0,1-46.037,8.279h0a130.245,130.245,0,0,1-76.753-25.066M489.27,376.334a184.633,184.633,0,0,0-79.854-246.556c12.539-24.3,38.007-73.652,38.4-74.416A271.833,271.833,0,0,1,540.543,134.7a268.17,268.17,0,0,1,23.485,279.386c-.685-.345-41.143-20.773-66.975-33.819a193.249,193.249,0,0,0-59.9-243.589q-1.233,1.692-2.473,3.393a189.062,189.062,0,0,1,58.633,238.307l-4.041-2.041M284.557,45.83C196.034,59.915,125.644,118.959,92.94,195.942Q77.7,189.7,63.748,184.046l-.51-.207-.217.508A282.46,282.46,0,0,0,151.2,517.63l.443.34,54.615-70.713a193.691,193.691,0,0,0,104.21,39.57c.092-1.4.187-2.791.283-4.19a189.455,189.455,0,0,1-101.929-38.7l2.773-3.591a184.644,184.644,0,0,0,277.167-63.019l4.044,2.042a191.035,191.035,0,0,1-41.227,54.2l2.824,3.1a195.3,195.3,0,0,0,42.145-55.409l67.983,34.327.247-.494A269.3,269.3,0,0,0,541.44,134.033a272.9,272.9,0,0,0-93.6-79.935l-.495-.258L408.42,129.27a184.644,184.644,0,0,0-254.444,91.884c-1.4-.581-2.8-1.167-4.189-1.742A190.235,190.235,0,0,1,243.6,122.126l-1.786-3.8a194.448,194.448,0,0,0-95.9,99.475l-6.479-2.691a200.668,200.668,0,0,1,153.025-119.6q2.923-.467,5.842-.838l-1.357-10.4q-3.061.4-6.134.883A211.158,211.158,0,0,0,129.746,211.1q-18.677-7.731-35.777-14.737C126.531,119.727,196.606,60.95,284.729,46.927a248.387,248.387,0,0,1,101.542,4.808l.274-1.075A249.516,249.516,0,0,0,284.557,45.83" transform="translate(-40.959 -42.693)" fill="#8b99ab"/></clipPath><filter id="b" x="95.929" y="153.749" width="134.999" height="193.223" filterUnits="userSpaceOnUse"><feOffset input="SourceAlpha"/><feGaussianBlur stdDeviation="5" result="c"/><feFlood flood-opacity="0.161"/><feComposite operator="in" in2="c"/><feComposite in="SourceGraphic"/></filter><filter id="d" x="273.741" y="62.847" width="171.42" height="160.437" filterUnits="userSpaceOnUse"><feOffset input="SourceAlpha"/><feGaussianBlur stdDeviation="5" result="e"/><feFlood flood-opacity="0.161"/><feComposite operator="in" in2="e"/><feComposite in="SourceGraphic"/></filter><filter id="f" x="335.918" y="153.725" width="135.011" height="193.271" filterUnits="userSpaceOnUse"><feOffset input="SourceAlpha"/><feGaussianBlur stdDeviation="5" result="g"/><feFlood flood-opacity="0.161"/><feComposite operator="in" in2="g"/><feComposite in="SourceGraphic"/></filter><filter id="h" x="273.741" y="277.426" width="171.303" height="160.252" filterUnits="userSpaceOnUse"><feOffset input="SourceAlpha"/><feGaussianBlur stdDeviation="5" result="i"/><feFlood flood-opacity="0.161"/><feComposite operator="in" in2="i"/><feComposite in="SourceGraphic"/></filter><filter id="j" x="121.683" y="62.847" width="171.434" height="160.459" filterUnits="userSpaceOnUse"><feOffset input="SourceAlpha"/><feGaussianBlur stdDeviation="5" result="k"/><feFlood flood-opacity="0.161"/><feComposite operator="in" in2="k"/><feComposite in="SourceGraphic"/></filter><filter id="l" x="121.8" y="277.404" width="171.317" height="160.275" filterUnits="userSpaceOnUse"><feOffset input="SourceAlpha"/><feGaussianBlur stdDeviation="5" result="m"/><feFlood flood-opacity="0.161"/><feComposite operator="in" in2="m"/><feComposite in="SourceGraphic"/></filter><linearGradient id="n" y1="1" x2="1" gradientUnits="objectBoundingBox"><stop offset="0" stop-color="#000046"/><stop offset="1" stop-color="#1cb5e0"/></linearGradient></defs><g transform="translate(95.929 -3539.471)"><g transform="translate(-136.889 3496.778)" opacity="0.121"><g transform="translate(40.959 42.693)" clip-path="url(#a)"><rect width="705.672" height="732.56" transform="matrix(0.508, -0.861, 0.861, 0.508, -217.892, 360.179)" fill="#8b99ab"/></g></g><g transform="translate(-8167.439 -1383.724)"><g transform="translate(8182.439 5001.042)"><g transform="matrix(1, 0, 0, 1, -110.93, -77.85)" filter="url(#b)"><path d="M97.4,498.136a74.8,74.8,0,0,1,7.5-32.75L20.44,416.623a172.758,172.758,0,0,0,.105,163.223L105,531.087a74.791,74.791,0,0,1-7.6-32.951" transform="translate(110.93 -247.87)" fill="#fff"/></g><g transform="matrix(1, 0, 0, 1, -110.93, -77.85)" filter="url(#d)"><path d="M814.937,97.506a75.044,75.044,0,0,1,56.97,32.933l84.451-48.757A172.4,172.4,0,0,0,814.937,0Z" transform="translate(-526.2 77.84)" fill="#fff"/></g><g transform="matrix(1, 0, 0, 1, -110.93, -77.85)" filter="url(#f)"><path d="M1107.514,498.051a74.8,74.8,0,0,1-7.612,32.975l84.453,48.759a172.759,172.759,0,0,0,.106-163.271L1100,465.277a74.793,74.793,0,0,1,7.512,32.774" transform="translate(-748.98 -247.79)" fill="#fff"/></g><g transform="matrix(1, 0, 0, 1, -110.93, -77.85)" filter="url(#h)"><path d="M871.779,983.453a75.041,75.041,0,0,1-56.843,32.748v97.5a172.4,172.4,0,0,0,141.3-81.489Z" transform="translate(-526.2 -691.03)" fill="#fff"/></g><g transform="matrix(1, 0, 0, 1, -110.93, -77.85)" filter="url(#j)"><path d="M202.48,130.462a75.045,75.045,0,0,1,56.984-32.955V0a172.4,172.4,0,0,0-141.434,81.7Z" transform="translate(18.65 77.84)" fill="#fff"/></g><g transform="matrix(1, 0, 0, 1, -110.93, -77.85)" filter="url(#l)"><path d="M259.885,1016.12a75.04,75.04,0,0,1-56.858-32.77l-84.459,48.763a172.4,172.4,0,0,0,141.317,81.512Z" transform="translate(18.23 -690.95)" fill="#fff"/></g></g><text transform="translate(8355.824 5165.438)" fill="#001429" font-size="22" font-family="YuGothicUI-Bold, Yu Gothic UI" font-weight="700"><tspan x="-31.636" y="0">得意な</tspan><tspan y="0" font-family="SegoeUI-Bold, Segoe UI"></tspan><tspan x="-34.821" y="29">ジャンル</tspan></text><path d="M.356,25.057C-1.775,15.373,5.888,4.67,17.471,1.151c9.2-2.8,18.327-.362,22.456,5.823,2.3,3.444.692,7.118-7.116,7.806-6.281.554-5.434,8.054.688,7.808,5.742-.23,5.312,4.219,4.073,5.658a26.6,26.6,0,0,1-12.386,7.972,25.467,25.467,0,0,1-7.395,1.127C9.2,37.345,2.023,32.637.356,25.057Zm22.195.689a3.673,3.673,0,1,0,2.6-1.076A3.7,3.7,0,0,0,22.55,25.746ZM6.616,24.962a2.479,2.479,0,1,0,1.8-.776A2.479,2.479,0,0,0,6.616,24.962Zm-1.4-8.628A2.615,2.615,0,1,0,7.7,14.541,2.62,2.62,0,0,0,5.212,16.334ZM12,7.414h0A2.755,2.755,0,1,0,13.605,6.9,2.756,2.756,0,0,0,12,7.415ZM30.823,6.385A3.033,3.033,0,1,0,32.966,5.5,3.054,3.054,0,0,0,30.823,6.385Zm-8.28-2.933a2.891,2.891,0,1,0,.337-.02A2.925,2.925,0,0,0,22.542,3.453Z" transform="translate(8387.416 5036.356)" fill="url(#n)"/><path d="M0,21.015A21.016,21.016,0,1,1,21.016,42.032,21.037,21.037,0,0,1,0,21.015ZM7.493,7.492a19.1,19.1,0,1,0,13.524-5.61A19.072,19.072,0,0,0,7.493,7.492ZM16.023,36.9l1.368-3.656,3.989-10.665,5.063,14.174a16.675,16.675,0,0,1-10.42.148ZM4.368,21.015a16.587,16.587,0,0,1,1.426-6.743h.12l7.742,21.677A16.645,16.645,0,0,1,4.368,21.015ZM29.939,33.388,33.563,23.7s2.5-5.928,2.906-8.63c.009-.062.016-.126.022-.19a16.643,16.643,0,0,1-7.36,20.669ZM23.112,14.272h2.657v-2.2h-10.2v2.2h2.841l1.878,5.254L16.3,30.189,10.614,14.272H13.07v-2.2H6.977a16.637,16.637,0,0,1,24.91-3.66c-2.639.449-2.852,4.552-1.417,6.56a10.324,10.324,0,0,1,1.283,7.591l-2.906,7.764Z" transform="translate(8386.664 5249.79)" fill="url(#n)"/><path d="M3.816,42.307a2.75,2.75,0,0,1-2.75-2.75V14.9l-.11.031L.507,13.321l.108-.03L.1,11.457a2.752,2.752,0,0,1,1.911-3.39l1.53-.427-1.851,5.35,3.594-1,1.85-5.35,4.546-1.268L9.83,10.72l3.593-1,1.851-5.352L19.821,3.1,17.97,8.449l3.593-1L23.414,2.1,27.959.829,26.108,6.18l3.595-1L31.492,0a2.739,2.739,0,0,1,2.52,2l.512,1.835.079.284.37,1.326L2.1,14.612,5.279,19.2H9.011l-3.3-4.767h4.719l3.3,4.767h3.73l-3.3-4.767h4.72l3.3,4.767H25.91l-3.3-4.767h4.72l3.3,4.767h3.731l-3.3-4.767h5.21v25.12a2.749,2.749,0,0,1-2.75,2.75Z" transform="translate(8277.618 5032.596)" fill="url(#n)"/><path d="M0,34.709V16.732H8.988V34.709Zm14.275-2.667H12.028V18.1A7.538,7.538,0,0,0,14.8,16.643c1.036-1.21,3.224-2.86,5.75-5.2a19.507,19.507,0,0,0,4.988-8.928c.473-2.988,3.478-3.488,4.466-.536.94,2.811-.085,5.317-.541,6.627s-2.908,3.688-1.446,5.334c.926,1.042,3.371.833,4.362.833H45.4a2.569,2.569,0,0,1,0,5.132H38.909a2.6,2.6,0,0,1,.944,2.012A2.539,2.539,0,0,1,37.9,24.426,2.6,2.6,0,0,1,38.8,26.4a2.509,2.509,0,0,1-2.447,2.566h-1.1a2.6,2.6,0,0,1,.833,1.915,2.508,2.508,0,0,1-2.445,2.566c-1.388,0-4.957.208-8.527.208C20.423,33.652,18.968,32.041,14.275,32.041Z" transform="translate(8273.148 5250.118)" fill="url(#n)"/><path d="M32.971,33.727a2.094,2.094,0,0,1-2.049-2.142L30.7,23.562A2.465,2.465,0,0,1,33.166,21.1H38.64V12.949a3.817,3.817,0,1,1,7.635,0v9.282a3.818,3.818,0,0,1-3.817,3.817l-6.978-.02-.366,5.649a2.1,2.1,0,0,1-2.1,2.05ZM15.908,31.677l-.366-5.649-6.978.02a3.817,3.817,0,0,1-3.816-3.817V12.949a3.817,3.817,0,1,1,7.633,0V21.1h5.474a2.465,2.465,0,0,1,2.466,2.466L20.1,31.585a2.094,2.094,0,0,1-2.049,2.142H18A2.1,2.1,0,0,1,15.908,31.677Zm22.128-.532V28.189h4.04A6,6,0,0,0,48.065,22.2V16.042h2.956V22.2a8.954,8.954,0,0,1-8.944,8.946Zm-29.091,0A8.954,8.954,0,0,1,0,22.2V16.042H2.956V22.2a6,6,0,0,0,5.989,5.989h4.039v2.956Zm15.374-.812V21.615h2.463v8.718ZM15.311,19.681v-3.6H36.475v3.6ZM38.557,3.9a3.9,3.9,0,1,1,3.9,3.9A3.9,3.9,0,0,1,38.557,3.9Zm-33.9,0a3.9,3.9,0,1,1,3.9,3.9A3.9,3.9,0,0,1,4.661,3.9Z" transform="translate(8203.34 5151.335)" fill="url(#n)"/><path d="M13.319,28.45a17.609,17.609,0,0,1,4.165-7.778,1.877,1.877,0,0,1,1.412-.1,12.772,12.772,0,0,0,13.435,0,1.875,1.875,0,0,1,1.411.1,17.617,17.617,0,0,1,4.165,7.778c1.054,6.323-5.7,8.606-12.295,8.606S12.264,34.773,13.319,28.45Zm26.109,3.587a8.363,8.363,0,0,0,.215-3.874,15.542,15.542,0,0,0-1.66-4.476,7.83,7.83,0,0,1,.875-1.075,1.15,1.15,0,0,1,.873-.064,7.878,7.878,0,0,0,8.289,0,1.15,1.15,0,0,1,.873.064,10.869,10.869,0,0,1,2.567,4.8c.652,3.9-3.514,5.31-7.586,5.31A13.4,13.4,0,0,1,39.428,32.037ZM.068,27.41a10.845,10.845,0,0,1,2.567-4.8,1.152,1.152,0,0,1,.874-.064,7.878,7.878,0,0,0,8.289,0,1.15,1.15,0,0,1,.873.064,7.371,7.371,0,0,1,.7.833,16.039,16.039,0,0,0-1.788,4.718,8.323,8.323,0,0,0,.243,3.97,13.753,13.753,0,0,1-4.173.587C3.582,32.72-.583,31.308.068,27.41ZM37.951,15.778A5.924,5.924,0,1,1,43.875,21.7,5.924,5.924,0,0,1,37.951,15.778Zm-36.222,0A5.924,5.924,0,1,1,7.654,21.7,5.925,5.925,0,0,1,1.729,15.778ZM16.013,9.6a9.6,9.6,0,1,1,9.6,9.6A9.6,9.6,0,0,1,16.013,9.6Z" transform="translate(8455.517 5149.938)" fill="url(#n)"/><text transform="translate(8481.069 5210.884)" font-size="9" font-family="SegoeUI-Bold, Segoe UI" font-weight="700"><tspan x="-6.203" y="0">UX</tspan></text><text transform="translate(8406.168 5096.394)" font-size="9" font-family="YuGothicUI-Bold, Yu Gothic UI" font-weight="700"><tspan x="-14.194" y="0">デザイン</tspan></text><text transform="translate(8403.151 5309.689)" font-size="8" font-family="SegoeUI-Bold, Segoe UI" font-weight="700"><tspan x="-20.127" y="0">WordPress</tspan></text><text transform="translate(8294.371 5310.689)" font-size="9" font-family="YuGothicUI-Bold, Yu Gothic UI" font-weight="700"><tspan x="-23.148" y="0">ディレクション</tspan></text><text transform="translate(8226.843 5210.884)" font-size="9" font-family="YuGothicUI-Bold, Yu Gothic UI" font-weight="700"><tspan x="-20.25" y="0">提案・折衝</tspan></text><text transform="translate(8294.114 5096.394)" font-size="9" font-family="YuGothicUI-Bold, Yu Gothic UI" font-weight="700"><tspan x="-18" y="0">動画作成</tspan></text></g></g></svg>