<svg xmlns="http://www.w3.org/2000/svg" xmlns:xlink="http://www.w3.org/1999/xlink" width="552.858" height="485.795" viewBox="0 0 552.858 485.795"><defs><clipPath id="a"><path d="M317.171,528.392q6.116.175,12.3.029l-.472-21.3q-5.614.136-11.181-.023Zm22.99-21.824,1.587,21.239q6.1-.465,12.232-1.252l-2.7-21.135q-5.572.726-11.12,1.148m-47.5,19.826q6.075.814,12.228,1.323l1.755-21.228q-5.591-.459-11.117-1.205Zm69.664-22.687,3.8,20.958q6.081-1.1,12.033-2.512l-4.889-20.734q-5.414,1.282-10.943,2.288M268.5,521.828q5.963,1.459,12.024,2.6l3.961-20.93q-5.5-1.04-10.93-2.36ZM384.077,498.57l5.972,20.445q5.923-1.732,11.7-3.764l-7.031-20.1q-5.258,1.843-10.645,3.422M244.963,514.737c3.853,1.383,7.745,2.679,11.675,3.858l6.13-20.393q-5.365-1.62-10.616-3.513Zm160.2-23.571,8.077,19.714q5.7-2.346,11.242-4.973l-9.1-19.261q-5.034,2.381-10.222,4.519M222.294,505.214q5.537,2.669,11.21,5.053l8.227-19.638q-5.166-2.166-10.194-4.6Zm203.054-23.626,10.093,18.759q5.42-2.928,10.653-6.125l-11.057-18.205q-4.755,2.91-9.689,5.572m19.066-11.639,12,17.6q5.076-3.476,9.953-7.2l-12.9-16.951q-4.429,3.39-9.051,6.553m17.74-13.568,13.768,16.249q4.679-3.99,9.132-8.213l-14.594-15.5q-4.053,3.842-8.305,7.469m-63.377-44.292,6.7,10.653q3.384-2.146,6.627-4.463L404.857,408c-1.988,1.41-4.01,2.781-6.081,4.092m11.935-8.491,7.776,9.893q3.138-2.486,6.126-5.124l-8.28-9.465c-1.832,1.612-3.7,3.183-5.623,4.7m10.988-9.681,8.769,9.022q2.855-2.791,5.554-5.721l-9.221-8.553q-2.48,2.693-5.1,5.252m9.922-10.758,9.659,8.053q2.557-3.066,4.941-6.266l-10.066-7.534q-2.184,2.928-4.533,5.747m8.766-11.722,10.449,7c1.482-2.211,2.91-4.452,4.272-6.742l-10.8-6.442c-1.249,2.1-2.566,4.156-3.919,6.18m7.513-12.554,11.125,5.869q1.863-3.525,3.537-7.15l-11.421-5.285q-1.54,3.322-3.241,6.566m6.13-13.286,11.684,4.675q1.479-3.7,2.767-7.483l-11.907-4.058c-.792,2.311-1.631,4.6-2.544,6.866m4.722-13.853,12.107,3.431q1.088-3.829,1.973-7.733l-12.269-2.79q-.816,3.573-1.811,7.093M462,317.471l12.4,2.148q.68-3.922,1.154-7.9l-12.5-1.5q-.43,3.652-1.056,7.243m1.736-14.528,12.553.837c.176-2.642.289-5.3.322-7.97l-12.583-.18Zm-44.881-27.8c.2,1.02.4,2.032.57,3.061A96.368,96.368,0,0,1,300,386.665q-.773,3.03-1.555,6.1A102.665,102.665,0,0,0,425.639,277.214c-.174-1.094-.4-2.169-.6-3.254-2.076.4-4.136.79-6.18,1.181m22.1-21a123.243,123.243,0,0,1,4.9,19.861c.38,2.375.664,4.748.9,7.121l27.136-2.709c-.3-2.9-.645-5.792-1.1-8.7a150.841,150.841,0,0,0-6-24.287c-8.622,2.9-17.277,5.821-25.843,8.713M153.078,320.855a172.635,172.635,0,0,1,8.707-87.4c1.039.393,37.235,14.08,38.206,14.445a131.8,131.8,0,0,0-6.58,66.541,133.4,133.4,0,0,0,6.354,24.543c-.981.365-37.29,13.773-38.321,14.152a174.957,174.957,0,0,1-8.366-32.278m7.841-88.327a173.741,173.741,0,0,0-8.945,88.505,175.9,175.9,0,0,0,8.6,33.015l.192.527,40.42-14.924-.194-.524a132.217,132.217,0,0,1-6.482-24.865,130.717,130.717,0,0,1,6.7-66.5l.2-.521L161.118,232ZM258.991,304a65.775,65.775,0,1,1,64.955,55.473h0A65.907,65.907,0,0,1,258.991,304m54.3-77.543a68.01,68.01,0,1,0,10.732-.85,68.127,68.127,0,0,0-10.732.85m-80.284,81.41a92.478,92.478,0,0,0,96.022,77.707l-.769-14.669A77.621,77.621,0,0,1,272.022,235.9l-9.868-10.864a92.319,92.319,0,0,0-29.147,82.834m78.84-90.5a76.8,76.8,0,0,0-28.612,10.665l1.647,2.659a74.112,74.112,0,0,1,112.3,51.317c.229,1.432.407,2.856.559,4.282l3.1-.307c-.151-1.486-.328-2.973-.567-4.466a77.2,77.2,0,0,0-88.424-64.15m-92.538,92.677a106.153,106.153,0,1,1,104.836,89.533,106.332,106.332,0,0,1-104.836-89.533m87.874-123.651a108.238,108.238,0,1,0,17.083-1.356,108.427,108.427,0,0,0-17.083,1.356M214.094,310.873a111.42,111.42,0,1,1,110.048,93.987,111.622,111.622,0,0,1-110.048-93.987m92.4-128.83a112.642,112.642,0,1,0,17.775-1.41,112.84,112.84,0,0,0-17.775,1.41M208.37,311.786a117.212,117.212,0,1,1,115.763,98.873h-.007A117.464,117.464,0,0,1,208.37,311.786m97.072-136.333a119.311,119.311,0,1,0,18.831-1.494,119.521,119.521,0,0,0-18.831,1.494m-4.882-30.683a149.591,149.591,0,0,0-55.729,20.776l14.386,23.168A122.491,122.491,0,0,1,304.846,171.7c58.017-9.232,113.145,23.866,133.894,76.375L464.078,238A150.3,150.3,0,0,0,300.561,144.77m52.2-49.665a199.926,199.926,0,0,1,30.575,6.93l3.086-10.021a210.014,210.014,0,0,0-32.171-7.291ZM306.708,83.258l.87,10.452a199.711,199.711,0,0,1,32.169-.075l.812-10.46q-8.1-.639-16.334-.642-8.7,0-17.517.724m-84.3,350.422c-1.213-.881-2.385-1.8-3.571-2.71l24.96-32.315c.861.658,1.71,1.328,2.59,1.966a131.32,131.32,0,0,0,98.374,23.61,133.434,133.434,0,0,0,24.936-6.5c.365.985,13.778,37.3,14.16,38.323A174.935,174.935,0,0,1,323.7,466.745h-.011A171.846,171.846,0,0,1,222.409,433.68M180.481,390.4c.914-.614,33.123-22.143,33.974-22.712a132.346,132.346,0,0,0,28.45,30.295c-5.074,6.572-14.282,18.492-24.957,32.315a172.9,172.9,0,0,1-37.467-39.9m-37.012-68.011a181.707,181.707,0,0,1,12.005-99.395q25.3,10.531,53,22.17A125.008,125.008,0,0,0,247.1,392.548l-3.511,4.546a131.051,131.051,0,0,1-28.539-30.482l-.312-.467-35.821,23.949.311.465a173.952,173.952,0,0,0,38.036,40.619L212,438a182.111,182.111,0,0,1-68.526-115.614m-6.554,1.041a188.277,188.277,0,0,1,12.429-102.987l4.195,1.747a184.51,184.51,0,0,0,57.175,217.473q-1.38,1.786-2.773,3.591a188.722,188.722,0,0,1-71.026-119.824M45.585,337.962A280.812,280.812,0,0,1,63.849,185.294q13.68,5.543,28.655,11.678a250.608,250.608,0,0,0-6.283,176.943l1.052-.354a249.543,249.543,0,0,1,6.26-176.168q17.1,7.005,35.777,14.735A210.7,210.7,0,0,0,158.7,424.937l8.215-6.518A200.238,200.238,0,0,1,139,216.143l6.475,2.688a193.25,193.25,0,0,0,59.905,227.738L151.448,516.4A280.644,280.644,0,0,1,45.585,337.962m430.394,31.661a169.619,169.619,0,0,0-52.229-213.5A173.588,173.588,0,0,0,402.59,143c.107-.208,2.386-4.622,5.863-11.361A182.538,182.538,0,0,1,487.4,375.389c-6.771-3.42-11.208-5.661-11.419-5.766M247.042,399.715c-.87-.632-1.71-1.3-2.562-1.945l4.181-5.414-.441-.344a123.967,123.967,0,0,1-38.514-146.938l.222-.517-.521-.219q-27.964-11.751-53.495-22.378a182.548,182.548,0,0,1,251.545-90.826l-6.362,12.33.494.256a172.322,172.322,0,0,1,21.5,13.311,168.54,168.54,0,0,1,51.658,212.594l-.252.5,12.392,6.257a182.544,182.544,0,0,1-274.013,62.3l5.278-6.833c1.2.914,2.376,1.844,3.6,2.73a173,173,0,0,0,129.605,31.083,175.919,175.919,0,0,0,33.419-8.745l.524-.2-14.936-40.42-.528.2a132.484,132.484,0,0,1-46.037,8.279h0a130.245,130.245,0,0,1-76.753-25.066M489.27,376.334a184.633,184.633,0,0,0-79.854-246.556c12.539-24.3,38.007-73.652,38.4-74.416A271.833,271.833,0,0,1,540.543,134.7a268.17,268.17,0,0,1,23.485,279.386c-.685-.345-41.143-20.773-66.975-33.819a193.249,193.249,0,0,0-59.9-243.589q-1.233,1.692-2.473,3.393a189.062,189.062,0,0,1,58.633,238.307l-4.041-2.041M284.557,45.83C196.034,59.915,125.644,118.959,92.94,195.942Q77.7,189.7,63.748,184.046l-.51-.207-.217.508A282.46,282.46,0,0,0,151.2,517.63l.443.34,54.615-70.713a193.691,193.691,0,0,0,104.21,39.57c.092-1.4.187-2.791.283-4.19a189.455,189.455,0,0,1-101.929-38.7l2.773-3.591a184.644,184.644,0,0,0,277.167-63.019l4.044,2.042a191.035,191.035,0,0,1-41.227,54.2l2.824,3.1a195.3,195.3,0,0,0,42.145-55.409l67.983,34.327.247-.494A269.3,269.3,0,0,0,541.44,134.033a272.9,272.9,0,0,0-93.6-79.935l-.495-.258L408.42,129.27a184.644,184.644,0,0,0-254.444,91.884c-1.4-.581-2.8-1.167-4.189-1.742A190.235,190.235,0,0,1,243.6,122.126l-1.786-3.8a194.448,194.448,0,0,0-95.9,99.475l-6.479-2.691a200.668,200.668,0,0,1,153.025-119.6q2.923-.467,5.842-.838l-1.357-10.4q-3.061.4-6.134.883A211.158,211.158,0,0,0,129.746,211.1q-18.677-7.731-35.777-14.737C126.531,119.727,196.606,60.95,284.729,46.927a248.387,248.387,0,0,1,101.542,4.808l.274-1.075A249.516,249.516,0,0,0,284.557,45.83" transform="translate(-40.959 -42.693)" fill="#8b99ab"/></clipPath><filter id="b" x="95.929" y="63.266" width="375" height="374.832" filterUnits="userSpaceOnUse"><feOffset input="SourceAlpha"/><feGaussianBlur stdDeviation="5" result="c"/><feFlood flood-opacity="0.161"/><feComposite operator="in" in2="c"/><feComposite in="SourceGraphic"/></filter><linearGradient id="d" x1="-0.18" y1="1" x2="1" y2="0.107" gradientUnits="objectBoundingBox"><stop offset="0" stop-color="#000046"/><stop offset="1" stop-color="#1cb5e0"/></linearGradient></defs><g transform="translate(95.929 -1830.471)"><g transform="translate(-136.889 1787.778)" opacity="0.121"><g transform="translate(40.959 42.693)" clip-path="url(#a)"><rect width="705.672" height="732.56" transform="matrix(0.508, -0.861, 0.861, 0.508, -217.892, 360.179)" fill="#8b99ab"/></g></g><g transform="translate(15 1908.737)"><g transform="matrix(1, 0, 0, 1, -110.93, -78.27)" filter="url(#b)"><path d="M177.815,247.327a75.028,75.028,0,0,0,56.84-32.75l84.462,48.768a172.4,172.4,0,0,1-141.3,81.487ZM25.87,263.321l84.463-48.763a75.046,75.046,0,0,0,56.858,32.769v97.505A172.4,172.4,0,0,1,25.87,263.321ZM239.988,205.39a75.247,75.247,0,0,0,.1-65.75l84.457-48.762a172.767,172.767,0,0,1-.1,163.27ZM0,172.414A171.741,171.741,0,0,1,20.439,90.9L104.9,139.664a75.262,75.262,0,0,0,.1,65.7L20.544,254.124A171.747,171.747,0,0,1,0,172.414ZM25.754,81.7A172.4,172.4,0,0,1,167.191,0V97.505A75.037,75.037,0,0,0,110.2,130.458ZM177.815,97.505V0A172.391,172.391,0,0,1,319.232,81.676l-84.448,48.758A75.049,75.049,0,0,0,177.815,97.505Z" transform="translate(110.93 78.27)" fill="#fff"/></g><text transform="translate(171.129 164.323)" fill="#001429" font-size="22" font-family="YuGothicUI-Bold, Yu Gothic UI" font-weight="700"><tspan x="-31.636" y="0">得意な</tspan><tspan y="0" font-family="SegoeUI-Bold, Segoe UI"></tspan><tspan x="-34.821" y="29">ジャンル</tspan></text><path d="M3.406,38.815c-.941-.939-.521-2.559.875-4.277,1.236-1.557,7.835-9.714,11.942-13.983,2.589-2.974,5.113-5.289,6.979-5.8l4.262,4.26c-.509,1.868-2.823,4.392-5.8,6.981C17.4,30.105,9.241,36.7,7.683,37.94a5.185,5.185,0,0,1-3.008,1.379A1.728,1.728,0,0,1,3.406,38.815Zm27.074-1c-1.189-.942-6.119-4.926-10.367-8.637.879-.789,1.7-1.544,2.418-2.233,1.148-1,2.131-1.93,2.962-2.8,3.665,4.206,7.546,9.011,8.474,10.18,1.433,1.763,1.861,3.424.9,4.388a1.776,1.776,0,0,1-1.3.517A5.306,5.306,0,0,1,30.48,37.814ZM10.2,18.414a2.954,2.954,0,0,1,.269-2.692l1.406-1.407a2.966,2.966,0,0,1,2.694-.269,10.448,10.448,0,0,1,3.768,2.436,42.821,42.821,0,0,0-3.061,3.206c-.756.788-1.6,1.7-2.47,2.684A10.841,10.841,0,0,1,10.2,18.414ZM24.024,13.8l2.192-2.191,4.378,4.379L28.4,18.175Zm-21.048.788C-.511,11.1-.845,4.68,1.51,1.383a6.029,6.029,0,0,0,1.245,1c2.653,1.77,5.672,2.13,7.983,4.44a5.487,5.487,0,0,1,1.4,5.368l-3.795,3.8a5.5,5.5,0,0,1-5.369-1.4Zm24.08-3.821c1.263-1.263-.883-2.653,1.77-5.308l.8-.8,7.917,7.917-.8.8a3.841,3.841,0,0,1-3.585,1.37,1.845,1.845,0,0,0-1.723.4Zm3.464-7L33.909.37A1.27,1.27,0,0,1,35.7.37L41.828,6.5a1.268,1.268,0,0,1,0,1.791l-3.389,3.39Z" transform="translate(93.499 248.991)" fill="url(#d)"/><path d="M19.235,36.993a12.775,12.775,0,0,1,1.038-3.331L16.749,30.1l-3.938,3.845a1.867,1.867,0,1,1-1.675-1.056c.043,0,.083.009.129.014l4.285-4.327V25.908h2.3V28.47h.071l-.036.049h.036l3.3,3.459a12.939,12.939,0,0,1,23.528,5.015ZM31.67,25.333H0V22.455H1.729V4.606H0V1.724H14.972V0h3.457V1.724H33.4V4.606H31.67V8.86c.105,0,.212-.007.321-.007A7.376,7.376,0,0,1,33.4,23.47v1.863ZM4.034,22.455h24A7.433,7.433,0,0,1,25.914,20.4v.366H21.306V7.529h4.608v4.52a7.381,7.381,0,0,1,3.452-2.716V4.606H4.034ZM14.4,20.771V10.408H19V20.771Zm-6.912,0V13.286h4.608v7.485Z" transform="translate(209.2 252.655)" fill="url(#d)"/><path d="M14.11,23.99l5.3-23.9h2.76l-5.28,23.9Zm9.815-10.656,4.68-1.512,3.744-1.3v-.1l-3.744-1.3-4.68-1.512v-3.5l12.744,4.9v2.929l-12.744,4.9ZM.07,11.943V9.014l12.744-4.9v3.5L8.134,9.135l-3.744,1.3v.1l3.744,1.3,4.68,1.512v3.5Z" transform="translate(275.616 154.684)" fill="url(#d)"/><path d="M.924,30.1a.821.821,0,0,1-.881-1.028l1.978-5.389a.92.92,0,0,1,.882-.555H34.537a.917.917,0,0,1,.882.555L37.4,29.076a.819.819,0,0,1-.881,1.028Zm2.566-8.7A1.221,1.221,0,0,1,2.27,20.18V1.22A1.219,1.219,0,0,1,3.491,0H34.04a1.22,1.22,0,0,1,1.221,1.22V20.18A1.222,1.222,0,0,1,34.04,21.4Zm1.815-2.925H32.223V2.924H5.306Z" transform="translate(31.035 150.823)" fill="url(#d)"/><path d="M.358,25.208C-1.786,15.466,5.923,4.7,17.576,1.158,26.837-1.655,36.014.794,40.169,7.016c2.313,3.465.7,7.161-7.159,7.854-6.319.558-5.466,8.1.693,7.855,5.776-.232,5.344,4.245,4.1,5.692a26.754,26.754,0,0,1-12.461,8.021A25.619,25.619,0,0,1,17.9,37.571C9.254,37.571,2.035,32.834.358,25.208Zm22.329.693A3.7,3.7,0,1,0,25.3,24.819,3.722,3.722,0,0,0,22.686,25.9ZM6.656,25.113a2.494,2.494,0,1,0,1.813-.78A2.493,2.493,0,0,0,6.656,25.113ZM5.243,16.433a2.63,2.63,0,1,0,2.5-1.8A2.634,2.634,0,0,0,5.243,16.433Zm6.828-8.975h0a2.771,2.771,0,1,0,1.615-.522A2.773,2.773,0,0,0,12.072,7.459ZM31.009,6.424a3.05,3.05,0,1,0,2.157-.893A3.069,3.069,0,0,0,31.009,6.424Zm-8.33-2.951a2.909,2.909,0,1,0,.339-.02A2.946,2.946,0,0,0,22.679,3.473Z" transform="translate(210.493 33.194)" fill="url(#d)"/><text transform="translate(291.16 196.934)" font-size="9" font-family="YuGothicUI-Bold, Yu Gothic UI" font-weight="700"><tspan x="-19.712" y="0">コーディング</tspan></text><text transform="translate(229.508 86.682)" font-size="9" font-family="YuGothicUI-Bold, Yu Gothic UI" font-weight="700"><tspan x="-14.194" y="0">デザイン</tspan></text><text transform="translate(226.173 304.487)" font-size="9" font-family="YuGothicUI-Bold, Yu Gothic UI" font-weight="700"><tspan x="-14.175" y="0">プレゼン</tspan></text><text transform="translate(111.499 304.436)" font-size="9" font-family="YuGothicUI-Bold, Yu Gothic UI" font-weight="700"><tspan x="-13.148" y="0">イラスト</tspan></text><text transform="translate(46.539 196.934)" font-size="9" font-family="YuGothicUI-Bold, Yu Gothic UI" font-weight="700"><tspan x="-23.7" y="0">プログラミング</tspan></text><g transform="translate(88.063 32.737)"><path d="M16.829,27.034H27.8L16.829,38.026ZM0,38.026V0H27.8V24.975H14.771V38.026ZM3.784,20.2a.9.9,0,0,0,.9.9H23.116a.9.9,0,0,0,0-1.805H4.685A.9.9,0,0,0,3.784,20.2Zm0-6.526a.9.9,0,0,0,.9.9H23.116a.9.9,0,0,0,0-1.8H4.685A.9.9,0,0,0,3.784,13.677Zm0-6.525a.9.9,0,0,0,.9.9H23.116a.9.9,0,0,0,0-1.8H4.685A.9.9,0,0,0,3.784,7.152Z" transform="translate(13.812 0)" fill="url(#d)"/><path d="M-32.809-12.765A11.836,11.836,0,0,1-37.2-8.739a5.379,5.379,0,0,1,.805,1.031,13.3,13.3,0,0,0,4.294-3.8,14.369,14.369,0,0,0,4.38,3.789,6.961,6.961,0,0,1,.859-1.149,11.413,11.413,0,0,1-4.637-3.9Zm1.492,6.473h2.877V-7.419h-2.877v-2.3h-1.342v5.571h-1.524V-7.87h-1.256v3.725h-1.17v1.159h9.135V-4.145h-3.843ZM-18.06-4.531h-6.484v-5.646h-1.245V-2.7h1.245v-.633h6.484v.623h1.234v-7.471H-18.06Zm-1.8-3.553H-20.8v-.9h.934Zm0,1.879H-20.8v-.912h.934Zm-2.963-.912h.934v.912h-.934Zm0-1.868h.934v.9h-.934Zm-3.285-3.092v1.192h4.122v.859h-1.879v4.863h5.11v-4.863h-1.954v-.859H-16.5v-1.192Zm15.533,2.995a1.384,1.384,0,0,0-1.374,1.374,1.384,1.384,0,0,0,1.374,1.374A1.384,1.384,0,0,0-9.2-7.709,1.384,1.384,0,0,0-10.578-9.083ZM2.733-4.134H-2.3v-.934H2.733ZM-1.432-8.5H1.756v.751H-1.432ZM2.991-6.818v-2.63h-5.6v2.63H-.659c-.043.215-.107.44-.161.655H-3.514v3.489H-2.3v-.354H2.733v.354H4V-6.163H.447c.1-.2.193-.419.279-.655Zm.279-4.24c.3-.354.623-.784.934-1.192L2.83-12.679a8.029,8.029,0,0,1-.955,1.621H.114l.751-.279A7.223,7.223,0,0,0,.05-12.754l-1.116.376a8.764,8.764,0,0,1,.7,1.32H-2.022l.344-.15a6.931,6.931,0,0,0-.955-1.374L-3.74-12.1a8.473,8.473,0,0,1,.708,1.041h-1.31v2.287h1.17v-1.2H3.538v1.2H4.773v-2.287Zm8.942,1.127c-.118.29-.247.6-.376.859H9.829l.182-.032a5.767,5.767,0,0,0-.365-.827Zm3.467,4.788V-6.2H11.5v-.472h3.22v-.923H11.5v-.483h3.725v-1h-2.1c.161-.258.333-.547.5-.859h2.018v-1.041h-1.4c.247-.376.537-.859.837-1.353l-1.342-.322a8.647,8.647,0,0,1-.676,1.557l.386.118H12.5v-1.75H11.3v1.75h-.794v-1.75H9.314v1.75H8.337l.526-.193a8.123,8.123,0,0,0-.816-1.514L6.952-12.3a9.622,9.622,0,0,1,.666,1.331H6.179v1.041H8.423l-.129.021a4.824,4.824,0,0,1,.365.837H6.619v1h3.628v.483H7.156v.923h3.092V-6.2h-4.1v1.052H9.228A11.278,11.278,0,0,1,5.836-3.887a5.955,5.955,0,0,1,.816,1.063,10.183,10.183,0,0,0,3.6-1.739V-2.7H11.5V-4.628a9.163,9.163,0,0,0,3.607,1.814,6,6,0,0,1,.859-1.159,9.59,9.59,0,0,1-3.4-1.17Z" transform="translate(37.2 58.652)"/></g></g></g></svg>