<svg xmlns="http://www.w3.org/2000/svg" xmlns:xlink="http://www.w3.org/1999/xlink" width="748.154" height="657.4" viewBox="0 0 748.154 657.4">
  <defs>
    <clipPath id="clip-path">
      <path id="パス_907" data-name="パス 907" d="M414.743,699.963q8.276.236,16.639.04l-.638-28.818q-7.6.184-15.131-.031Zm31.112-29.534L448,699.171q8.249-.629,16.553-1.694l-3.653-28.6q-7.541.982-15.048,1.553m-64.275,26.829q8.222,1.1,16.548,1.79l2.375-28.726q-7.565-.622-15.045-1.631Zm94.273-30.7,5.141,28.362q8.229-1.494,16.284-3.4l-6.617-28.059q-7.327,1.735-14.809,3.1M348.885,691.081q8.07,1.974,16.271,3.517l5.36-28.324q-7.449-1.407-14.791-3.194Zm156.4-31.475,8.082,27.667q8.015-2.344,15.838-5.093l-9.515-27.205q-7.115,2.494-14.4,4.631M317.027,681.485c5.214,1.871,10.482,3.625,15.8,5.221l8.3-27.6q-7.26-2.193-14.367-4.754Zm216.787-31.9,10.931,26.678q7.717-3.175,15.214-6.729l-12.311-26.065q-6.812,3.222-13.833,6.116M286.35,668.6q7.493,3.612,15.171,6.839l11.133-26.575q-6.991-2.931-13.795-6.219Zm274.782-31.972,13.659,25.385q7.334-3.963,14.416-8.289l-14.963-24.636q-6.434,3.938-13.112,7.54m25.8-15.751,16.235,23.812q6.869-4.7,13.468-9.741l-17.454-22.939q-5.994,4.587-12.249,8.867m24.006-18.361L629.571,624.5q6.332-5.4,12.358-11.115l-19.75-20.981q-5.484,5.2-11.239,10.107m-85.766-59.938,9.068,14.416q4.58-2.9,8.968-6.04L533.4,537.04c-2.69,1.908-5.426,3.764-8.229,5.537m16.152-11.491,10.523,13.387q4.246-3.364,8.29-6.935l-11.2-12.809c-2.48,2.181-5.007,4.308-7.609,6.356m14.869-13.1,11.867,12.209q3.863-3.777,7.516-7.742L563.1,510.879q-3.356,3.645-6.9,7.107m13.427-14.559,13.07,10.9q3.461-4.149,6.686-8.479l-13.622-10.195q-2.956,3.963-6.134,7.777m11.862-15.863,14.14,9.479c2.005-2.992,3.938-6.025,5.781-9.124L586.787,479.2c-1.691,2.836-3.472,5.624-5.3,8.363m10.167-16.989,15.055,7.942q2.521-4.771,4.787-9.676l-15.456-7.152q-2.083,4.495-4.386,8.885m8.3-17.98,15.812,6.326q2-5.007,3.744-10.127L603.388,443.3c-1.072,3.128-2.208,6.227-3.443,9.292m6.389-18.747,16.384,4.642q1.472-5.181,2.67-10.465l-16.6-3.776q-1.1,4.836-2.451,9.6m4.4-19.312,16.778,2.907q.92-5.308,1.561-10.685l-16.911-2.024q-.582,4.943-1.429,9.8m2.349-19.66,16.987,1.132c.239-3.575.391-7.175.436-10.785l-17.029-.244Zm-60.735-37.624c.265,1.381.547,2.75.771,4.142,11.3,71.061-37.3,138.062-108.351,149.369a129.71,129.71,0,0,1-53.257-2.591q-1.047,4.1-2.1,8.251a138.044,138.044,0,0,0,56.7,2.746c75.695-12.045,127.471-83.413,115.427-159.112-.235-1.48-.535-2.935-.817-4.4q-4.214.813-8.363,1.6m29.9-28.423a166.78,166.78,0,0,1,6.636,26.877c.514,3.214.9,6.426,1.222,9.636l36.722-3.666c-.4-3.925-.874-7.838-1.5-11.771a204.122,204.122,0,0,0-8.113-32.867c-11.668,3.926-23.38,7.878-34.972,11.791M192.683,419.115a233.618,233.618,0,0,1,11.783-118.279c1.405.532,50.388,19.054,51.7,19.548a178.364,178.364,0,0,0-8.9,90.047,180.52,180.52,0,0,0,8.6,33.213c-1.328.494-50.462,18.638-51.858,19.152a236.761,236.761,0,0,1-11.322-43.68m10.611-119.529a235.114,235.114,0,0,0-12.1,119.769,238.04,238.04,0,0,0,11.64,44.678l.26.713,54.7-20.2-.262-.709a178.926,178.926,0,0,1-8.771-33.649,176.892,176.892,0,0,1,9.069-89.99l.267-.7-54.528-20.618ZM336.01,396.306a89.01,89.01,0,1,1,87.9,75.068H423.9a89.189,89.189,0,0,1-87.894-75.068m73.482-104.935a92.035,92.035,0,1,0,14.522-1.15,92.192,92.192,0,0,0-14.522,1.15M300.847,401.538C310.979,465.2,367.789,510.03,430.788,506.7l-1.041-19.851a105.04,105.04,0,0,1-76.1-182.7l-13.354-14.7a124.931,124.931,0,0,0-39.444,112.1M407.538,279.072a103.934,103.934,0,0,0-38.719,14.433l2.229,3.6a100.293,100.293,0,0,1,151.972,69.445c.31,1.938.55,3.865.756,5.794l4.19-.416c-.2-2.01-.444-4.023-.767-6.043a104.47,104.47,0,0,0-119.66-86.811M282.311,404.487C269.857,326.223,323.4,252.413,401.674,239.959S553.746,281.048,566.2,359.315,525.109,511.391,446.849,523.848a144.429,144.429,0,0,1-22.669,1.8c-69.39,0-130.627-50.509-141.87-121.16M401.226,237.156c-79.819,12.7-134.418,87.963-121.717,167.777s87.962,134.418,167.783,121.72S581.7,438.681,569,358.869c-11.466-72.044-73.911-123.543-144.661-123.548a146.989,146.989,0,0,0-23.118,1.835M275.253,405.607c-13.072-82.152,43.136-159.634,125.3-172.708s159.629,43.136,172.7,125.29S530.128,517.832,447.971,530.906a151.273,151.273,0,0,1-23.8,1.889c-72.836,0-137.119-53.02-148.922-127.188M400.292,231.269c-83.064,13.216-139.884,91.545-126.668,174.6s91.543,139.889,174.6,126.669S588.1,441,574.885,357.931c-11.927-74.971-76.915-128.565-150.54-128.57a153.194,153.194,0,0,0-24.054,1.908M267.508,406.842c-13.753-86.428,45.377-167.936,131.811-181.689S567.253,270.53,581.008,356.958,535.631,524.9,449.2,538.654a159.359,159.359,0,0,1-25.037,1.987h-.01c-76.62.005-144.231-55.773-156.646-133.8M398.871,222.35C310.888,236.35,250.7,319.315,264.7,407.29S361.665,555.457,449.65,541.452s148.161-96.958,134.161-184.941C571.174,277.1,502.338,220.333,424.354,220.328a162.082,162.082,0,0,0-25.483,2.022m-6.607-41.522a202.433,202.433,0,0,0-75.415,28.115L336.318,240.3a165.761,165.761,0,0,1,61.746-23.02c78.511-12.494,153.114,32.3,181.192,103.354l34.287-13.636C583.086,230.009,507.9,178.286,424.364,178.281a204.047,204.047,0,0,0-32.1,2.547m70.643-67.209A270.551,270.551,0,0,1,504.284,123l4.177-13.561a284.2,284.2,0,0,0-43.536-9.867ZM400.583,97.587l1.177,14.145a270.258,270.258,0,0,1,43.533-.1l1.1-14.154q-10.964-.865-22.1-.868-11.779,0-23.7.98M286.505,571.794c-1.641-1.192-3.227-2.44-4.833-3.668l33.777-43.73c1.165.89,2.314,1.8,3.505,2.66a177.708,177.708,0,0,0,133.125,31.95,180.566,180.566,0,0,0,33.745-8.8c.494,1.333,18.644,50.47,19.162,51.861a236.731,236.731,0,0,1-81.4,14.468h-.015a232.55,232.55,0,0,1-137.063-44.746m-56.739-58.574c1.236-.83,44.824-29.965,45.975-30.735a179.1,179.1,0,0,0,38.5,41c-6.867,8.894-19.327,25.024-33.773,43.73a233.981,233.981,0,0,1-50.7-53.991m-50.086-92.035A245.9,245.9,0,0,1,195.927,286.68q34.234,14.251,71.724,30a169.167,169.167,0,0,0,52.27,199.452l-4.752,6.152a177.345,177.345,0,0,1-38.62-41.25l-.423-.632-48.475,32.409.421.63a235.4,235.4,0,0,0,51.472,54.967l-7.13,9.23a246.441,246.441,0,0,1-92.733-156.455m-8.869,1.409a254.785,254.785,0,0,1,16.82-139.367l5.677,2.364A249.687,249.687,0,0,0,270.68,579.886q-1.867,2.417-3.752,4.86a255.388,255.388,0,0,1-96.116-162.151M47.219,442.265a380.008,380.008,0,0,1,24.716-206.6q18.512,7.5,38.777,15.8a339.133,339.133,0,0,0-8.5,239.447l1.424-.479a337.693,337.693,0,0,1,8.471-238.4q23.136,9.48,48.415,19.941A285.133,285.133,0,0,0,200.3,559.964l11.116-8.821a270.972,270.972,0,0,1-37.784-273.73l8.763,3.638a261.515,261.515,0,0,0,81.067,308.186l-72.98,94.492A379.781,379.781,0,0,1,47.219,442.265m582.43,42.845A229.536,229.536,0,0,0,558.969,196.2a234.9,234.9,0,0,0-28.634-17.758c.144-.282,3.229-6.255,7.934-15.374,66.983,35.031,117.2,100.157,129.966,180.38A245.98,245.98,0,0,1,645.1,492.912c-9.162-4.628-15.167-7.661-15.452-7.8M319.84,525.832c-1.177-.855-2.314-1.754-3.467-2.632l5.658-7.326-.6-.466a167.758,167.758,0,0,1-52.12-198.844l.3-.7-.7-.3q-37.842-15.9-72.392-30.283C228.887,209.747,298.111,151.868,385.1,138.025a246,246,0,0,1,151.824,24.351l-8.609,16.685.668.346a233.188,233.188,0,0,1,29.1,18.013,228.076,228.076,0,0,1,69.905,287.692l-.341.678,16.77,8.468C609.688,562.425,543.994,613.681,462.836,626.6a246.7,246.7,0,0,1-189.231-48.026l7.142-9.247c1.619,1.236,3.215,2.5,4.87,3.694A234.111,234.111,0,0,0,461,615.082a238.055,238.055,0,0,0,45.225-11.834l.709-.265-20.212-54.7-.714.265a179.284,179.284,0,0,1-62.3,11.2h-.007A176.254,176.254,0,0,1,319.84,525.832m327.8-31.64A248.844,248.844,0,0,0,671.041,343C658.13,261.85,607.33,195.975,539.572,160.541c16.969-32.885,51.433-99.67,51.966-100.7A367.858,367.858,0,0,1,717.02,167.2,362.9,362.9,0,0,1,748.8,545.276c-.927-.467-55.676-28.112-90.633-45.765A261.514,261.514,0,0,0,577.1,169.874q-1.668,2.29-3.346,4.591A255.848,255.848,0,0,1,653.1,496.953l-5.468-2.761M370.607,46.938C250.814,66,155.558,145.9,111.3,250.077q-20.623-8.448-39.5-16.1l-.69-.28-.293.688A382.238,382.238,0,0,0,190.141,685.4l.6.461,73.908-95.692a262.111,262.111,0,0,0,141.023,53.548c.124-1.894.254-3.777.383-5.67a256.379,256.379,0,0,1-137.935-52.37l3.752-4.86A249.527,249.527,0,0,0,463.281,629.4c82.094-13.064,148.544-64.912,183.667-133.861l5.473,2.763a258.518,258.518,0,0,1-55.791,73.341l3.822,4.2a264.294,264.294,0,0,0,57.032-74.982l92,46.453.335-.668A364.434,364.434,0,0,0,718.233,166.3,369.3,369.3,0,0,0,591.569,58.127l-.67-.35L538.225,159.853a248.814,248.814,0,0,0-153.573-24.633c-87.995,14-158.02,72.557-190.754,148.975-1.888-.786-3.794-1.579-5.668-2.357A257.435,257.435,0,0,1,315.179,150.186l-2.417-5.14A263.136,263.136,0,0,0,182.987,279.661l-8.768-3.641C209.708,193,285.741,129.377,381.3,114.171q3.955-.631,7.906-1.134l-1.836-14.08q-4.142.537-8.3,1.195c-100.6,16.007-180.638,83.017-217.96,170.437q-25.274-10.462-48.415-19.942C156.758,146.939,251.588,67.4,370.841,48.423A336.129,336.129,0,0,1,508.252,54.93l.371-1.455a337.657,337.657,0,0,0-138.016-6.537" transform="translate(-40.959 -42.693)" fill="#44bed5"/>
    </clipPath>
    <filter id="パス_1215" x="138.154" y="216.892" width="170.067" height="247.738" filterUnits="userSpaceOnUse">
      <feOffset input="SourceAlpha"/>
      <feGaussianBlur stdDeviation="5" result="blur"/>
      <feFlood flood-opacity="0.161"/>
      <feComposite operator="in" in2="blur"/>
      <feComposite in="SourceGraphic"/>
    </filter>
    <filter id="パス_1216" x="375.354" y="95.629" width="218.653" height="204.001" filterUnits="userSpaceOnUse">
      <feOffset input="SourceAlpha"/>
      <feGaussianBlur stdDeviation="5" result="blur-2"/>
      <feFlood flood-opacity="0.161"/>
      <feComposite operator="in" in2="blur-2"/>
      <feComposite in="SourceGraphic"/>
    </filter>
    <filter id="パス_1217" x="458.297" y="216.86" width="170.083" height="247.801" filterUnits="userSpaceOnUse">
      <feOffset input="SourceAlpha"/>
      <feGaussianBlur stdDeviation="5" result="blur-3"/>
      <feFlood flood-opacity="0.161"/>
      <feComposite operator="in" in2="blur-3"/>
      <feComposite in="SourceGraphic"/>
    </filter>
    <filter id="パス_1218" x="375.354" y="381.875" width="218.496" height="203.754" filterUnits="userSpaceOnUse">
      <feOffset input="SourceAlpha"/>
      <feGaussianBlur stdDeviation="5" result="blur-4"/>
      <feFlood flood-opacity="0.161"/>
      <feComposite operator="in" in2="blur-4"/>
      <feComposite in="SourceGraphic"/>
    </filter>
    <filter id="パス_1219" x="172.51" y="95.629" width="218.671" height="204.031" filterUnits="userSpaceOnUse">
      <feOffset input="SourceAlpha"/>
      <feGaussianBlur stdDeviation="5" result="blur-5"/>
      <feFlood flood-opacity="0.161"/>
      <feComposite operator="in" in2="blur-5"/>
      <feComposite in="SourceGraphic"/>
    </filter>
    <filter id="パス_1220" x="172.666" y="381.844" width="218.515" height="203.785" filterUnits="userSpaceOnUse">
      <feOffset input="SourceAlpha"/>
      <feGaussianBlur stdDeviation="5" result="blur-6"/>
      <feFlood flood-opacity="0.161"/>
      <feComposite operator="in" in2="blur-6"/>
      <feComposite in="SourceGraphic"/>
    </filter>
    <linearGradient id="linear-gradient" x1="-0.18" y1="1" x2="1" y2="0.107" gradientUnits="objectBoundingBox">
      <stop offset="0" stop-color="#000046"/>
      <stop offset="1" stop-color="#1cb5e0"/>
    </linearGradient>
  </defs>
  <g id="グループ_2646" data-name="グループ 2646" transform="translate(-199.846 -2711.664)">
    <g id="グループ_2416" data-name="グループ 2416" transform="translate(-121.047 -49.36)">
      <g id="グループ_2414" data-name="グループ 2414" transform="translate(320.893 2761.024)" opacity="0.371">
        <g id="グループ_1645" data-name="グループ 1645" transform="translate(0 0)" clip-path="url(#clip-path)">
          <rect id="長方形_2512" data-name="長方形 2512" width="954.95" height="991.336" transform="matrix(0.508, -0.861, 0.861, 0.508, -294.862, 487.411)" fill="#44bed5"/>
        </g>
      </g>
    </g>
    <g id="グループ_2627" data-name="グループ 2627" transform="translate(659 62)">
      <g id="グループ_2595" data-name="グループ 2595" transform="translate(-306 2760.293)">
        <g transform="matrix(1, 0, 0, 1, -153.15, -110.63)" filter="url(#パス_1215)">
          <path id="パス_1215-2" data-name="パス 1215" d="M129.928,525.36a99.777,99.777,0,0,1,10.006-43.688L27.266,416.623a230.456,230.456,0,0,0,.141,217.738l112.66-65.044a99.771,99.771,0,0,1-10.139-43.956" transform="translate(153.15 -184.73)" fill="#fff"/>
        </g>
        <g transform="matrix(1, 0, 0, 1, -153.15, -110.63)" filter="url(#パス_1216)">
          <path id="パス_1216-2" data-name="パス 1216" d="M814.937,130.071a100.107,100.107,0,0,1,76,43.932l112.656-65.042A229.98,229.98,0,0,0,814.937,0Z" transform="translate(-424.58 110.63)" fill="#fff"/>
        </g>
        <g transform="matrix(1, 0, 0, 1, -153.15, -110.63)" filter="url(#パス_1217)">
          <path id="パス_1217-2" data-name="パス 1217" d="M1110.057,525.283a99.776,99.776,0,0,1-10.154,43.988l112.659,65.044a230.458,230.458,0,0,0,.141-217.8l-112.667,65.048a99.773,99.773,0,0,1,10.021,43.721" transform="translate(-626.61 -184.65)" fill="#fff"/>
        </g>
        <g transform="matrix(1, 0, 0, 1, -153.15, -110.63)" filter="url(#パス_1218)">
          <path id="パス_1218-2" data-name="パス 1218" d="M890.764,983.453a100.1,100.1,0,0,1-75.827,43.685v130.069a229.978,229.978,0,0,0,188.5-108.705Z" transform="translate(-424.58 -586.58)" fill="#fff"/>
        </g>
        <g transform="matrix(1, 0, 0, 1, -153.15, -110.63)" filter="url(#パス_1219)">
          <path id="パス_1219-2" data-name="パス 1219" d="M230.685,174.034A100.109,100.109,0,0,1,306.7,130.072V0a229.979,229.979,0,0,0-188.671,108.99Z" transform="translate(69.48 110.63)" fill="#fff"/>
        </g>
        <g transform="matrix(1, 0, 0, 1, -153.15, -110.63)" filter="url(#パス_1220)">
          <path id="パス_1220-2" data-name="パス 1220" d="M307.083,1027.065a100.1,100.1,0,0,1-75.847-43.715L118.568,1048.4a229.977,229.977,0,0,0,188.515,108.736Z" transform="translate(69.1 -586.51)" fill="#fff"/>
        </g>
      </g>
      <path id="パス_1922" data-name="パス 1922" d="M-20.16-19.18h-7.28v-1.4h7.28Zm0,3.64h-7.28V-17h7.28ZM-16.8-22.9H-30.66v9.688H-16.8Zm-18.676-.784A19.972,19.972,0,0,1-41.3-18.2a20.663,20.663,0,0,1,1.652,2.828A29.645,29.645,0,0,0-32.312-22.4Zm.728,6.1a25.135,25.135,0,0,1-6.86,7.2,24.847,24.847,0,0,1,1.6,3.444,26.3,26.3,0,0,0,2.52-2.268V2.408h3.22V-12.8a29.567,29.567,0,0,0,2.436-3.528Zm19.432,9.912h-3.808v-1.6h3.248v-2.716H-32.088v2.716h9.576v1.6H-32.76v2.828h3.92l-2.072,1.372A23.587,23.587,0,0,1-27.692.42L-25.2-1.344a29.439,29.439,0,0,0-3.192-3.5h5.88V-.952c0,.308-.112.42-.5.448-.364,0-1.68,0-2.856-.056a11.7,11.7,0,0,1,1.036,2.968,11.084,11.084,0,0,0,4.34-.476c1.092-.476,1.372-1.26,1.372-2.8V-4.844h3.836ZM3.5-19.656c-.224.588-.56,1.288-.812,1.82l.392.084H-3.136l.364-.084a17.058,17.058,0,0,0-.672-1.82Zm8.652,1.9H5.964c.364-.5.756-1.12,1.176-1.82l-.42-.084h3.948v-2.576H1.624v-1.484h-3.3v1.484H-10.7v2.576h4.06l-.14.028a16.994,16.994,0,0,1,.7,1.876h-5.992v2.576h24.22ZM-10.556,1.876A10.685,10.685,0,0,0-6.692-3.64l-2.8-.98A9.257,9.257,0,0,1-13.16.112ZM-5.964-8.848h12.1v1.26h-12.1Zm0-3.136h12.1v1.232h-12.1ZM-1.232-.532c-1.26,0-1.484-.084-1.484-.84v-2.8A17.472,17.472,0,0,1,1.232-1.764L3.248-3.836A17.8,17.8,0,0,0,.336-5.544h9.1v-8.484H-9.128v8.484h7l-1.148,1.12.336.14H-5.964v2.94c0,2.66.868,3.472,4.4,3.472H2.94c2.6,0,3.5-.784,3.864-3.892A8.983,8.983,0,0,1,3.976-2.828c-.14,1.988-.308,2.3-1.344,2.3Zm7.224-3a23.211,23.211,0,0,1,4.4,5.236l2.744-1.6A20.562,20.562,0,0,0,8.568-4.956ZM27.216-22.54l-3.864-.392a23.546,23.546,0,0,1-.756,4.676c-.868.084-1.708.112-2.548.112a35.372,35.372,0,0,1-3.724-.2l.252,3.248c1.2.084,2.352.112,3.5.112.476,0,.952,0,1.456-.028A44.115,44.115,0,0,1,15.82-5.124l3.388,1.736A51.592,51.592,0,0,0,25.2-15.372a48.576,48.576,0,0,0,4.9-.98L29.988-19.6a34.326,34.326,0,0,1-3.78.9C26.628-20.216,26.992-21.644,27.216-22.54ZM25.76-3.164c0-.98,1.036-1.708,2.66-1.708a10.059,10.059,0,0,1,2.268.28v.56c0,1.54-.588,2.6-2.52,2.6C26.628-1.428,25.76-2.128,25.76-3.164Zm8.008-10.668h-3.5c.056,1.708.2,4.2.308,6.272-.644-.056-1.26-.112-1.932-.112-3.892,0-6.188,2.1-6.188,4.844,0,3.08,2.744,4.62,6.216,4.62,3.976,0,5.4-2.016,5.4-4.62v-.28a23.737,23.737,0,0,1,3.78,3l1.876-3a18.31,18.31,0,0,0-5.8-3.584c-.056-1.4-.14-2.744-.168-3.556C33.74-11.48,33.684-12.656,33.768-13.832Zm4.816,1.484,1.988-2.94A48.231,48.231,0,0,0,33.656-19.1l-1.792,2.772A40.413,40.413,0,0,1,38.584-12.348ZM-34.86,15.5l-2.352.98a25.292,25.292,0,0,1,2.464,4.4l2.436-1.036A47.613,47.613,0,0,0-34.86,15.5Zm3.836-1.344-2.38.98a26.905,26.905,0,0,1,2.632,4.256l2.38-1.064A36.006,36.006,0,0,0-31.024,14.152Zm-16.016.812-2.016,3.08c1.848,1.036,4.76,2.912,6.328,4l2.072-3.08C-42.112,17.932-45.192,15.972-47.04,14.964Zm-5.18,19.88,2.1,3.668a35.214,35.214,0,0,0,9.352-3.444,33.775,33.775,0,0,0,11.116-10.08l-2.156-3.808A28.345,28.345,0,0,1-42.7,31.68,30.027,30.027,0,0,1-52.22,34.844Zm.868-13.5-2.016,3.08c1.876,1.008,4.788,2.884,6.384,4L-44.94,25.3C-46.368,24.288-49.448,22.356-51.352,21.348ZM-17.5,19.22l-3.752.9a9.806,9.806,0,0,1,.784,1.988c.2.616.448,1.512.728,2.6-1.288.252-2.3.42-2.688.476-.924.168-1.68.252-2.576.336l.868,3.36c.84-.2,2.884-.616,5.236-1.12,1.008,3.808,2.156,8.176,2.576,9.688a16.048,16.048,0,0,1,.5,2.464l3.808-.952c-.224-.56-.588-1.82-.756-2.3-.42-1.456-1.624-5.768-2.688-9.632,3.024-.616,5.824-1.2,6.5-1.316a24.857,24.857,0,0,1-4.144,5.04l3.08,1.54A44.073,44.073,0,0,0-4.06,23.532l-2.24-1.6a5.337,5.337,0,0,1-1.428.448c-1.092.252-5.012,1.008-8.568,1.68-.308-1.092-.56-2.044-.756-2.716C-17.22,20.62-17.388,19.864-17.5,19.22Zm23.548-3.5-2.632,2.8a58.219,58.219,0,0,1,7,6.048l2.856-2.912A56.551,56.551,0,0,0,6.048,15.72Zm-3.5,18.648,2.352,3.7a30.323,30.323,0,0,0,10.388-3.948,29.774,29.774,0,0,0,10.36-10.36l-2.184-3.948A26.365,26.365,0,0,1,13.272,30.7,28.859,28.859,0,0,1,2.548,34.368Zm38.836,2.016,2.352,1.932a5.982,5.982,0,0,1,1.2-.84,30.83,30.83,0,0,0,9.492-7.644l-2.156-3.08A17.731,17.731,0,0,1,45.36,32.66V18.016a14.218,14.218,0,0,1,.2-2.436H41.384a12.413,12.413,0,0,1,.224,2.408V34.312A10.654,10.654,0,0,1,41.384,36.384Zm-12.964-.42,3.416,2.268A16.417,16.417,0,0,0,36.82,30.2c.756-2.828.84-8.736.84-12.04a18.443,18.443,0,0,1,.2-2.548H33.74a10.626,10.626,0,0,1,.252,2.576c0,3.388-.028,8.68-.812,11.088A13.209,13.209,0,0,1,28.42,35.964Z" transform="translate(-79.077 2981.606)" fill="#fff"/>
      <path id="交差_112" data-name="交差 112" d="M27.3,43.846h17.8L27.3,61.674ZM0,61.674V0H45.09V40.506H23.958V61.674ZM6.136,32.768A1.464,1.464,0,0,0,7.6,34.231H37.492a1.464,1.464,0,0,0,0-2.928H7.6A1.465,1.465,0,0,0,6.136,32.768Zm0-10.585A1.463,1.463,0,0,0,7.6,23.645H37.492a1.463,1.463,0,0,0,0-2.925H7.6A1.462,1.462,0,0,0,6.136,22.183Zm0-10.584A1.463,1.463,0,0,0,7.6,13.06H37.492a1.463,1.463,0,0,0,0-2.925H7.6A1.464,1.464,0,0,0,6.136,11.6Z" transform="translate(-176 2802)" fill="url(#linear-gradient)"/>
      <path id="交差_115" data-name="交差 115" d="M4.716,53.744c-1.3-1.3-.722-3.543,1.211-5.923C7.638,45.666,16.776,34.371,22.463,28.46c3.585-4.118,7.079-7.324,9.664-8.028l5.9,5.9C37.323,28.917,34.119,32.411,30,36c-5.911,5.688-17.2,14.826-19.361,16.537a7.179,7.179,0,0,1-4.165,1.91A2.393,2.393,0,0,1,4.716,53.744ZM42.2,52.36c-1.646-1.305-8.473-6.821-14.355-11.959,1.218-1.092,2.356-2.138,3.348-3.092,1.589-1.382,2.951-2.672,4.1-3.876,5.074,5.824,10.449,12.477,11.734,14.1,1.984,2.441,2.577,4.741,1.243,6.076a2.46,2.46,0,0,1-1.8.715A7.347,7.347,0,0,1,42.2,52.36ZM14.124,25.5c-.462-1.678-.232-3.124.373-3.727l1.947-1.948c.6-.6,2.051-.831,3.73-.373a14.467,14.467,0,0,1,5.218,3.374,59.293,59.293,0,0,0-4.238,4.439c-1.046,1.091-2.209,2.358-3.42,3.716A15.011,15.011,0,0,1,14.124,25.5ZM33.264,19.1,36.3,16.069l6.062,6.063-3.032,3.034ZM4.12,20.193C-.708,15.365-1.17,6.48,2.091,1.915A8.348,8.348,0,0,0,3.814,3.3c3.674,2.45,7.854,2.949,11.054,6.148a7.6,7.6,0,0,1,1.94,7.433l-5.254,5.258A7.612,7.612,0,0,1,4.12,20.193ZM37.462,14.9c1.749-1.749-1.223-3.673,2.45-7.349l1.108-1.106L51.983,17.409l-1.108,1.11c-2.147,2.143-3.7,2.02-4.964,1.9a2.554,2.554,0,0,0-2.386.552Zm4.8-9.7L46.952.513a1.758,1.758,0,0,1,2.482,0L57.918,9a1.755,1.755,0,0,1,0,2.479l-4.692,4.694Z" transform="translate(-182 3099)" fill="url(#linear-gradient)"/>
      <path id="交差_113" data-name="交差 113" d="M1.478,48.133A1.312,1.312,0,0,1,.069,46.49l3.163-8.617a1.471,1.471,0,0,1,1.41-.887H55.221a1.467,1.467,0,0,1,1.41.887L59.8,46.49a1.31,1.31,0,0,1-1.409,1.643Zm4.1-13.916a1.953,1.953,0,0,1-1.952-1.952V1.951A1.949,1.949,0,0,1,5.581,0H54.426a1.95,1.95,0,0,1,1.952,1.951V32.265a1.953,1.953,0,0,1-1.952,1.952Zm2.9-4.676H51.522V4.675H8.484Z" transform="translate(-266 2962)" fill="url(#linear-gradient)"/>
      <path id="交差_117" data-name="交差 117" d="M27.059,45.008,37.225-.807h5.29L32.4,45.008ZM45.873,24.584l8.97-2.9L62.019,19.2v-.184l-7.176-2.484-8.97-2.9V6.92L70.3,16.3v5.612L45.873,31.3ZM.149,21.917V16.3L24.575,6.92v6.717l-8.97,2.9L8.429,19.019V19.2l7.176,2.484,8.97,2.9V31.3Z" transform="translate(51.958 2964.807)" fill="url(#linear-gradient)"/>
      <path id="交差_114" data-name="交差 114" d="M.5,35.262C-2.5,21.635,8.285,6.572,24.586,1.62c12.955-3.936,25.791-.51,31.6,8.194,3.235,4.847.974,10.017-10.014,10.987-8.839.78-7.646,11.334.97,10.988,8.08-.324,7.475,5.939,5.731,7.962A37.425,37.425,0,0,1,35.445,50.97a35.837,35.837,0,0,1-10.406,1.586C12.944,52.555,2.847,45.929.5,35.262Zm31.234.97a5.17,5.17,0,1,0,3.655-1.514A5.207,5.207,0,0,0,31.734,36.232ZM9.31,35.129a3.489,3.489,0,1,0,2.536-1.092A3.487,3.487,0,0,0,9.31,35.129ZM7.335,22.988a3.679,3.679,0,1,0,3.5-2.525A3.685,3.685,0,0,0,7.335,22.988Zm9.552-12.555h0a3.876,3.876,0,1,0,2.26-.73A3.879,3.879,0,0,0,16.886,10.434ZM43.377,8.986a4.267,4.267,0,1,0,3.017-1.249A4.293,4.293,0,0,0,43.377,8.986ZM31.724,4.858a4.069,4.069,0,1,0,.474-.027A4.121,4.121,0,0,0,31.724,4.858Z" transform="translate(-26 2811)" fill="url(#linear-gradient)"/>
      <path id="交差_116" data-name="交差 116" d="M27.041,51.007A18.044,18.044,0,0,1,28.5,46.323l-4.957-5.012-5.532,5.4a2.6,2.6,0,0,1,.273,1.144,2.631,2.631,0,1,1-2.631-2.631c.062,0,.122.014.184.019l6.022-6.082V35.422H25.1v3.6h.1l-.05.069h.05l4.637,4.861a18.187,18.187,0,0,1,33.073,7.053Zm17.481-16.4H0V30.565H2.432V5.473H0V1.426H21.049V-1h4.856V1.426H46.95V5.473H44.522v5.981c.15-.006.3-.01.454-.01a10.37,10.37,0,0,1,1.975,20.55v2.619ZM5.67,30.565H39.416a10.419,10.419,0,0,1-2.987-2.883V28.2H29.953V9.585h6.476v6.357a10.4,10.4,0,0,1,4.856-3.821V5.473H5.67ZM20.239,28.2V13.632h6.476V28.2Zm-9.714,0V17.68H17V28.2Z" transform="translate(-28 3103.003)" fill="url(#linear-gradient)"/>
      <text id="プレゼンテーション" transform="translate(3 3171)" font-size="11" font-family="SourceHanSansJP-Bold, Source Han Sans JP" font-weight="700" letter-spacing="-0.05em"><tspan x="-47.19" y="0">プレゼンテーション</tspan></text>
      <text id="イラスト" transform="translate(-153 3171)" font-size="11" font-family="SourceHanSansJP-Bold, Source Han Sans JP" font-weight="700" letter-spacing="-0.05em"><tspan x="-21.065" y="0">イラスト</tspan></text>
      <text id="デザイン" transform="translate(3 2881)" font-size="11" font-family="SourceHanSansJP-Bold, Source Han Sans JP" font-weight="700"><tspan x="-22" y="0">デザイン</tspan></text>
      <text id="企画_営業" data-name="企画・営業" transform="translate(-154 2881)" font-size="11" font-family="SourceHanSansJP-Bold, Source Han Sans JP" font-weight="700"><tspan x="-27.5" y="0">企画・営業</tspan></text>
      <text id="プログラミング" transform="translate(-237 3027.26)" font-size="11" font-family="SourceHanSansJP-Bold, Source Han Sans JP" font-weight="700"><tspan x="-38.5" y="0">プログラミング</tspan></text>
      <text id="コーディング" transform="translate(88.6 3027.26)" font-size="11" font-family="SourceHanSansJP-Bold, Source Han Sans JP" font-weight="700"><tspan x="-32.615" y="0">コーディング</tspan></text>
    </g>
  </g>
</svg>
