<svg xmlns="http://www.w3.org/2000/svg" xmlns:xlink="http://www.w3.org/1999/xlink" width="552.858" height="485.795" viewBox="0 0 552.858 485.795">
  <defs>
    <clipPath id="clip-path">
      <path id="パス_907" data-name="パス 907" d="M317.171,528.392q6.116.175,12.3.029l-.472-21.3q-5.614.136-11.181-.023Zm22.99-21.824,1.587,21.239q6.1-.465,12.232-1.252l-2.7-21.135q-5.572.726-11.12,1.148m-47.5,19.826q6.075.814,12.228,1.323l1.755-21.228q-5.591-.459-11.117-1.205Zm69.664-22.687,3.8,20.958q6.081-1.1,12.033-2.512l-4.889-20.734q-5.414,1.282-10.943,2.288M268.5,521.828q5.963,1.459,12.024,2.6l3.961-20.93q-5.5-1.04-10.93-2.36ZM384.077,498.57l5.972,20.445q5.923-1.732,11.7-3.764l-7.031-20.1q-5.258,1.843-10.645,3.422M244.963,514.737c3.853,1.383,7.745,2.679,11.675,3.858l6.13-20.393q-5.365-1.62-10.616-3.513Zm160.2-23.571,8.077,19.714q5.7-2.346,11.242-4.973l-9.1-19.261q-5.034,2.381-10.222,4.519M222.294,505.214q5.537,2.669,11.21,5.053l8.227-19.638q-5.166-2.166-10.194-4.6Zm203.054-23.626,10.093,18.759q5.42-2.928,10.653-6.125l-11.057-18.205q-4.755,2.91-9.689,5.572m19.066-11.639,12,17.6q5.076-3.476,9.953-7.2l-12.9-16.951q-4.429,3.39-9.051,6.553m17.74-13.568,13.768,16.249q4.679-3.99,9.132-8.213l-14.594-15.5q-4.053,3.842-8.305,7.469m-63.377-44.292,6.7,10.653q3.384-2.146,6.627-4.463L404.857,408c-1.988,1.41-4.01,2.781-6.081,4.092m11.935-8.491,7.776,9.893q3.138-2.486,6.126-5.124l-8.28-9.465c-1.832,1.612-3.7,3.183-5.623,4.7m10.988-9.681,8.769,9.022q2.855-2.791,5.554-5.721l-9.221-8.553q-2.48,2.693-5.1,5.252m9.922-10.758,9.659,8.053q2.557-3.066,4.941-6.266l-10.066-7.534q-2.184,2.928-4.533,5.747m8.766-11.722,10.449,7c1.482-2.211,2.91-4.452,4.272-6.742l-10.8-6.442c-1.249,2.1-2.566,4.156-3.919,6.18m7.513-12.554,11.125,5.869q1.863-3.525,3.537-7.15l-11.421-5.285q-1.54,3.322-3.241,6.566m6.13-13.286,11.684,4.675q1.479-3.7,2.767-7.483l-11.907-4.058c-.792,2.311-1.631,4.6-2.544,6.866m4.722-13.853,12.107,3.431q1.088-3.829,1.973-7.733l-12.269-2.79q-.816,3.573-1.811,7.093M462,317.471l12.4,2.148q.68-3.922,1.154-7.9l-12.5-1.5q-.43,3.652-1.056,7.243m1.736-14.528,12.553.837c.176-2.642.289-5.3.322-7.97l-12.583-.18Zm-44.881-27.8c.2,1.02.4,2.032.57,3.061A96.368,96.368,0,0,1,300,386.665q-.773,3.03-1.555,6.1A102.665,102.665,0,0,0,425.639,277.214c-.174-1.094-.4-2.169-.6-3.254-2.076.4-4.136.79-6.18,1.181m22.1-21a123.243,123.243,0,0,1,4.9,19.861c.38,2.375.664,4.748.9,7.121l27.136-2.709c-.3-2.9-.645-5.792-1.1-8.7a150.841,150.841,0,0,0-6-24.287c-8.622,2.9-17.277,5.821-25.843,8.713M153.078,320.855a172.635,172.635,0,0,1,8.707-87.4c1.039.393,37.235,14.08,38.206,14.445a131.8,131.8,0,0,0-6.58,66.541,133.4,133.4,0,0,0,6.354,24.543c-.981.365-37.29,13.773-38.321,14.152a174.957,174.957,0,0,1-8.366-32.278m7.841-88.327a173.741,173.741,0,0,0-8.945,88.505,175.9,175.9,0,0,0,8.6,33.015l.192.527,40.42-14.924-.194-.524a132.217,132.217,0,0,1-6.482-24.865,130.717,130.717,0,0,1,6.7-66.5l.2-.521L161.118,232ZM258.991,304a65.775,65.775,0,1,1,64.955,55.473h0A65.907,65.907,0,0,1,258.991,304m54.3-77.543a68.01,68.01,0,1,0,10.732-.85,68.127,68.127,0,0,0-10.732.85m-80.284,81.41a92.478,92.478,0,0,0,96.022,77.707l-.769-14.669A77.621,77.621,0,0,1,272.022,235.9l-9.868-10.864a92.319,92.319,0,0,0-29.147,82.834m78.84-90.5a76.8,76.8,0,0,0-28.612,10.665l1.647,2.659a74.112,74.112,0,0,1,112.3,51.317c.229,1.432.407,2.856.559,4.282l3.1-.307c-.151-1.486-.328-2.973-.567-4.466a77.2,77.2,0,0,0-88.424-64.15m-92.538,92.677a106.153,106.153,0,1,1,104.836,89.533,106.332,106.332,0,0,1-104.836-89.533m87.874-123.651a108.238,108.238,0,1,0,17.083-1.356,108.427,108.427,0,0,0-17.083,1.356M214.094,310.873a111.42,111.42,0,1,1,110.048,93.987,111.622,111.622,0,0,1-110.048-93.987m92.4-128.83a112.642,112.642,0,1,0,17.775-1.41,112.84,112.84,0,0,0-17.775,1.41M208.37,311.786a117.212,117.212,0,1,1,115.763,98.873h-.007A117.464,117.464,0,0,1,208.37,311.786m97.072-136.333a119.311,119.311,0,1,0,18.831-1.494,119.521,119.521,0,0,0-18.831,1.494m-4.882-30.683a149.591,149.591,0,0,0-55.729,20.776l14.386,23.168A122.491,122.491,0,0,1,304.846,171.7c58.017-9.232,113.145,23.866,133.894,76.375L464.078,238A150.3,150.3,0,0,0,300.561,144.77m52.2-49.665a199.926,199.926,0,0,1,30.575,6.93l3.086-10.021a210.014,210.014,0,0,0-32.171-7.291ZM306.708,83.258l.87,10.452a199.711,199.711,0,0,1,32.169-.075l.812-10.46q-8.1-.639-16.334-.642-8.7,0-17.517.724m-84.3,350.422c-1.213-.881-2.385-1.8-3.571-2.71l24.96-32.315c.861.658,1.71,1.328,2.59,1.966a131.32,131.32,0,0,0,98.374,23.61,133.434,133.434,0,0,0,24.936-6.5c.365.985,13.778,37.3,14.16,38.323A174.935,174.935,0,0,1,323.7,466.745h-.011A171.846,171.846,0,0,1,222.409,433.68M180.481,390.4c.914-.614,33.123-22.143,33.974-22.712a132.346,132.346,0,0,0,28.45,30.295c-5.074,6.572-14.282,18.492-24.957,32.315a172.9,172.9,0,0,1-37.467-39.9m-37.012-68.011a181.707,181.707,0,0,1,12.005-99.395q25.3,10.531,53,22.17A125.008,125.008,0,0,0,247.1,392.548l-3.511,4.546a131.051,131.051,0,0,1-28.539-30.482l-.312-.467-35.821,23.949.311.465a173.952,173.952,0,0,0,38.036,40.619L212,438a182.111,182.111,0,0,1-68.526-115.614m-6.554,1.041a188.277,188.277,0,0,1,12.429-102.987l4.195,1.747a184.51,184.51,0,0,0,57.175,217.473q-1.38,1.786-2.773,3.591a188.722,188.722,0,0,1-71.026-119.824M45.585,337.962A280.812,280.812,0,0,1,63.849,185.294q13.68,5.543,28.655,11.678a250.608,250.608,0,0,0-6.283,176.943l1.052-.354a249.543,249.543,0,0,1,6.26-176.168q17.1,7.005,35.777,14.735A210.7,210.7,0,0,0,158.7,424.937l8.215-6.518A200.238,200.238,0,0,1,139,216.143l6.475,2.688a193.25,193.25,0,0,0,59.905,227.738L151.448,516.4A280.644,280.644,0,0,1,45.585,337.962m430.394,31.661a169.619,169.619,0,0,0-52.229-213.5A173.588,173.588,0,0,0,402.59,143c.107-.208,2.386-4.622,5.863-11.361A182.538,182.538,0,0,1,487.4,375.389c-6.771-3.42-11.208-5.661-11.419-5.766M247.042,399.715c-.87-.632-1.71-1.3-2.562-1.945l4.181-5.414-.441-.344a123.967,123.967,0,0,1-38.514-146.938l.222-.517-.521-.219q-27.964-11.751-53.495-22.378a182.548,182.548,0,0,1,251.545-90.826l-6.362,12.33.494.256a172.322,172.322,0,0,1,21.5,13.311,168.54,168.54,0,0,1,51.658,212.594l-.252.5,12.392,6.257a182.544,182.544,0,0,1-274.013,62.3l5.278-6.833c1.2.914,2.376,1.844,3.6,2.73a173,173,0,0,0,129.605,31.083,175.919,175.919,0,0,0,33.419-8.745l.524-.2-14.936-40.42-.528.2a132.484,132.484,0,0,1-46.037,8.279h0a130.245,130.245,0,0,1-76.753-25.066M489.27,376.334a184.633,184.633,0,0,0-79.854-246.556c12.539-24.3,38.007-73.652,38.4-74.416A271.833,271.833,0,0,1,540.543,134.7a268.17,268.17,0,0,1,23.485,279.386c-.685-.345-41.143-20.773-66.975-33.819a193.249,193.249,0,0,0-59.9-243.589q-1.233,1.692-2.473,3.393a189.062,189.062,0,0,1,58.633,238.307l-4.041-2.041M284.557,45.83C196.034,59.915,125.644,118.959,92.94,195.942Q77.7,189.7,63.748,184.046l-.51-.207-.217.508A282.46,282.46,0,0,0,151.2,517.63l.443.34,54.615-70.713a193.691,193.691,0,0,0,104.21,39.57c.092-1.4.187-2.791.283-4.19a189.455,189.455,0,0,1-101.929-38.7l2.773-3.591a184.644,184.644,0,0,0,277.167-63.019l4.044,2.042a191.035,191.035,0,0,1-41.227,54.2l2.824,3.1a195.3,195.3,0,0,0,42.145-55.409l67.983,34.327.247-.494A269.3,269.3,0,0,0,541.44,134.033a272.9,272.9,0,0,0-93.6-79.935l-.495-.258L408.42,129.27a184.644,184.644,0,0,0-254.444,91.884c-1.4-.581-2.8-1.167-4.189-1.742A190.235,190.235,0,0,1,243.6,122.126l-1.786-3.8a194.448,194.448,0,0,0-95.9,99.475l-6.479-2.691a200.668,200.668,0,0,1,153.025-119.6q2.923-.467,5.842-.838l-1.357-10.4q-3.061.4-6.134.883A211.158,211.158,0,0,0,129.746,211.1q-18.677-7.731-35.777-14.737C126.531,119.727,196.606,60.95,284.729,46.927a248.387,248.387,0,0,1,101.542,4.808l.274-1.075A249.516,249.516,0,0,0,284.557,45.83" transform="translate(-40.959 -42.693)" fill="#8b99ab"/>
    </clipPath>
    <filter id="パス_1215" x="95.929" y="152.829" width="134.999" height="193.223" filterUnits="userSpaceOnUse">
      <feOffset input="SourceAlpha"/>
      <feGaussianBlur stdDeviation="5" result="blur"/>
      <feFlood flood-opacity="0.161"/>
      <feComposite operator="in" in2="blur"/>
      <feComposite in="SourceGraphic"/>
    </filter>
    <filter id="パス_1216" x="273.742" y="61.927" width="171.42" height="160.437" filterUnits="userSpaceOnUse">
      <feOffset input="SourceAlpha"/>
      <feGaussianBlur stdDeviation="5" result="blur-2"/>
      <feFlood flood-opacity="0.161"/>
      <feComposite operator="in" in2="blur-2"/>
      <feComposite in="SourceGraphic"/>
    </filter>
    <filter id="パス_1217" x="335.919" y="152.805" width="135.011" height="193.271" filterUnits="userSpaceOnUse">
      <feOffset input="SourceAlpha"/>
      <feGaussianBlur stdDeviation="5" result="blur-3"/>
      <feFlood flood-opacity="0.161"/>
      <feComposite operator="in" in2="blur-3"/>
      <feComposite in="SourceGraphic"/>
    </filter>
    <filter id="パス_1218" x="273.742" y="276.506" width="171.303" height="160.252" filterUnits="userSpaceOnUse">
      <feOffset input="SourceAlpha"/>
      <feGaussianBlur stdDeviation="5" result="blur-4"/>
      <feFlood flood-opacity="0.161"/>
      <feComposite operator="in" in2="blur-4"/>
      <feComposite in="SourceGraphic"/>
    </filter>
    <filter id="パス_1219" x="121.684" y="61.927" width="171.434" height="160.459" filterUnits="userSpaceOnUse">
      <feOffset input="SourceAlpha"/>
      <feGaussianBlur stdDeviation="5" result="blur-5"/>
      <feFlood flood-opacity="0.161"/>
      <feComposite operator="in" in2="blur-5"/>
      <feComposite in="SourceGraphic"/>
    </filter>
    <filter id="パス_1220" x="121.801" y="276.483" width="171.317" height="160.275" filterUnits="userSpaceOnUse">
      <feOffset input="SourceAlpha"/>
      <feGaussianBlur stdDeviation="5" result="blur-6"/>
      <feFlood flood-opacity="0.161"/>
      <feComposite operator="in" in2="blur-6"/>
      <feComposite in="SourceGraphic"/>
    </filter>
    <linearGradient id="linear-gradient" x1="-0.18" y1="1" x2="1" y2="0.107" gradientUnits="objectBoundingBox">
      <stop offset="0" stop-color="#000046"/>
      <stop offset="1" stop-color="#1cb5e0"/>
    </linearGradient>
  </defs>
  <g id="グループ_2645" data-name="グループ 2645" transform="translate(95.929 -1830.471)">
    <g id="グループ_1646" data-name="グループ 1646" transform="translate(-136.889 1787.778)" opacity="0.121">
      <g id="グループ_1645" data-name="グループ 1645" transform="translate(40.959 42.693)" clip-path="url(#clip-path)">
        <rect id="長方形_2512" data-name="長方形 2512" width="705.672" height="732.56" transform="matrix(0.508, -0.861, 0.861, 0.508, -217.892, 360.179)" fill="#8b99ab"/>
      </g>
    </g>
    <g id="グループ_2640" data-name="グループ 2640" transform="translate(57.613 50.104)">
      <g id="グループ_2638" data-name="グループ 2638" transform="translate(-42.613 1857.293)">
        <g id="グループ_2595" data-name="グループ 2595">
          <g transform="matrix(1, 0, 0, 1, -110.93, -76.93)" filter="url(#パス_1215)">
            <path id="パス_1215-2" data-name="パス 1215" d="M97.4,498.136a74.8,74.8,0,0,1,7.5-32.75L20.44,416.623a172.758,172.758,0,0,0,.105,163.223L105,531.087a74.791,74.791,0,0,1-7.6-32.951" transform="translate(110.93 -248.79)" fill="#fff"/>
          </g>
          <g transform="matrix(1, 0, 0, 1, -110.93, -76.93)" filter="url(#パス_1216)">
            <path id="パス_1216-2" data-name="パス 1216" d="M814.937,97.506a75.043,75.043,0,0,1,56.97,32.933l84.45-48.757A172.4,172.4,0,0,0,814.937,0Z" transform="translate(-526.2 76.92)" fill="#fff"/>
          </g>
          <g transform="matrix(1, 0, 0, 1, -110.93, -76.93)" filter="url(#パス_1217)">
            <path id="パス_1217-2" data-name="パス 1217" d="M1107.514,498.051a74.8,74.8,0,0,1-7.612,32.975l84.453,48.759a172.759,172.759,0,0,0,.105-163.271L1100,465.276a74.793,74.793,0,0,1,7.512,32.774" transform="translate(-748.98 -248.71)" fill="#fff"/>
          </g>
          <g transform="matrix(1, 0, 0, 1, -110.93, -76.93)" filter="url(#パス_1218)">
            <path id="パス_1218-2" data-name="パス 1218" d="M871.779,983.453a75.041,75.041,0,0,1-56.842,32.748v97.5a172.4,172.4,0,0,0,141.3-81.489Z" transform="translate(-526.2 -691.95)" fill="#fff"/>
          </g>
          <g transform="matrix(1, 0, 0, 1, -110.93, -76.93)" filter="url(#パス_1219)">
            <path id="パス_1219-2" data-name="パス 1219" d="M202.48,130.462a75.045,75.045,0,0,1,56.984-32.955V0a172.4,172.4,0,0,0-141.434,81.7Z" transform="translate(18.65 76.92)" fill="#fff"/>
          </g>
          <g transform="matrix(1, 0, 0, 1, -110.93, -76.93)" filter="url(#パス_1220)">
            <path id="パス_1220-2" data-name="パス 1220" d="M259.885,1016.12a75.039,75.039,0,0,1-56.858-32.77l-84.459,48.763a172.4,172.4,0,0,0,141.317,81.512Z" transform="translate(18.23 -691.87)" fill="#fff"/>
          </g>
        </g>
        <path id="パス_1922" data-name="パス 1922" d="M-28.474-20.316h-5.457v-1.049h5.457Zm0,2.729h-5.457v-1.091h5.457Zm2.519-5.52h-10.39v7.262h10.39Zm-14-.588a14.971,14.971,0,0,1-4.366,4.114,15.489,15.489,0,0,1,1.238,2.12,22.223,22.223,0,0,0,5.5-5.268Zm.546,4.576a18.842,18.842,0,0,1-5.142,5.394,18.626,18.626,0,0,1,1.2,2.582,19.719,19.719,0,0,0,1.889-1.7v8.711h2.414v-11.4a22.164,22.164,0,0,0,1.826-2.645Zm14.567,7.43H-27.7v-1.2h2.435v-2.036H-37.416v2.036h7.178v1.2H-37.92v2.12h2.939L-36.534-8.54A17.681,17.681,0,0,1-34.12-5.623l1.868-1.322a22.069,22.069,0,0,0-2.393-2.624h4.408v2.918c0,.231-.084.315-.378.336-.273,0-1.259,0-2.141-.042a8.77,8.77,0,0,1,.777,2.225,8.309,8.309,0,0,0,3.253-.357c.819-.357,1.028-.945,1.028-2.1V-9.569h2.876Zm14.105-8.984c-.168.441-.42.966-.609,1.364l.294.063h-4.66l.273-.063a12.788,12.788,0,0,0-.5-1.364Zm6.486,1.427H-8.891c.273-.378.567-.84.882-1.364l-.315-.063h2.96V-22.6h-6.78v-1.112h-2.477V-22.6H-21.38v1.931h3.044l-.1.021a12.739,12.739,0,0,1,.525,1.406h-4.492v1.931H-4.252ZM-21.275-4.531a8.01,8.01,0,0,0,2.9-4.135l-2.1-.735a6.94,6.94,0,0,1-2.75,3.547Zm3.442-8.039h9.068v.945h-9.068Zm0-2.351h9.068V-14h-9.068Zm3.547,8.585c-.945,0-1.112-.063-1.112-.63v-2.1a13.1,13.1,0,0,1,2.96,1.805l1.511-1.553a13.346,13.346,0,0,0-2.183-1.28h6.822v-6.36H-20.2v6.36h5.247l-.861.84.252.1h-2.267v2.2c0,1.994.651,2.6,3.3,2.6h3.379c1.952,0,2.624-.588,2.9-2.918a6.734,6.734,0,0,1-2.12-.8c-.1,1.49-.231,1.721-1.008,1.721ZM-8.87-8.582a17.4,17.4,0,0,1,3.3,3.925l2.057-1.2a15.414,15.414,0,0,0-3.421-3.8ZM7.04-22.834l-2.9-.294a17.651,17.651,0,0,1-.567,3.505c-.651.063-1.28.084-1.91.084a26.516,26.516,0,0,1-2.792-.147l.189,2.435c.9.063,1.763.084,2.624.084.357,0,.714,0,1.091-.021A33.07,33.07,0,0,1-1.5-9.779l2.54,1.3a38.675,38.675,0,0,0,4.492-8.984A36.414,36.414,0,0,0,9.2-18.2l-.084-2.435a25.732,25.732,0,0,1-2.834.672C6.6-21.092,6.872-22.163,7.04-22.834ZM5.949-8.31c0-.735.777-1.28,1.994-1.28a7.54,7.54,0,0,1,1.7.21v.42c0,1.154-.441,1.952-1.889,1.952C6.6-7.008,5.949-7.533,5.949-8.31Zm6-8H9.328c.042,1.28.147,3.148.231,4.7-.483-.042-.945-.084-1.448-.084-2.918,0-4.639,1.574-4.639,3.631,0,2.309,2.057,3.463,4.66,3.463,2.981,0,4.051-1.511,4.051-3.463v-.21a17.794,17.794,0,0,1,2.834,2.246l1.406-2.246a13.726,13.726,0,0,0-4.345-2.687c-.042-1.049-.1-2.057-.126-2.666C11.931-14.543,11.889-15.425,11.952-16.307Zm3.61,1.112,1.49-2.2a36.156,36.156,0,0,0-5.184-2.855l-1.343,2.078A30.3,30.3,0,0,1,15.562-15.194ZM-39.494,5.679l-1.763.735a18.96,18.96,0,0,1,1.847,3.3l1.826-.777A35.692,35.692,0,0,0-39.494,5.679Zm2.876-1.008-1.784.735A20.169,20.169,0,0,1-36.429,8.6l1.784-.8A26.991,26.991,0,0,0-36.618,4.671Zm-12.006.609-1.511,2.309c1.385.777,3.568,2.183,4.744,3l1.553-2.309C-44.93,7.5-47.239,6.035-48.624,5.28Zm-3.883,14.9,1.574,2.75a26.4,26.4,0,0,0,7.011-2.582,25.319,25.319,0,0,0,8.333-7.556l-1.616-2.855a21.248,21.248,0,0,1-8.165,7.871A22.509,22.509,0,0,1-52.507,20.182Zm.651-10.117-1.511,2.309c1.406.756,3.589,2.162,4.786,3l1.532-2.351C-48.121,12.269-50.429,10.821-51.857,10.065Zm25.377-1.6-2.813.672a7.351,7.351,0,0,1,.588,1.49c.147.462.336,1.133.546,1.952-.966.189-1.721.315-2.015.357-.693.126-1.259.189-1.931.252l.651,2.519c.63-.147,2.162-.462,3.925-.84.756,2.855,1.616,6.129,1.931,7.262a12.03,12.03,0,0,1,.378,1.847l2.855-.714c-.168-.42-.441-1.364-.567-1.721-.315-1.091-1.217-4.324-2.015-7.22,2.267-.462,4.366-.9,4.87-.987a18.634,18.634,0,0,1-3.106,3.778l2.309,1.154a33.038,33.038,0,0,0,4.471-6.57l-1.679-1.2a4,4,0,0,1-1.07.336c-.819.189-3.757.756-6.423,1.259-.231-.819-.42-1.532-.567-2.036C-26.27,9.52-26.4,8.953-26.48,8.47ZM-8.828,5.847l-1.973,2.1a43.643,43.643,0,0,1,5.247,4.534L-3.412,10.3A42.392,42.392,0,0,0-8.828,5.847Zm-2.624,13.979L-9.688,22.6A22.731,22.731,0,0,0-1.9,19.637a22.319,22.319,0,0,0,7.766-7.766L4.228,8.911a19.764,19.764,0,0,1-7.64,8.165A21.634,21.634,0,0,1-11.452,19.826Zm29.113,1.511,1.763,1.448a4.484,4.484,0,0,1,.9-.63,23.111,23.111,0,0,0,7.116-5.73l-1.616-2.309a13.292,13.292,0,0,1-5.184,4.429V7.568a10.658,10.658,0,0,1,.147-1.826H17.661a9.305,9.305,0,0,1,.168,1.805V19.784A7.987,7.987,0,0,1,17.661,21.337Zm-9.718-.315,2.561,1.7A12.307,12.307,0,0,0,14.24,16.7c.567-2.12.63-6.549.63-9.026a13.825,13.825,0,0,1,.147-1.91H11.931a7.966,7.966,0,0,1,.189,1.931c0,2.54-.021,6.507-.609,8.312A9.9,9.9,0,0,1,7.943,21.022Z" transform="translate(183.471 171.841)" fill="#001429"/>
        <path id="パス_2021" data-name="パス 2021" d="M20.461,32.868H33.8L20.461,46.233ZM0,46.233V0H33.8V30.365H17.959V46.233ZM4.6,24.564a1.1,1.1,0,0,0,1.1,1.1H28.105a1.1,1.1,0,0,0,0-2.195H5.7A1.1,1.1,0,0,0,4.6,24.564Zm0-7.935a1.1,1.1,0,0,0,1.1,1.1H28.105a1.1,1.1,0,0,0,0-2.193H5.7A1.1,1.1,0,0,0,4.6,16.629ZM4.6,8.7A1.1,1.1,0,0,0,5.7,9.79H28.105a1.1,1.1,0,0,0,0-2.193H5.7A1.1,1.1,0,0,0,4.6,8.7Z" transform="translate(97.452 31.265)" fill="url(#linear-gradient)"/>
        <path id="パス_2022" data-name="パス 2022" d="M3.535,40.289c-.976-.974-.541-2.656.908-4.44,1.283-1.616,8.132-10.083,12.4-14.515,2.688-3.087,5.307-5.49,7.244-6.018l4.424,4.422c-.529,1.939-2.93,4.559-6.018,7.246-4.431,4.264-12.9,11.114-14.514,12.4a5.382,5.382,0,0,1-3.122,1.432A1.794,1.794,0,0,1,3.535,40.289Zm28.1-1.038c-1.234-.978-6.352-5.113-10.761-8.965.913-.819,1.766-1.6,2.51-2.318,1.191-1.036,2.212-2,3.075-2.905,3.8,4.366,7.833,9.353,8.8,10.566,1.487,1.83,1.932,3.554.932,4.555a1.844,1.844,0,0,1-1.35.536A5.507,5.507,0,0,1,31.638,39.25ZM10.588,19.113a3.066,3.066,0,0,1,.28-2.794l1.459-1.46a3.078,3.078,0,0,1,2.8-.28,10.845,10.845,0,0,1,3.911,2.529,44.448,44.448,0,0,0-3.177,3.327c-.784.818-1.656,1.767-2.564,2.786A11.252,11.252,0,0,1,10.588,19.113ZM24.936,14.32l2.275-2.274,4.544,4.545-2.273,2.274Zm-21.847.818C-.531,11.518-.877,4.857,1.567,1.436A6.258,6.258,0,0,0,2.859,2.471c2.754,1.837,5.888,2.21,8.286,4.609A5.7,5.7,0,0,1,12.6,12.652L8.662,16.594a5.706,5.706,0,0,1-5.573-1.456Zm24.994-3.966c1.311-1.311-.916-2.753,1.837-5.509l.831-.829,8.218,8.218-.831.832A3.987,3.987,0,0,1,34.416,15.3a1.915,1.915,0,0,0-1.788.414Zm3.6-7.268L35.2.384a1.318,1.318,0,0,1,1.861,0l6.359,6.359a1.316,1.316,0,0,1,0,1.859L39.9,12.121Z" transform="translate(92.954 253.905)" fill="url(#linear-gradient)"/>
        <path id="パス_2023" data-name="パス 2023" d="M1.108,36.082A.983.983,0,0,1,.052,34.85l2.371-6.46a1.1,1.1,0,0,1,1.057-.665H41.4a1.1,1.1,0,0,1,1.057.665l2.372,6.46a.982.982,0,0,1-1.056,1.232ZM4.184,25.651A1.464,1.464,0,0,1,2.72,24.187V1.462A1.461,1.461,0,0,1,4.184,0H40.8a1.462,1.462,0,0,1,1.463,1.462V24.187A1.464,1.464,0,0,1,40.8,25.651ZM6.36,22.145H38.623V3.5H6.36Z" transform="translate(26.987 151.206)" fill="url(#linear-gradient)"/>
        <path id="パス_2024" data-name="パス 2024" d="M20.322,33.537,27.942-.807h3.966L24.322,33.537Zm14.1-15.31,6.724-2.172,5.379-1.862v-.138L41.15,12.193,34.425,10.02V4.985L52.736,12.02v4.207L34.425,23.262Zm-34.276-2V12.02L18.46,4.985V10.02l-6.724,2.172L6.356,14.055v.138l5.379,1.862,6.724,2.172v5.034Z" transform="translate(266.003 153.512)" fill="url(#linear-gradient)"/>
        <path id="パス_2025" data-name="パス 2025" d="M.375,26.434C-1.872,16.218,6.211,4.927,18.431,1.215,28.142-1.736,37.765.833,42.121,7.357c2.425,3.633.73,7.509-7.507,8.236-6.626.585-5.732,8.5.727,8.237,6.057-.243,5.6,4.452,4.3,5.968a28.055,28.055,0,0,1-13.067,8.411,26.864,26.864,0,0,1-7.8,1.189C9.7,39.4,2.134,34.43.375,26.434Zm23.414.727a3.876,3.876,0,1,0,2.74-1.135A3.9,3.9,0,0,0,23.789,27.161Zm-16.81-.827a2.615,2.615,0,1,0,1.9-.818A2.614,2.614,0,0,0,6.979,26.334ZM5.5,17.232a2.758,2.758,0,1,0,2.62-1.893A2.762,2.762,0,0,0,5.5,17.232Zm7.16-9.412h0a2.906,2.906,0,1,0,1.694-.547A2.908,2.908,0,0,0,12.658,7.822ZM32.517,6.736A3.2,3.2,0,1,0,34.779,5.8,3.218,3.218,0,0,0,32.517,6.736ZM23.781,3.642a3.05,3.05,0,1,0,.355-.021A3.089,3.089,0,0,0,23.781,3.642Z" transform="translate(209.897 38.011)" fill="url(#linear-gradient)"/>
        <path id="パス_2026" data-name="パス 2026" d="M20.272,37.986a13.526,13.526,0,0,1,1.094-3.512L17.65,30.717,13.5,34.768a1.946,1.946,0,0,1,.2.858,1.972,1.972,0,1,1-1.972-1.972c.047,0,.091.011.138.014l4.514-4.559V26.3h2.427V29h.077l-.038.052h.038L22.367,32.7A13.634,13.634,0,0,1,47.16,37.986Zm13.1-12.29H0V22.661h1.82V3.852H0V.818H15.78V-1h3.641V.818H35.2V3.852h-1.82V8.335c.113,0,.226-.007.34-.007a7.774,7.774,0,0,1,1.48,15.4V25.7ZM4.251,22.661h25.3A7.81,7.81,0,0,1,27.309,20.5v.389H22.455V6.934h4.854V11.7a7.794,7.794,0,0,1,3.641-2.865V3.852H4.251ZM15.173,20.89V9.968h4.854V20.89Zm-7.282,0V13h4.854V20.89Z" transform="translate(208.397 257.157)" fill="url(#linear-gradient)"/>
        <path id="パス_2027" data-name="パス 2027" d="M-40.271-8.421a.479.479,0,0,1,.478-.478.477.477,0,0,1,.47.478.475.475,0,0,1-.47.47A.477.477,0,0,1-40.271-8.421Zm-.511,0a.913.913,0,0,0,.016.157,3.558,3.558,0,0,1-.47.033h-3.818a9.182,9.182,0,0,1-.981-.066v1.163c.206-.016.6-.033.981-.033h3.834a5.182,5.182,0,0,1-.965,2.325A5.406,5.406,0,0,1-45.417-2.9l.9.99A6.623,6.623,0,0,0-41.2-4.2a8.324,8.324,0,0,0,1.237-3c.025-.074.041-.157.066-.247a.47.47,0,0,0,.107.008.989.989,0,0,0,.981-.981.991.991,0,0,0-.981-.99A.992.992,0,0,0-40.782-8.421Zm3.323,5.714.783.676a2.128,2.128,0,0,1,.487-.223,10.333,10.333,0,0,0,4.783-2.969l-.585-.932a9.449,9.449,0,0,1-4.238,2.729V-7.712a6.031,6.031,0,0,1,.082-.94h-1.295a5.268,5.268,0,0,1,.091.94v4.469A1.077,1.077,0,0,1-37.459-2.707Zm12.608-6.415-.66.272A10.5,10.5,0,0,1-24.859-7.7l.66-.289C-24.356-8.3-24.645-8.817-24.851-9.122Zm.973-.371-.651.272a9.621,9.621,0,0,1,.66,1.13l.66-.28A12.9,12.9,0,0,0-23.878-9.493Zm-5.145,6.176c0,.973.272,1.427,2.144,1.427a19.41,19.41,0,0,0,2.564-.181l.033-1.113a14.243,14.243,0,0,1-2.606.272c-.9,0-1.047-.181-1.047-.693V-5.791c1.163-.231,2.276-.454,2.532-.5a7.1,7.1,0,0,1-1.311,1.666l.907.536a11.6,11.6,0,0,0,1.707-2.4c.074-.148.19-.33.264-.445l-.792-.618a2.414,2.414,0,0,1-.585.2c-.371.082-1.526.322-2.721.544v-.965a6.807,6.807,0,0,1,.074-.948H-29.09a6.941,6.941,0,0,1,.066.948v1.171c-.816.148-1.542.272-1.938.322l.206,1.08c.346-.082,1-.214,1.732-.363Zm7.611-5.327-.775.825a17.145,17.145,0,0,1,2.061,1.781l.841-.858A16.654,16.654,0,0,0-21.413-8.644Zm-1.031,5.492.693,1.088a8.93,8.93,0,0,0,3.059-1.163A8.768,8.768,0,0,0-15.64-6.277l-.643-1.163a7.764,7.764,0,0,1-3,3.208A8.5,8.5,0,0,1-22.443-3.152Zm8.535-5.55v1.064c.256-.016.6-.033.891-.033h3.307c.289,0,.61.016.891.033V-8.7a6.46,6.46,0,0,1-.891.058h-3.315A6.342,6.342,0,0,1-13.909-8.7Zm-.957,2.111v1.08c.231-.016.544-.033.792-.033h2.268a3.544,3.544,0,0,1-.511,1.822A3.425,3.425,0,0,1-13.81-2.542l.965.7a3.957,3.957,0,0,0,1.657-1.583,5.231,5.231,0,0,0,.528-2.119h1.987c.231,0,.544.008.75.025V-6.59a6.236,6.236,0,0,1-.75.049h-5.4C-14.329-6.541-14.618-6.566-14.865-6.59Zm7.891.4V-4.9c.305-.025.858-.041,1.328-.041h4.428c.346,0,.767.033.965.041V-6.195c-.214.016-.577.049-.965.049H-5.646C-6.075-6.145-6.677-6.17-6.974-6.195ZM2.484-8.908,1.882-8c.544.305,1.4.866,1.864,1.187l.618-.915C3.935-8.025,3.028-8.611,2.484-8.908ZM.95-3.053l.618,1.088A10.034,10.034,0,0,0,4.323-2.987,9.957,9.957,0,0,0,7.6-5.947L6.97-7.069A8.406,8.406,0,0,1,3.762-3.976,8.935,8.935,0,0,1,.95-3.053Zm.264-3.975-.6.915c.552.289,1.41.849,1.88,1.171l.6-.924C2.674-6.162,1.767-6.731,1.214-7.027Zm8.312-.008v1c.2-.016.717-.033,1.022-.033H13.27v1h-2.63c-.313,0-.684-.008-.9-.025v.973c.19-.008.585-.016.9-.016h2.63v1.1H10.153a7.075,7.075,0,0,1-.717-.033v1.014c.14-.008.478-.025.709-.025H13.27c0,.124,0,.256-.008.33H14.3c0-.148-.008-.429-.008-.561V-6.458c0-.173,0-.445.008-.552-.132.008-.437.016-.635.016H10.549C10.244-6.994,9.741-7.011,9.526-7.036Zm8.065-1.608-.775.825a17.145,17.145,0,0,1,2.061,1.781l.841-.858A16.654,16.654,0,0,0,17.591-8.644ZM16.56-3.152l.693,1.088a8.93,8.93,0,0,0,3.059-1.163,8.768,8.768,0,0,0,3.051-3.051L22.72-7.44a7.764,7.764,0,0,1-3,3.208A8.5,8.5,0,0,1,16.56-3.152Z" transform="translate(243.162 310.256)"/>
        <path id="パス_2028" data-name="パス 2028" d="M-20.383-5.441l.519,1.039A16.523,16.523,0,0,0-16.953-5.59v2.639a9.234,9.234,0,0,1-.058,1.08h1.3a5.669,5.669,0,0,1-.074-1.08V-6.282a15.125,15.125,0,0,0,2.218-1.789l-.891-.849a10.572,10.572,0,0,1-2.325,2A13.26,13.26,0,0,1-20.383-5.441Zm9.161-3.117v1.064c.239-.016.594-.025.858-.025h3.158c.3,0,.684.008.907.025V-8.558a7.774,7.774,0,0,1-.891.041h-3.175A6.951,6.951,0,0,1-11.222-8.558Zm5.615,2.391L-6.34-6.62a1.739,1.739,0,0,1-.6.082h-4.082c-.256,0-.61-.025-.957-.049v1.072c.346-.033.759-.041.957-.041h3.983A3.577,3.577,0,0,1-7.89-4.13a5.562,5.562,0,0,1-2.853,1.443l.816.932A6.175,6.175,0,0,0-6.983-3.536a5.926,5.926,0,0,0,1.22-2.284A3.055,3.055,0,0,1-5.606-6.167ZM1.485-7.824l-.676-.5A2.955,2.955,0,0,1-.04-8.22H-2.951a9.213,9.213,0,0,1-.973-.058v1.171c.173-.008.627-.058.973-.058h2.8a6.389,6.389,0,0,1-1.229,2.02A9.244,9.244,0,0,1-4.765-2.778l.849.891A10.862,10.862,0,0,0-.815-4.2,18.8,18.8,0,0,1,1.263-1.871l.94-.816A23.181,23.181,0,0,0-.1-5.045,12.124,12.124,0,0,0,1.2-7.313,3.9,3.9,0,0,1,1.485-7.824Zm3.546,4.8a9.057,9.057,0,0,1-.082,1.154H6.235c-.033-.338-.074-.915-.074-1.154V-5.359A23.818,23.818,0,0,1,9.138-4.13l.47-1.138A26.932,26.932,0,0,0,6.161-6.546v-1.22a8.966,8.966,0,0,1,.074-.99H4.949a5.724,5.724,0,0,1,.082.99Z" transform="translate(119.797 310.112)"/>
        <path id="パス_2029" data-name="パス 2029" d="M-20.251-8.619v1.064c.247-.016.6-.025.882-.025h2.7c.289,0,.61.008.891.025V-8.619a6.473,6.473,0,0,1-.891.066h-2.7A6.17,6.17,0,0,1-20.251-8.619Zm-.957,2.111v1.08c.231-.016.552-.033.792-.033h2.268a3.544,3.544,0,0,1-.511,1.822,3.367,3.367,0,0,1-1.493,1.179l.965.7A3.908,3.908,0,0,0-17.53-3.342,5.231,5.231,0,0,0-17-5.461h1.987c.231,0,.544.008.75.025V-6.508a6.236,6.236,0,0,1-.75.049h-5.4A6.278,6.278,0,0,1-21.208-6.508Zm5.921-2.68-.66.272A10.5,10.5,0,0,1-15.3-7.77l.66-.289C-14.793-8.363-15.081-8.883-15.287-9.188Zm.973-.371-.651.272a9.728,9.728,0,0,1,.66,1.138l.66-.289A12.9,12.9,0,0,0-14.314-9.559Zm7.5.75-.552.181A10.919,10.919,0,0,1-6.951-7.5l.569-.181A8.361,8.361,0,0,0-6.819-8.809Zm.849-.264-.561.181A7.385,7.385,0,0,1-6.085-7.77l.569-.181C-5.623-8.264-5.813-8.743-5.969-9.072ZM-7.528-5.914v-.272h.618c.429,0,.717.008.9.025v-1.1a4.886,4.886,0,0,1-.907.058h-.61v-.866a5.3,5.3,0,0,1,.058-.767H-8.649a5.442,5.442,0,0,1,.049.767V-7.2h-1.954v-.808a6.576,6.576,0,0,1,.049-.75h-1.171c.025.256.049.5.049.742V-7.2h-.7a5.452,5.452,0,0,1-.891-.074v1.121c.181-.008.478-.033.891-.033h.7v1.121a6.669,6.669,0,0,1-.049.866h1.154c-.008-.165-.033-.495-.033-.866V-6.186H-8.6v.313c0,2.029-.7,2.738-2.292,3.3l.882.833C-8.014-2.624-7.528-3.869-7.528-5.914ZM-4.8-5.6l.519,1.039A16.523,16.523,0,0,0-1.368-5.749v2.639a9.235,9.235,0,0,1-.058,1.08h1.3A5.669,5.669,0,0,1-.2-3.111V-6.442A15.125,15.125,0,0,0,2.021-8.231L1.13-9.081a10.572,10.572,0,0,1-2.325,2A13.26,13.26,0,0,1-4.8-5.6ZM4.923-8.66l-.775.825A17.145,17.145,0,0,1,6.21-6.054l.841-.858A16.654,16.654,0,0,0,4.923-8.66ZM3.893-3.168,4.585-2.08A8.93,8.93,0,0,0,7.645-3.243,8.768,8.768,0,0,0,10.7-6.294l-.643-1.163a7.764,7.764,0,0,1-3,3.208A8.5,8.5,0,0,1,3.893-3.168Z" transform="translate(236.946 92.879)"/>
        <path id="パス_2030" data-name="パス 2030" d="M-23.907-9.361A9.092,9.092,0,0,1-27.28-6.269a4.132,4.132,0,0,1,.618.792,10.216,10.216,0,0,0,3.3-2.919A11.038,11.038,0,0,0-20-5.485a5.347,5.347,0,0,1,.66-.882A8.767,8.767,0,0,1-22.9-9.361Zm1.146,4.972h2.21v-.866h-2.21V-7.019h-1.031v4.28h-1.171V-5.6h-.965v2.861h-.9v.891h7.017v-.891h-2.952Zm10.184,1.352h-4.981V-7.374h-.957v5.747h.957v-.487h4.981v.478h.948V-7.374h-.948Zm-1.385-2.729h-.717v-.693h.717Zm0,1.443h-.717v-.7h.717Zm-2.276-.7h.717v.7h-.717Zm0-1.435h.717v.693h-.717Zm-2.523-2.375v.915H-15.6v.66h-1.443v3.735h3.925V-7.258h-1.5v-.66h3.232v-.915Zm11.932,2.3A1.063,1.063,0,0,0-7.886-5.477,1.063,1.063,0,0,0-6.83-4.422,1.063,1.063,0,0,0-5.775-5.477,1.063,1.063,0,0,0-6.83-6.533Zm10.225,3.8H-.472v-.717H3.395ZM.2-6.087H2.645v.577H.2Zm3.4,1.295v-2.02h-4.3v2.02h1.5c-.033.165-.082.338-.124.5H-1.4v2.68h.932v-.272H3.395v.272h.973V-4.29H1.639c.074-.157.148-.322.214-.5ZM3.807-8.05c.231-.272.478-.6.717-.915L3.469-9.3A6.167,6.167,0,0,1,2.735-8.05H1.383l.577-.214a5.548,5.548,0,0,0-.627-1.088l-.858.289A6.732,6.732,0,0,1,1.012-8.05H-.258l.264-.115A5.324,5.324,0,0,0-.728-9.221l-.849.371a6.508,6.508,0,0,1,.544.8H-2.039v1.756h.9v-.924H4.013v.924h.948V-8.05Zm6.869.866c-.091.223-.19.462-.289.66H8.846l.14-.025a4.43,4.43,0,0,0-.28-.635ZM13.34-3.506v-.808H10.132v-.363h2.474v-.709H10.132v-.371h2.861v-.767H11.377c.124-.2.256-.421.388-.66h1.55v-.8H12.243c.19-.289.412-.66.643-1.039L11.855-9.27a6.642,6.642,0,0,1-.519,1.2l.3.091H10.9V-9.328H9.975v1.344h-.61V-9.328H8.45v1.344H7.7l.4-.148A6.24,6.24,0,0,0,7.477-9.3l-.841.289a7.392,7.392,0,0,1,.511,1.022h-1.1v.8H7.765l-.1.016a3.705,3.705,0,0,1,.28.643H6.38v.767H9.167v.371H6.792v.709H9.167v.363H6.017v.808H8.384a8.663,8.663,0,0,1-2.606.965,4.574,4.574,0,0,1,.627.816A7.822,7.822,0,0,0,9.167-3.061v1.435h.965V-3.111A7.039,7.039,0,0,0,12.9-1.717a4.613,4.613,0,0,1,.66-.891,7.367,7.367,0,0,1-2.614-.9Z" transform="translate(120.774 92.829)"/>
        <path id="パス_2031" data-name="パス 2031" d="M-31.581-8.424A.479.479,0,0,1-31.1-8.9a.477.477,0,0,1,.47.478.475.475,0,0,1-.47.47A.477.477,0,0,1-31.581-8.424Zm-.511,0a.914.914,0,0,0,.016.157,3.558,3.558,0,0,1-.47.033h-3.818a9.182,9.182,0,0,1-.981-.066v1.163c.206-.016.6-.033.981-.033h3.834a5.182,5.182,0,0,1-.965,2.325,5.406,5.406,0,0,1-3.232,1.938l.9.99A6.623,6.623,0,0,0-32.513-4.2a8.324,8.324,0,0,0,1.237-3c.025-.074.041-.157.066-.247a.47.47,0,0,0,.107.008.989.989,0,0,0,.981-.981.991.991,0,0,0-.981-.99A.992.992,0,0,0-32.092-8.424Zm3.166.2c.016.231.016.569.016.8v4.032c0,.4-.025,1.113-.025,1.154H-27.8c0-.025,0-.214-.008-.445h3.975c0,.239-.008.429-.008.445H-22.7c0-.033-.016-.825-.016-1.146V-7.426c0-.247,0-.552.016-.8-.3.016-.61.016-.816.016h-4.535C-28.274-8.209-28.588-8.218-28.926-8.226ZM-27.8-7.162h3.983V-3.74H-27.8ZM-15.3-9.133l-.651.264a9.562,9.562,0,0,1,.6,1.064l-.058-.033a2.6,2.6,0,0,1-.717.1h-1.649c.008-.016.016-.025.025-.041a8.555,8.555,0,0,1,.5-.841l-1.212-.4a3.731,3.731,0,0,1-.371.858A7.131,7.131,0,0,1-21.4-5.5l.924.693a9.265,9.265,0,0,0,2.086-2h2.317a5.833,5.833,0,0,1-1.171,2.243A6.6,6.6,0,0,1-20.564-2.52l.973.874a7.68,7.68,0,0,0,3.323-2.334,8.372,8.372,0,0,0,1.443-2.746,3.3,3.3,0,0,1,.272-.594l-.7-.429.61-.256A10.482,10.482,0,0,0-15.3-9.133Zm.973-.371-.651.264A8.742,8.742,0,0,1-14.306-8.1l.651-.28A11.773,11.773,0,0,0-14.322-9.5Zm2.688.8V-7.64c.239-.016.594-.025.858-.025h3.158c.3,0,.684.008.907.025V-8.7a7.774,7.774,0,0,1-.891.041h-3.175A6.951,6.951,0,0,1-11.634-8.7Zm5.615,2.391-.734-.454a1.739,1.739,0,0,1-.6.082h-4.082c-.256,0-.61-.025-.957-.049v1.072c.346-.033.759-.041.957-.041h3.983A3.577,3.577,0,0,1-8.3-4.276a5.562,5.562,0,0,1-2.853,1.443l.816.932A6.175,6.175,0,0,0-7.4-3.682a5.926,5.926,0,0,0,1.22-2.284A3.055,3.055,0,0,1-6.019-6.313Zm3.142-2.523-.388.973A28.289,28.289,0,0,1,1.2-6.832l.421-1.031A30.113,30.113,0,0,0-2.877-8.836Zm-.379,2.218-.379,1A28.669,28.669,0,0,1,.652-4.581l.4-1.031A33.993,33.993,0,0,0-3.256-6.618ZM-3.677-4.26l-.412,1.039A29.419,29.419,0,0,1,.949-1.992L1.4-3.023A35.239,35.239,0,0,0-3.677-4.26ZM5.006-8.646l-.775.825A17.145,17.145,0,0,1,6.293-6.041L7.134-6.9A16.654,16.654,0,0,0,5.006-8.646ZM3.975-3.155l.693,1.088A8.93,8.93,0,0,0,7.727-3.229,8.768,8.768,0,0,0,10.778-6.28l-.643-1.163a7.764,7.764,0,0,1-3,3.208A8.5,8.5,0,0,1,3.975-3.155ZM17.689-9.133l-.651.264a9.562,9.562,0,0,1,.6,1.064l-.058-.033a2.6,2.6,0,0,1-.717.1H15.215c.008-.016.016-.025.025-.041a8.555,8.555,0,0,1,.5-.841l-1.212-.4a3.731,3.731,0,0,1-.371.858A7.131,7.131,0,0,1,11.587-5.5l.924.693a9.265,9.265,0,0,0,2.086-2h2.317a5.833,5.833,0,0,1-1.171,2.243A6.6,6.6,0,0,1,12.419-2.52l.973.874a7.68,7.68,0,0,0,3.323-2.334,8.372,8.372,0,0,0,1.443-2.746,3.3,3.3,0,0,1,.272-.594l-.7-.429L18.34-8A10.482,10.482,0,0,0,17.689-9.133Zm.973-.371-.651.264A8.742,8.742,0,0,1,18.678-8.1l.651-.28A11.774,11.774,0,0,0,18.662-9.5Z" transform="translate(58.076 202.506)"/>
        <path id="パス_2032" data-name="パス 2032" d="M-30.924-8.248V-7.1c.231-.016.676-.033,1.022-.033h3.7v3.414H-30c-.371,0-.742-.025-1.031-.049v1.179c.272-.025.742-.049,1.064-.049h3.76c0,.157,0,.3-.008.429h1.2c-.016-.247-.033-.684-.033-.973V-7.456c0-.239.016-.569.025-.759-.14.008-.487.016-.726.016H-29.91C-30.19-8.2-30.619-8.215-30.924-8.248Zm7.71,2.037v1.295c.305-.025.858-.041,1.328-.041h4.428c.346,0,.767.033.965.041V-6.211c-.214.016-.577.049-.965.049h-4.428C-22.315-6.162-22.917-6.186-23.214-6.211Zm9.038-2.408v1.064c.247-.016.6-.025.882-.025h2.7c.289,0,.61.008.891.025V-8.619a6.473,6.473,0,0,1-.891.066h-2.7A6.17,6.17,0,0,1-14.176-8.619Zm-.957,2.111v1.08c.231-.016.552-.033.792-.033h2.268a3.544,3.544,0,0,1-.511,1.822,3.367,3.367,0,0,1-1.493,1.179l.965.7a3.908,3.908,0,0,0,1.657-1.583,5.231,5.231,0,0,0,.528-2.119H-8.94c.231,0,.544.008.75.025V-6.508a6.236,6.236,0,0,1-.75.049h-5.4A6.278,6.278,0,0,1-15.133-6.508Zm5.921-2.68-.66.272A10.5,10.5,0,0,1-9.22-7.77l.66-.289C-8.717-8.363-9.006-8.883-9.212-9.188Zm.973-.371-.651.272a9.729,9.729,0,0,1,.66,1.138l.66-.289A12.9,12.9,0,0,0-8.239-9.559Zm1.064,4.816.487.973a17.2,17.2,0,0,0,2.367-.965v2.177c0,.289-.025.726-.041.891h1.22A4.591,4.591,0,0,1-3.2-2.558V-5.387a10.809,10.809,0,0,0,1.847-1.5l-.816-.8A8.591,8.591,0,0,1-4.223-5.923,10.888,10.888,0,0,1-7.175-4.743ZM2.175-8.66,1.4-7.836A17.145,17.145,0,0,1,3.462-6.054L4.3-6.912A16.654,16.654,0,0,0,2.175-8.66ZM1.145-3.168,1.837-2.08A8.93,8.93,0,0,0,4.9-3.243,8.768,8.768,0,0,0,7.948-6.294L7.3-7.456a7.764,7.764,0,0,1-3,3.208A8.5,8.5,0,0,1,1.145-3.168ZM14.858-9.147l-.651.264a9.562,9.562,0,0,1,.6,1.064l-.058-.033a2.6,2.6,0,0,1-.717.1H12.384c.008-.016.016-.025.025-.041a8.555,8.555,0,0,1,.5-.841l-1.212-.4a3.731,3.731,0,0,1-.371.858A7.131,7.131,0,0,1,8.756-5.518l.924.693a9.265,9.265,0,0,0,2.086-2h2.317a5.833,5.833,0,0,1-1.171,2.243A6.6,6.6,0,0,1,9.589-2.533l.973.874a7.68,7.68,0,0,0,3.323-2.334,8.372,8.372,0,0,0,1.443-2.746,3.3,3.3,0,0,1,.272-.594l-.7-.429.61-.256A10.482,10.482,0,0,0,14.858-9.147Zm.973-.371-.651.264a8.743,8.743,0,0,1,.668,1.138L16.5-8.4A11.774,11.774,0,0,0,15.831-9.518Z" transform="translate(301.278 202.52)"/>
      </g>
    </g>
  </g>
</svg>
