<svg xmlns="http://www.w3.org/2000/svg" xmlns:xlink="http://www.w3.org/1999/xlink" width="552.858" height="485.794" viewBox="0 0 552.858 485.794">
  <defs>
    <clipPath id="clip-path">
      <path id="パス_907" data-name="パス 907" d="M317.171,528.392q6.116.175,12.3.029l-.472-21.3q-5.614.136-11.181-.023Zm22.99-21.824,1.587,21.239q6.1-.465,12.232-1.252l-2.7-21.135q-5.572.726-11.12,1.148m-47.5,19.826q6.075.814,12.228,1.323l1.755-21.228q-5.591-.459-11.117-1.205Zm69.664-22.687,3.8,20.958q6.081-1.1,12.033-2.512l-4.889-20.734q-5.414,1.282-10.943,2.288M268.5,521.828q5.963,1.459,12.024,2.6l3.961-20.93q-5.5-1.04-10.93-2.36ZM384.077,498.57l5.972,20.445q5.923-1.732,11.7-3.764l-7.031-20.1q-5.258,1.843-10.645,3.422M244.963,514.737c3.853,1.383,7.745,2.679,11.675,3.858l6.13-20.393q-5.365-1.62-10.616-3.513Zm160.2-23.571,8.077,19.714q5.7-2.346,11.242-4.973l-9.1-19.261q-5.034,2.381-10.222,4.519M222.294,505.214q5.537,2.669,11.21,5.053l8.227-19.638q-5.166-2.166-10.194-4.6Zm203.054-23.626,10.093,18.759q5.42-2.928,10.653-6.125l-11.057-18.205q-4.755,2.91-9.689,5.572m19.066-11.639,12,17.6q5.076-3.476,9.953-7.2l-12.9-16.951q-4.429,3.39-9.051,6.553m17.74-13.568,13.768,16.249q4.679-3.99,9.132-8.213l-14.594-15.5q-4.053,3.842-8.305,7.469m-63.377-44.292,6.7,10.653q3.384-2.146,6.627-4.463L404.857,408c-1.988,1.41-4.01,2.781-6.081,4.092m11.935-8.491,7.776,9.893q3.138-2.486,6.126-5.124l-8.28-9.465c-1.832,1.612-3.7,3.183-5.623,4.7m10.988-9.681,8.769,9.022q2.855-2.791,5.554-5.721l-9.221-8.553q-2.48,2.693-5.1,5.252m9.922-10.758,9.659,8.053q2.557-3.066,4.941-6.266l-10.066-7.534q-2.184,2.928-4.533,5.747m8.766-11.722,10.449,7c1.482-2.211,2.91-4.452,4.272-6.742l-10.8-6.442c-1.249,2.1-2.566,4.156-3.919,6.18m7.513-12.554,11.125,5.869q1.863-3.525,3.537-7.15l-11.421-5.285q-1.54,3.322-3.241,6.566m6.13-13.286,11.684,4.675q1.479-3.7,2.767-7.483l-11.907-4.058c-.792,2.311-1.631,4.6-2.544,6.866m4.722-13.853,12.107,3.431q1.088-3.829,1.973-7.733l-12.269-2.79q-.816,3.573-1.811,7.093M462,317.471l12.4,2.148q.68-3.922,1.154-7.9l-12.5-1.5q-.43,3.652-1.056,7.243m1.736-14.528,12.553.837c.176-2.642.289-5.3.322-7.97l-12.583-.18Zm-44.881-27.8c.2,1.02.4,2.032.57,3.061A96.368,96.368,0,0,1,300,386.665q-.773,3.03-1.555,6.1A102.665,102.665,0,0,0,425.639,277.214c-.174-1.094-.4-2.169-.6-3.254-2.076.4-4.136.79-6.18,1.181m22.1-21a123.243,123.243,0,0,1,4.9,19.861c.38,2.375.664,4.748.9,7.121l27.136-2.709c-.3-2.9-.645-5.792-1.1-8.7a150.841,150.841,0,0,0-6-24.287c-8.622,2.9-17.277,5.821-25.843,8.713M153.078,320.855a172.635,172.635,0,0,1,8.707-87.4c1.039.393,37.235,14.08,38.206,14.445a131.8,131.8,0,0,0-6.58,66.541,133.4,133.4,0,0,0,6.354,24.543c-.981.365-37.29,13.773-38.321,14.152a174.957,174.957,0,0,1-8.366-32.278m7.841-88.327a173.741,173.741,0,0,0-8.945,88.505,175.9,175.9,0,0,0,8.6,33.015l.192.527,40.42-14.924-.194-.524a132.217,132.217,0,0,1-6.482-24.865,130.717,130.717,0,0,1,6.7-66.5l.2-.521L161.118,232ZM258.991,304a65.775,65.775,0,1,1,64.955,55.473h0A65.907,65.907,0,0,1,258.991,304m54.3-77.543a68.01,68.01,0,1,0,10.732-.85,68.127,68.127,0,0,0-10.732.85m-80.284,81.41a92.478,92.478,0,0,0,96.022,77.707l-.769-14.669A77.621,77.621,0,0,1,272.022,235.9l-9.868-10.864a92.319,92.319,0,0,0-29.147,82.834m78.84-90.5a76.8,76.8,0,0,0-28.612,10.665l1.647,2.659a74.112,74.112,0,0,1,112.3,51.317c.229,1.432.407,2.856.559,4.282l3.1-.307c-.151-1.486-.328-2.973-.567-4.466a77.2,77.2,0,0,0-88.424-64.15m-92.538,92.677a106.153,106.153,0,1,1,104.836,89.533,106.332,106.332,0,0,1-104.836-89.533m87.874-123.651a108.238,108.238,0,1,0,17.083-1.356,108.427,108.427,0,0,0-17.083,1.356M214.094,310.873a111.42,111.42,0,1,1,110.048,93.987,111.622,111.622,0,0,1-110.048-93.987m92.4-128.83a112.642,112.642,0,1,0,17.775-1.41,112.84,112.84,0,0,0-17.775,1.41M208.37,311.786a117.212,117.212,0,1,1,115.763,98.873h-.007A117.464,117.464,0,0,1,208.37,311.786m97.072-136.333a119.311,119.311,0,1,0,18.831-1.494,119.521,119.521,0,0,0-18.831,1.494m-4.882-30.683a149.591,149.591,0,0,0-55.729,20.776l14.386,23.168A122.491,122.491,0,0,1,304.846,171.7c58.017-9.232,113.145,23.866,133.894,76.375L464.078,238A150.3,150.3,0,0,0,300.561,144.77m52.2-49.665a199.926,199.926,0,0,1,30.575,6.93l3.086-10.021a210.014,210.014,0,0,0-32.171-7.291ZM306.708,83.258l.87,10.452a199.711,199.711,0,0,1,32.169-.075l.812-10.46q-8.1-.639-16.334-.642-8.7,0-17.517.724m-84.3,350.422c-1.213-.881-2.385-1.8-3.571-2.71l24.96-32.315c.861.658,1.71,1.328,2.59,1.966a131.32,131.32,0,0,0,98.374,23.61,133.434,133.434,0,0,0,24.936-6.5c.365.985,13.778,37.3,14.16,38.323A174.935,174.935,0,0,1,323.7,466.745h-.011A171.846,171.846,0,0,1,222.409,433.68M180.481,390.4c.914-.614,33.123-22.143,33.974-22.712a132.346,132.346,0,0,0,28.45,30.295c-5.074,6.572-14.282,18.492-24.957,32.315a172.9,172.9,0,0,1-37.467-39.9m-37.012-68.011a181.707,181.707,0,0,1,12.005-99.395q25.3,10.531,53,22.17A125.008,125.008,0,0,0,247.1,392.548l-3.511,4.546a131.051,131.051,0,0,1-28.539-30.482l-.312-.467-35.821,23.949.311.465a173.952,173.952,0,0,0,38.036,40.619L212,438a182.111,182.111,0,0,1-68.526-115.614m-6.554,1.041a188.277,188.277,0,0,1,12.429-102.987l4.195,1.747a184.51,184.51,0,0,0,57.175,217.473q-1.38,1.786-2.773,3.591a188.722,188.722,0,0,1-71.026-119.824M45.585,337.962A280.812,280.812,0,0,1,63.849,185.294q13.68,5.543,28.655,11.678a250.608,250.608,0,0,0-6.283,176.943l1.052-.354a249.543,249.543,0,0,1,6.26-176.168q17.1,7.005,35.777,14.735A210.7,210.7,0,0,0,158.7,424.937l8.215-6.518A200.238,200.238,0,0,1,139,216.143l6.475,2.688a193.25,193.25,0,0,0,59.905,227.738L151.448,516.4A280.644,280.644,0,0,1,45.585,337.962m430.394,31.661a169.619,169.619,0,0,0-52.229-213.5A173.588,173.588,0,0,0,402.59,143c.107-.208,2.386-4.622,5.863-11.361A182.538,182.538,0,0,1,487.4,375.389c-6.771-3.42-11.208-5.661-11.419-5.766M247.042,399.715c-.87-.632-1.71-1.3-2.562-1.945l4.181-5.414-.441-.344a123.967,123.967,0,0,1-38.514-146.938l.222-.517-.521-.219q-27.964-11.751-53.495-22.378a182.548,182.548,0,0,1,251.545-90.826l-6.362,12.33.494.256a172.322,172.322,0,0,1,21.5,13.311,168.54,168.54,0,0,1,51.658,212.594l-.252.5,12.392,6.257a182.544,182.544,0,0,1-274.013,62.3l5.278-6.833c1.2.914,2.376,1.844,3.6,2.73a173,173,0,0,0,129.605,31.083,175.919,175.919,0,0,0,33.419-8.745l.524-.2-14.936-40.42-.528.2a132.484,132.484,0,0,1-46.037,8.279h0a130.245,130.245,0,0,1-76.753-25.066M489.27,376.334a184.633,184.633,0,0,0-79.854-246.556c12.539-24.3,38.007-73.652,38.4-74.416A271.833,271.833,0,0,1,540.543,134.7a268.17,268.17,0,0,1,23.485,279.386c-.685-.345-41.143-20.773-66.975-33.819a193.249,193.249,0,0,0-59.9-243.589q-1.233,1.692-2.473,3.393a189.062,189.062,0,0,1,58.633,238.307l-4.041-2.041M284.557,45.83C196.034,59.915,125.644,118.959,92.94,195.942Q77.7,189.7,63.748,184.046l-.51-.207-.217.508A282.46,282.46,0,0,0,151.2,517.63l.443.34,54.615-70.713a193.691,193.691,0,0,0,104.21,39.57c.092-1.4.187-2.791.283-4.19a189.455,189.455,0,0,1-101.929-38.7l2.773-3.591a184.644,184.644,0,0,0,277.167-63.019l4.044,2.042a191.035,191.035,0,0,1-41.227,54.2l2.824,3.1a195.3,195.3,0,0,0,42.145-55.409l67.983,34.327.247-.494A269.3,269.3,0,0,0,541.44,134.033a272.9,272.9,0,0,0-93.6-79.935l-.495-.258L408.42,129.27a184.644,184.644,0,0,0-254.444,91.884c-1.4-.581-2.8-1.167-4.189-1.742A190.235,190.235,0,0,1,243.6,122.126l-1.786-3.8a194.448,194.448,0,0,0-95.9,99.475l-6.479-2.691a200.668,200.668,0,0,1,153.025-119.6q2.923-.467,5.842-.838l-1.357-10.4q-3.061.4-6.134.883A211.158,211.158,0,0,0,129.746,211.1q-18.677-7.731-35.777-14.737C126.531,119.727,196.606,60.95,284.729,46.927a248.387,248.387,0,0,1,101.542,4.808l.274-1.075A249.516,249.516,0,0,0,284.557,45.83" transform="translate(-40.959 -42.693)" fill="#8b99ab"/>
    </clipPath>
    <filter id="パス_1215" x="95.929" y="155.716" width="134.439" height="192.354" filterUnits="userSpaceOnUse">
      <feOffset input="SourceAlpha"/>
      <feGaussianBlur stdDeviation="5" result="blur"/>
      <feFlood flood-opacity="0.161"/>
      <feComposite operator="in" in2="blur"/>
      <feComposite in="SourceGraphic"/>
    </filter>
    <filter id="パス_1216" x="274.632" y="64.294" width="170.667" height="159.742" filterUnits="userSpaceOnUse">
      <feOffset input="SourceAlpha"/>
      <feGaussianBlur stdDeviation="5" result="blur-2"/>
      <feFlood flood-opacity="0.161"/>
      <feComposite operator="in" in2="blur-2"/>
      <feComposite in="SourceGraphic"/>
    </filter>
    <filter id="パス_1217" x="336.478" y="155.693" width="134.451" height="192.401" filterUnits="userSpaceOnUse">
      <feOffset input="SourceAlpha"/>
      <feGaussianBlur stdDeviation="5" result="blur-3"/>
      <feFlood flood-opacity="0.161"/>
      <feComposite operator="in" in2="blur-3"/>
      <feComposite in="SourceGraphic"/>
    </filter>
    <filter id="パス_1218" x="274.632" y="279.736" width="170.55" height="159.558" filterUnits="userSpaceOnUse">
      <feOffset input="SourceAlpha"/>
      <feGaussianBlur stdDeviation="5" result="blur-4"/>
      <feFlood flood-opacity="0.161"/>
      <feComposite operator="in" in2="blur-4"/>
      <feComposite in="SourceGraphic"/>
    </filter>
    <filter id="パス_1219" x="121.546" y="64.294" width="170.68" height="159.764" filterUnits="userSpaceOnUse">
      <feOffset input="SourceAlpha"/>
      <feGaussianBlur stdDeviation="5" result="blur-5"/>
      <feFlood flood-opacity="0.161"/>
      <feComposite operator="in" in2="blur-5"/>
      <feComposite in="SourceGraphic"/>
    </filter>
    <filter id="パス_1220" x="121.663" y="279.714" width="170.564" height="159.581" filterUnits="userSpaceOnUse">
      <feOffset input="SourceAlpha"/>
      <feGaussianBlur stdDeviation="5" result="blur-6"/>
      <feFlood flood-opacity="0.161"/>
      <feComposite operator="in" in2="blur-6"/>
      <feComposite in="SourceGraphic"/>
    </filter>
    <linearGradient id="linear-gradient" y1="1" x2="1" gradientUnits="objectBoundingBox">
      <stop offset="0" stop-color="#000046"/>
      <stop offset="1" stop-color="#1cb5e0"/>
    </linearGradient>
    <linearGradient id="linear-gradient-4" x1="-0.18" y1="1" x2="1" y2="0.107" xlink:href="#linear-gradient"/>
  </defs>
  <g id="グループ_2644" data-name="グループ 2644" transform="translate(95.929 -3539.471)">
    <g id="グループ_2642" data-name="グループ 2642" transform="translate(-136.889 3496.778)" opacity="0.121">
      <g id="グループ_1645" data-name="グループ 1645" transform="translate(40.959 42.693)" clip-path="url(#clip-path)">
        <rect id="長方形_2512" data-name="長方形 2512" width="705.672" height="732.56" transform="matrix(0.508, -0.861, 0.861, 0.508, -217.892, 360.179)" fill="#8b99ab"/>
      </g>
    </g>
    <g id="グループ_2641" data-name="グループ 2641" transform="translate(-5696.774 -482.623)">
      <g id="グループ_2639" data-name="グループ 2639" transform="translate(5711.774 4101.389)">
        <g id="グループ_2635" data-name="グループ 2635">
          <g transform="matrix(1, 0, 0, 1, -110.93, -79.29)" filter="url(#パス_1215)">
            <path id="パス_1215-2" data-name="パス 1215" d="M96.88,497.7a74.4,74.4,0,0,1,7.461-32.576l-84.01-48.5a171.837,171.837,0,0,0,.1,162.354l84-48.5A74.393,74.393,0,0,1,96.88,497.7" transform="translate(110.93 -245.91)" fill="#fff"/>
          </g>
          <g transform="matrix(1, 0, 0, 1, -110.93, -79.29)" filter="url(#パス_1216)">
            <path id="パス_1216-2" data-name="パス 1216" d="M814.937,96.987A74.644,74.644,0,0,1,871.6,129.744l84-48.5A171.482,171.482,0,0,0,814.937,0Z" transform="translate(-525.3 79.29)" fill="#fff"/>
          </g>
          <g transform="matrix(1, 0, 0, 1, -110.93, -79.29)" filter="url(#パス_1217)">
            <path id="パス_1217-2" data-name="パス 1217" d="M1107.474,497.617a74.4,74.4,0,0,1-7.571,32.8l84,48.5a171.838,171.838,0,0,0,.1-162.4L1100,465.017a74.4,74.4,0,0,1,7.472,32.6" transform="translate(-748.42 -245.82)" fill="#fff"/>
          </g>
          <g transform="matrix(1, 0, 0, 1, -110.93, -79.29)" filter="url(#パス_1218)">
            <path id="パス_1218-2" data-name="パス 1218" d="M871.477,983.453a74.641,74.641,0,0,1-56.54,32.574v96.985a171.481,171.481,0,0,0,140.55-81.055Z" transform="translate(-525.3 -688.72)" fill="#fff"/>
          </g>
          <g transform="matrix(1, 0, 0, 1, -110.93, -79.29)" filter="url(#パス_1219)">
            <path id="パス_1219-2" data-name="パス 1219" d="M202.031,129.767a74.645,74.645,0,0,1,56.681-32.779V0A171.481,171.481,0,0,0,118.031,81.27Z" transform="translate(18.52 79.29)" fill="#fff"/>
          </g>
          <g transform="matrix(1, 0, 0, 1, -110.93, -79.29)" filter="url(#パス_1220)">
            <path id="パス_1220-2" data-name="パス 1220" d="M259.132,1015.946a74.64,74.64,0,0,1-56.555-32.6l-84.009,48.5a171.48,171.48,0,0,0,140.564,81.078Z" transform="translate(18.1 -688.64)" fill="#fff"/>
          </g>
          <path id="パス_1929" data-name="パス 1929" d="M-29.479-21.04h-5.655v-1.087h5.655Zm0,2.828h-5.655v-1.131h5.655Zm2.61-5.72H-37.635v7.526h10.766Zm-14.507-.609A15.514,15.514,0,0,1-45.9-20.278a16.049,16.049,0,0,1,1.283,2.2,23.028,23.028,0,0,0,5.7-5.459Zm.566,4.742a19.524,19.524,0,0,1-5.329,5.59,19.3,19.3,0,0,1,1.24,2.675A20.432,20.432,0,0,0-42.942-13.3V-4.27h2.5V-16.08a22.967,22.967,0,0,0,1.892-2.74Zm15.094,7.7h-2.958v-1.24h2.523v-2.11H-38.744v2.11h7.439v1.24h-7.96v2.2h3.045L-37.83-8.838a18.322,18.322,0,0,1,2.5,3.023l1.936-1.37A22.868,22.868,0,0,0-35.873-9.9h4.568V-6.88c0,.239-.087.326-.392.348-.283,0-1.3,0-2.218-.043a9.088,9.088,0,0,1,.8,2.306,8.61,8.61,0,0,0,3.371-.37c.848-.37,1.066-.979,1.066-2.175V-9.9h2.98ZM-11.1-21.409c-.174.457-.435,1-.631,1.414l.3.065h-4.828l.283-.065a13.251,13.251,0,0,0-.522-1.414Zm6.721,1.479H-9.186c.283-.392.587-.87.914-1.414l-.326-.065h3.067v-2h-7.025v-1.153h-2.567v1.153h-7v2h3.154l-.109.022a13.2,13.2,0,0,1,.544,1.457h-4.655v2H-4.379ZM-22.018-4.683a8.3,8.3,0,0,0,3-4.285l-2.175-.761a7.191,7.191,0,0,1-2.849,3.676Zm3.567-8.33h9.4v.979h-9.4Zm0-2.436h9.4v.957h-9.4Zm3.676,8.9c-.979,0-1.153-.065-1.153-.653V-9.382a13.572,13.572,0,0,1,3.067,1.871L-11.3-9.12a13.829,13.829,0,0,0-2.262-1.327h7.069v-6.59h-14.42v6.59h5.438l-.892.87.261.109h-2.349v2.284c0,2.066.674,2.7,3.415,2.7h3.5c2.023,0,2.719-.609,3-3.023a6.978,6.978,0,0,1-2.2-.826c-.109,1.544-.239,1.783-1.044,1.783Zm5.611-2.327A18.03,18.03,0,0,1-5.749-4.814l2.132-1.24A15.972,15.972,0,0,0-7.163-9.99ZM7.322-23.649l-3-.3a18.29,18.29,0,0,1-.587,3.632c-.674.065-1.327.087-1.979.087a27.477,27.477,0,0,1-2.893-.152l.2,2.523c.935.065,1.827.087,2.719.087.37,0,.74,0,1.131-.022A34.268,34.268,0,0,1-1.53-10.121L1.1-8.773a40.076,40.076,0,0,0,4.655-9.309,37.733,37.733,0,0,0,3.806-.761l-.087-2.523a26.664,26.664,0,0,1-2.936.7C6.866-21.844,7.148-22.953,7.322-23.649ZM6.191-8.6c0-.761.8-1.327,2.066-1.327a7.814,7.814,0,0,1,1.762.217v.435c0,1.2-.457,2.023-1.958,2.023C6.866-7.25,6.191-7.794,6.191-8.6Zm6.22-8.287H9.693c.044,1.327.152,3.262.239,4.872-.5-.043-.979-.087-1.5-.087-3.023,0-4.807,1.631-4.807,3.763,0,2.392,2.132,3.589,4.828,3.589,3.089,0,4.2-1.566,4.2-3.589v-.218a18.439,18.439,0,0,1,2.936,2.327l1.457-2.327a14.223,14.223,0,0,0-4.5-2.784c-.044-1.088-.109-2.132-.131-2.762C12.39-15.058,12.347-15.972,12.412-16.885Zm3.741,1.153L17.7-18.016a37.466,37.466,0,0,0-5.372-2.958l-1.392,2.153A31.392,31.392,0,0,1,16.153-15.733ZM-40.9,5.655l-1.827.761A19.646,19.646,0,0,1-40.81,9.831l1.892-.8A36.984,36.984,0,0,0-40.9,5.655Zm2.98-1.044-1.849.761a20.9,20.9,0,0,1,2.044,3.306l1.849-.826A27.969,27.969,0,0,0-37.918,4.611Zm-12.441.631-1.566,2.393c1.436.8,3.7,2.262,4.916,3.11l1.61-2.392C-46.531,7.547-48.923,6.025-50.359,5.242Zm-4.024,15.442,1.631,2.849a27.354,27.354,0,0,0,7.264-2.675,26.236,26.236,0,0,0,8.635-7.83l-1.675-2.958a22.018,22.018,0,0,1-8.461,8.156A23.324,23.324,0,0,1-54.382,20.684Zm.674-10.483-1.566,2.392c1.457.783,3.719,2.24,4.959,3.11l1.588-2.436C-49.837,12.485-52.229,10.984-53.708,10.2Zm26.3-1.653-2.914.7a7.617,7.617,0,0,1,.609,1.544c.152.479.348,1.175.565,2.023-1,.2-1.784.326-2.088.37-.718.13-1.3.2-2,.261l.674,2.61c.653-.152,2.24-.478,4.067-.87.783,2.958,1.675,6.351,2,7.525a12.466,12.466,0,0,1,.392,1.914l2.958-.74c-.174-.435-.457-1.414-.587-1.783-.326-1.131-1.261-4.481-2.088-7.482,2.349-.479,4.524-.935,5.046-1.022A19.308,19.308,0,0,1-24,17.509l2.392,1.2A34.235,34.235,0,0,0-16.972,11.9l-1.74-1.24a4.146,4.146,0,0,1-1.109.348c-.848.2-3.893.783-6.655,1.305-.239-.848-.435-1.588-.587-2.11C-27.195,9.635-27.325,9.048-27.412,8.548ZM-9.121,5.829-11.165,8a45.223,45.223,0,0,1,5.438,4.7l2.219-2.262A43.928,43.928,0,0,0-9.121,5.829Zm-2.719,14.485,1.827,2.871a23.555,23.555,0,0,0,8.069-3.067A23.128,23.128,0,0,0,6.1,12.071L4.408,9a20.48,20.48,0,0,1-7.917,8.461A22.417,22.417,0,0,1-11.839,20.315Zm30.167,1.566,1.827,1.5a4.647,4.647,0,0,1,.935-.653,23.948,23.948,0,0,0,7.373-5.938L26.789,14.4a13.773,13.773,0,0,1-5.372,4.589V7.613a11.044,11.044,0,0,1,.152-1.892H18.328A9.643,9.643,0,0,1,18.5,7.591v12.68A8.276,8.276,0,0,1,18.328,21.881Zm-10.07-.326,2.653,1.762a12.753,12.753,0,0,0,3.872-6.242c.587-2.2.652-6.786.652-9.352a14.326,14.326,0,0,1,.152-1.979h-3.2a8.254,8.254,0,0,1,.2,2c0,2.632-.022,6.743-.631,8.613A10.26,10.26,0,0,1,8.258,21.555Z" transform="translate(186.297 173.066)" fill="#001429"/>
          <path id="交差_121" data-name="交差 121" d="M13.248,28.3a17.523,17.523,0,0,1,4.142-7.736,1.866,1.866,0,0,1,1.4-.1,12.7,12.7,0,0,0,13.364,0,1.864,1.864,0,0,1,1.4.1A17.515,17.515,0,0,1,37.705,28.3c1.048,6.29-5.669,8.56-12.229,8.56S12.2,34.588,13.248,28.3Zm25.97,3.567a8.313,8.313,0,0,0,.214-3.853A15.472,15.472,0,0,0,37.78,23.56a7.724,7.724,0,0,1,.871-1.069,1.147,1.147,0,0,1,.868-.064,7.832,7.832,0,0,0,8.245,0,1.148,1.148,0,0,1,.868.064,10.807,10.807,0,0,1,2.554,4.772c.648,3.878-3.5,5.282-7.546,5.282A13.307,13.307,0,0,1,39.218,31.866ZM.067,27.263a10.789,10.789,0,0,1,2.554-4.772,1.15,1.15,0,0,1,.869-.064,7.832,7.832,0,0,0,8.245,0,1.147,1.147,0,0,1,.868.064,7.169,7.169,0,0,1,.7.828,15.963,15.963,0,0,0-1.779,4.694,8.3,8.3,0,0,0,.242,3.948,13.68,13.68,0,0,1-4.15.585C3.563,32.545-.58,31.141.067,27.263ZM37.749,15.693a5.893,5.893,0,1,1,5.892,5.892A5.893,5.893,0,0,1,37.749,15.693Zm-36.029,0a5.893,5.893,0,1,1,5.893,5.892A5.894,5.894,0,0,1,1.72,15.693ZM15.928,9.548A9.549,9.549,0,1,1,25.476,19.1,9.549,9.549,0,0,1,15.928,9.548Z" transform="translate(264.55 146.796)" fill="url(#linear-gradient)"/>
          <path id="交差_120" data-name="交差 120" d="M32.8,33.547a2.083,2.083,0,0,1-2.038-2.131l-.221-7.98a2.452,2.452,0,0,1,2.454-2.453h5.444v-8.1a3.8,3.8,0,1,1,7.594,0v9.233a3.8,3.8,0,0,1-3.8,3.8l-6.941-.02-.363,5.619a2.086,2.086,0,0,1-2.084,2.038Zm-14.888,0a2.086,2.086,0,0,1-2.085-2.038l-.364-5.619-6.941.02a3.8,3.8,0,0,1-3.8-3.8V12.879a3.8,3.8,0,1,1,7.593,0v8.1h5.445a2.451,2.451,0,0,1,2.453,2.453l-.221,7.981a2.082,2.082,0,0,1-2.037,2.13Zm19.926-2.567V28.039h4.018a5.968,5.968,0,0,0,5.957-5.958V15.956h2.94v6.125a8.906,8.906,0,0,1-8.9,8.9Zm-28.937,0a8.906,8.906,0,0,1-8.9-8.9V15.956H2.94v6.125A5.968,5.968,0,0,0,8.9,28.039h4.018v2.941Zm15.292-.807V21.5h2.45v8.673Zm-8.959-10.6V15.994H36.281v3.583Zm23.121-15.7a3.88,3.88,0,1,1,3.88,3.881A3.88,3.88,0,0,1,38.351,3.881Zm-33.716,0A3.881,3.881,0,1,1,8.517,7.761,3.882,3.882,0,0,1,4.635,3.881Z" transform="translate(29.702 150.108)" fill="url(#linear-gradient)"/>
          <path id="交差_122" data-name="交差 122" d="M0,36.7V17.692H9.5V36.7Zm15.095-2.821H12.719V19.137a7.977,7.977,0,0,0,2.935-1.54c1.094-1.278,3.409-3.023,6.08-5.5a20.625,20.625,0,0,0,5.275-9.439c.5-3.159,3.677-3.689,4.721-.567.994,2.972-.089,5.622-.571,7.007s-3.076,3.9-1.528,5.64c.978,1.1,3.563.88,4.612.88H48.008a2.717,2.717,0,0,1,0,5.427H41.142a2.75,2.75,0,0,1,1,2.127,2.684,2.684,0,0,1-2.063,2.656,2.751,2.751,0,0,1,.945,2.083,2.652,2.652,0,0,1-2.587,2.712H37.275a2.747,2.747,0,0,1,.88,2.026,2.652,2.652,0,0,1-2.585,2.713c-1.468,0-5.242.221-9.017.221C21.594,35.583,20.057,33.879,15.095,33.879Z" transform="translate(86.25 262.682)" fill="url(#linear-gradient)"/>
          <path id="交差_124" data-name="交差 124" d="M.373,26.293C-1.862,16.132,6.178,4.9,18.333,1.208,27.992-1.727,37.564.828,41.9,7.318c2.412,3.614.726,7.469-7.467,8.192-6.591.582-5.7,8.451.723,8.193,6.024-.242,5.573,4.428,4.273,5.937a27.905,27.905,0,0,1-13,8.366,26.721,26.721,0,0,1-7.759,1.182C9.652,39.187,2.123,34.247.373,26.293Zm23.289.723a3.855,3.855,0,1,0,2.726-1.129A3.882,3.882,0,0,0,23.662,27.016Zm-16.72-.823a2.6,2.6,0,1,0,1.891-.814A2.6,2.6,0,0,0,6.942,26.193ZM5.469,17.141a2.743,2.743,0,1,0,2.606-1.883A2.747,2.747,0,0,0,5.469,17.141Zm7.122-9.361h0a2.89,2.89,0,1,0,1.685-.544A2.892,2.892,0,0,0,12.591,7.78ZM32.344,6.7a3.182,3.182,0,1,0,2.25-.931A3.2,3.2,0,0,0,32.344,6.7ZM23.655,3.622a3.034,3.034,0,1,0,.353-.02A3.073,3.073,0,0,0,23.655,3.622Z" transform="translate(213 38.002)" fill="url(#linear-gradient-4)"/>
          <path id="交差_123" data-name="交差 123" d="M0,22.893A22.893,22.893,0,1,1,22.893,45.786,22.916,22.916,0,0,1,0,22.893ZM8.162,8.161A20.808,20.808,0,1,0,22.893,2.049,20.773,20.773,0,0,0,8.162,8.161ZM17.455,40.2l1.49-3.983L23.29,24.6l5.515,15.44a18.178,18.178,0,0,1-11.351.161Zm-12.7-17.3a18.065,18.065,0,0,1,1.553-7.345h.13l8.434,23.614A18.132,18.132,0,0,1,4.759,22.893ZM32.613,36.37l3.948-10.552s2.726-6.457,3.165-9.4c.01-.068.017-.138.024-.207a18.13,18.13,0,0,1-8.018,22.515ZM25.177,15.547h2.894v-2.4H16.961v2.4h3.095L22.1,21.271,17.757,32.886,11.562,15.547h2.676v-2.4H7.6A18.124,18.124,0,0,1,34.735,9.164c-2.875.489-3.107,4.959-1.543,7.146a11.244,11.244,0,0,1,1.4,8.269l-3.166,8.457Z" transform="translate(211.5 253.596)" fill="url(#linear-gradient)"/>
          <path id="パス_1895" data-name="パス 1895" d="M32.188,14.962l3.419,4.94H31.74l-3.419-4.94h-4.89l3.42,4.94H22.984l-3.419-4.94h-4.89l3.419,4.94H14.228l-3.419-4.94H5.919L9.338,19.9H5.471L2.177,15.142l34.067-9.5L35.86,4.264l-.082-.294-.531-1.9A2.839,2.839,0,0,0,32.635,0L30.781,5.364,27.056,6.4,28.974.859l-4.71,1.314L22.346,7.718,18.622,8.756l1.919-5.545L15.83,4.525l-1.919,5.546L10.187,11.11l1.919-5.543L7.395,6.88,5.477,12.425,1.752,13.463,3.671,7.918l-1.586.443a2.852,2.852,0,0,0-1.98,3.512l.531,1.9-.111.032.466,1.667.114-.032V40.994a2.851,2.851,0,0,0,2.85,2.85H34.737a2.85,2.85,0,0,0,2.85-2.85V14.962h-5.4Z" transform="translate(93 33.345)" fill="url(#linear-gradient)"/>
          <path id="パス_2038" data-name="パス 2038" d="M2.754,9.656H4.247V8.963H2.754V8.641h1.46V6.092H2.754V5.77H4.338v.644h.751a6.361,6.361,0,0,1-.9,3.548c-.479.041-.965.083-1.436.115ZM1.219,8.031V7.659h.643v.371ZM3.4,7.659v.371H2.754V7.659Zm-.643-.586V6.711H3.4v.363ZM1.219,6.711h.643v.363H1.219Zm4.826-1.2c.017-.544.017-1.122.017-1.724h-.94c0,.61,0,1.18-.008,1.724H4.338V5.061H2.754v-.4C3.29,4.6,3.8,4.524,4.239,4.434L3.81,3.7a25.561,25.561,0,0,1-3.556.4A3.056,3.056,0,0,1,.469,4.8c.445-.008.916-.033,1.394-.066v.33H.238V5.77H1.863v.322H.444V8.641H1.863v.322H.411v.693H1.863v.495c-.635.041-1.213.082-1.675.116l.115.825c.891-.074,2.079-.2,3.267-.322a3.214,3.214,0,0,1,.578.652c1.386-1.1,1.765-2.8,1.873-5.008h.742c-.049,2.665-.132,3.671-.305,3.894a.3.3,0,0,1-.28.14c-.157,0-.47-.008-.833-.041a2.3,2.3,0,0,1,.289.941,5.534,5.534,0,0,0,1.023-.033.921.921,0,0,0,.652-.413c.264-.379.33-1.576.4-4.95,0-.115.008-.437.008-.437Zm8.333,4.439H9.4V5.613H8.438v5.75H9.4v-.487h4.983v.479h.949V5.613h-.949ZM12.992,7.222h-.718V6.529h.718Zm0,1.444h-.718v-.7h.718Zm-2.277-.7h.718v.7h-.718Zm0-1.436h.718v.693h-.718ZM8.191,4.153v.916h3.168v.66H9.915V9.466h3.927V5.729h-1.5v-.66h3.234V4.153Zm9.479-.462a8.583,8.583,0,0,1-1.881,3.086,6.7,6.7,0,0,1,.545,1.048c.165-.181.338-.388.511-.594v4.125h.99V5.7a12.851,12.851,0,0,0,.792-1.716Zm5.915,2.244V5h-3.2a9.751,9.751,0,0,0,.4-1.023l-.949-.239a8.19,8.19,0,0,1-1.749,3.11,6.673,6.673,0,0,1,.751.685,9.161,9.161,0,0,0,1.081-1.6h.314v5.428h1.006V9.532h2.244V8.625H21.242V7.693h2.137V6.8H21.242V5.935Zm6.32.355a8.351,8.351,0,0,1-.792,1.832,19.481,19.481,0,0,1-.33-2.26h2.549V4.887h-.858l.4-.421a6.9,6.9,0,0,0-1.345-.883l-.594.586a10.329,10.329,0,0,1,1.056.718H28.725c-.016-.4-.025-.809-.016-1.221H27.677c0,.412.016.817.033,1.221H24.344V7.3a6.828,6.828,0,0,1-.685,3.5,4.3,4.3,0,0,1,.833.668,7.754,7.754,0,0,0,.883-3.82h1.072a4.668,4.668,0,0,1-.14,1.551.267.267,0,0,1-.247.1c-.132,0-.412-.008-.709-.033a2.226,2.226,0,0,1,.272.916,6.491,6.491,0,0,0,.949-.025.775.775,0,0,0,.569-.33c.19-.239.239-.973.264-2.706,0-.115.008-.371.008-.371H25.375V5.861h2.393a17.042,17.042,0,0,0,.569,3.325,6.3,6.3,0,0,1-1.683,1.337,6.467,6.467,0,0,1,.709.808,6.993,6.993,0,0,0,1.394-1.122c.363.677.817,1.089,1.394,1.089.767,0,1.1-.363,1.254-1.889a2.669,2.669,0,0,1-.833-.553c-.041,1.031-.14,1.444-.338,1.444-.264,0-.528-.346-.767-.94a9.583,9.583,0,0,0,1.419-2.83Z" transform="translate(95.953 79.699)"/>
          <path id="パス_2034" data-name="パス 2034" d="M-34.716-8.618v1.064c.247-.016.6-.025.883-.025h2.7c.289,0,.611.008.891.025V-8.618a6.476,6.476,0,0,1-.891.066h-2.7A6.173,6.173,0,0,1-34.716-8.618Zm-.957,2.112v1.081c.231-.017.553-.033.792-.033h2.269a3.545,3.545,0,0,1-.512,1.823,3.369,3.369,0,0,1-1.493,1.18l.965.7a3.91,3.91,0,0,0,1.658-1.584,5.234,5.234,0,0,0,.528-2.12h1.988c.231,0,.544.008.751.025V-6.507a6.239,6.239,0,0,1-.751.05h-5.4A6.281,6.281,0,0,1-35.673-6.507Zm5.924-2.681-.66.272a10.5,10.5,0,0,1,.652,1.147l.66-.289C-29.255-8.363-29.543-8.882-29.75-9.188Zm.973-.371-.652.272a9.734,9.734,0,0,1,.66,1.139l.66-.289A12.9,12.9,0,0,0-28.776-9.559Zm.652,4.818.487.974a17.211,17.211,0,0,0,2.368-.965v2.178c0,.289-.025.726-.041.891h1.221a4.593,4.593,0,0,1-.058-.891v-2.83a10.814,10.814,0,0,0,1.848-1.5l-.817-.8a8.6,8.6,0,0,1-2.054,1.766A10.894,10.894,0,0,1-28.124-4.741Zm8.563,2.021.784.676a2.129,2.129,0,0,1,.487-.223,10.338,10.338,0,0,0,4.785-2.97l-.586-.932a9.453,9.453,0,0,1-4.24,2.731v-4.29a6.035,6.035,0,0,1,.083-.94h-1.3a5.271,5.271,0,0,1,.091.94v4.471A1.077,1.077,0,0,1-19.561-2.72ZM-8.6-8.825l-1.2-.4a3.969,3.969,0,0,1-.371.866A7.264,7.264,0,0,1-12.755-5.7l.924.685a9.4,9.4,0,0,0,2.079-2h2.318A5.865,5.865,0,0,1-8.6-4.758,6.575,6.575,0,0,1-11.93-2.72l.974.874A7.7,7.7,0,0,0-7.623-4.172,8.608,8.608,0,0,0-6.187-6.927a3.3,3.3,0,0,1,.272-.594l-.841-.52a2.645,2.645,0,0,1-.718.1H-9.133c.008-.017.017-.025.025-.041C-9.009-8.165-8.795-8.536-8.6-8.825Zm5.659-.1-.6.907c.545.305,1.4.866,1.865,1.188l.619-.916C-1.493-8.041-2.4-8.627-2.945-8.924ZM-4.48-3.066l.619,1.089A10.039,10.039,0,0,0-1.106-3,9.961,9.961,0,0,0,2.178-5.962L1.543-7.084A8.41,8.41,0,0,1-1.667-3.99,8.939,8.939,0,0,1-4.48-3.066Zm.264-3.976-.6.916c.553.289,1.411.85,1.881,1.172l.6-.924C-2.756-6.176-3.663-6.746-4.216-7.043ZM4.1-7.051v1c.2-.017.718-.033,1.023-.033H7.846v1H5.214c-.313,0-.685-.008-.9-.025v.974c.19-.008.586-.016.9-.016H7.846v1.1H4.727a7.079,7.079,0,0,1-.718-.033v1.015c.14-.008.479-.025.709-.025H7.846c0,.124,0,.256-.008.33h1.04c0-.149-.008-.429-.008-.561V-6.474c0-.173,0-.445.008-.553-.132.008-.437.016-.635.016H5.123C4.818-7.01,4.315-7.026,4.1-7.051ZM12.169-8.66l-.776.825a17.154,17.154,0,0,1,2.063,1.782l.841-.858A16.663,16.663,0,0,0,12.169-8.66ZM11.138-3.165l.693,1.089A8.934,8.934,0,0,0,14.891-3.24a8.773,8.773,0,0,0,3.053-3.052L17.3-7.455a7.768,7.768,0,0,1-3,3.209A8.5,8.5,0,0,1,11.138-3.165Z" transform="translate(120.668 314.497)"/>
          <path id="パス_2033" data-name="パス 2033" d="M-19.839-7.956h-2.227v-.412h2.227Zm0,1.048h-2.227v-.421h2.227Zm.941-2.153h-4.067v2.846H-18.9Zm-4.48,4.117-.132-.883-.743.2V-6.85h.825v-.908h-.825V-9.317h-.891v1.559h-.891v.908h.891v1.46c-.371.091-.7.182-.982.239l.223.949c.239-.066.487-.14.759-.214v1.65c0,.107-.041.14-.14.14s-.379.008-.685,0a3.225,3.225,0,0,1,.256.9,2.036,2.036,0,0,0,1.139-.19c.247-.149.322-.388.322-.842V-4.681ZM-20.5-3.55h1.576v-.767H-20.5v-.726h2.013v-.792h-4.876v.792h1.939V-2.89a1.852,1.852,0,0,1-.718-.965,7.5,7.5,0,0,0,.157-.833l-.891-.107a3.681,3.681,0,0,1-1.147,2.582,5.632,5.632,0,0,1,.726.586,3.63,3.63,0,0,0,.858-1.3,2.45,2.45,0,0,0,2.475,1.2h1.436a2.892,2.892,0,0,1,.264-.858c-.355.008-1.378.008-1.658.008-.206,0-.388-.008-.577-.025Zm5.288-3.028h1.931a1.726,1.726,0,0,1-.619.627c-.528-.132-1.056-.247-1.534-.338Zm4.587,3.11v-.808h-3.283v-.561h-.767a5.3,5.3,0,0,0,.924-.3,18.126,18.126,0,0,1,2.046.693l.586-.693c-.462-.173-1.073-.363-1.741-.553a2.451,2.451,0,0,0,.635-.891h1.452v-.767h-3.853c.1-.132.19-.264.281-.388l-.751-.223h3.316V-7.5h.949V-8.764h-3.052v-.545h-.982v.545h-3.028V-7.5h.907v-.454h1.691c-.132.19-.289.4-.446.611h-2.211v.767h1.625c-.231.281-.446.544-.643.759l.932.256.107-.124c.247.05.511.116.775.173a16.374,16.374,0,0,1-2.582.289,2.478,2.478,0,0,1,.322.759,18.026,18.026,0,0,0,2.533-.322v.512H-18.09v.808h2.516a7.935,7.935,0,0,1-2.722.982,3.722,3.722,0,0,1,.6.792A7.3,7.3,0,0,0-14.88-3.039V-1.62h.974V-3.088A7.537,7.537,0,0,0-11.028-1.7a4.324,4.324,0,0,1,.627-.833,8.222,8.222,0,0,1-2.756-.932ZM-6.531-6.52A1.063,1.063,0,0,0-7.587-5.464,1.063,1.063,0,0,0-6.531-4.408,1.063,1.063,0,0,0-5.475-5.464,1.063,1.063,0,0,0-6.531-6.52Zm6.872.668c-.28.074-.561.149-.841.215V-6.859H.333v-.907H-.5V-9.309h-.965v1.543H-2.489v.907h1.023V-5.4c-.429.107-.833.2-1.163.264l.239.94.924-.239v1.765c0,.115-.041.148-.148.157s-.446,0-.759-.016a3.823,3.823,0,0,1,.264.9A2.807,2.807,0,0,0-.855-1.8c.272-.149.355-.388.355-.875V-4.689c.322-.082.643-.173.957-.264Zm4.8-.71H1.834v-1.2A18.075,18.075,0,0,0,4.944-8.5L4.2-9.284A14.409,14.409,0,0,1,1.735-8.6L.861-8.7v2.714A5.183,5.183,0,0,1-.187-2.338a2.429,2.429,0,0,1,.726.693,5.89,5.89,0,0,0,1.3-3.985h1.18v4.01h.973v-4.01H5.142ZM12.856-8.88H10.992v.875h1.865Zm-6.3-.437A5.767,5.767,0,0,1,5.192-7.75,4.862,4.862,0,0,1,5.679-7,8.534,8.534,0,0,0,7.436-9ZM8.22-4.9v-.371h.52V-4.9Zm0-1.262h.52V-5.8H8.22Zm1.8,0V-5.8h-.5v-.355Zm0,1.262h-.5v-.371h.5Zm3-1.9H10.868V-5.9h.652v3.25c0,.091-.025.115-.124.115-.083,0-.338,0-.6-.008l.008-.4-1.287.066v-.4h1.171v-.71H9.515v-.347h1.213V-6.735H9.515V-7.1h1.353v-.767H9.515v-.47a11.974,11.974,0,0,0,1.262-.2l-.462-.718a20.359,20.359,0,0,1-2.888.363,3.059,3.059,0,0,1,.214.677c.347-.008.718-.025,1.1-.058v.4h-1.3v.544l-.759-.272a7.713,7.713,0,0,1-1.551,2.2,5.808,5.808,0,0,1,.52.891c.157-.165.322-.346.479-.544v3.432h.891V-6.331q.235-.384.421-.767h1.3v.363h-1.2v2.409h1.2v.347H7.584v.71H8.74v.437c-.52.025-.99.049-1.378.058l.1.767c.916-.058,2.153-.132,3.333-.223v-.206A3.769,3.769,0,0,1,11-1.612a2.2,2.2,0,0,0,1.105-.173c.272-.157.33-.413.33-.85V-5.9h.586Z" transform="translate(61.902 198.937)"/>
          <path id="パス_2037" data-name="パス 2037" d="M1.574,4.381V5.446c.248-.016.6-.025.883-.025h2.7c.289,0,.61.008.891.025V4.381a6.476,6.476,0,0,1-.891.066h-2.7A6.173,6.173,0,0,1,1.574,4.381ZM.617,6.493V7.574c.231-.016.553-.033.792-.033H3.678a3.545,3.545,0,0,1-.511,1.823,3.369,3.369,0,0,1-1.493,1.18l.965.7A3.91,3.91,0,0,0,4.3,9.661a5.234,5.234,0,0,0,.528-2.12H6.813c.231,0,.545.008.751.025V6.493a6.239,6.239,0,0,1-.751.05h-5.4A6.281,6.281,0,0,1,.617,6.493ZM6.541,3.812l-.66.272a10.5,10.5,0,0,1,.652,1.147l.66-.289C7.036,4.637,6.747,4.118,6.541,3.812Zm.973-.371-.652.272a9.733,9.733,0,0,1,.66,1.138l.66-.289A12.9,12.9,0,0,0,7.514,3.441Zm7.087.751-.553.181a10.925,10.925,0,0,1,.421,1.13l.569-.181A8.365,8.365,0,0,0,14.6,4.192Zm.85-.264-.561.181a7.389,7.389,0,0,1,.446,1.122L15.9,5.05C15.8,4.736,15.607,4.258,15.451,3.928Zm-1.559,3.16V6.815h.619c.429,0,.718.008.9.025v-1.1A4.889,4.889,0,0,1,14.5,5.8h-.61V4.934a5.3,5.3,0,0,1,.058-.767h-1.18a5.444,5.444,0,0,1,.05.767V5.8H10.864V4.992a6.579,6.579,0,0,1,.05-.751H9.742c.025.256.05.5.05.743V5.8h-.7A5.455,5.455,0,0,1,8.2,5.726V6.848c.181-.008.479-.033.891-.033h.7V7.937a6.672,6.672,0,0,1-.05.866H10.9c-.008-.165-.033-.495-.033-.866V6.815h1.955v.313c0,2.03-.7,2.739-2.294,3.3l.883.833C13.4,10.379,13.891,9.134,13.891,7.087ZM16.21,7.4l.52,1.039a16.531,16.531,0,0,0,2.912-1.188v2.64a9.239,9.239,0,0,1-.058,1.081h1.3a5.672,5.672,0,0,1-.074-1.081V6.56a15.133,15.133,0,0,0,2.219-1.79l-.891-.85a10.577,10.577,0,0,1-2.327,2A13.266,13.266,0,0,1,16.21,7.4ZM25.524,4.34l-.775.825a17.154,17.154,0,0,1,2.063,1.782l.842-.858A16.662,16.662,0,0,0,25.524,4.34ZM24.493,9.835l.693,1.089A8.934,8.934,0,0,0,28.246,9.76,8.773,8.773,0,0,0,31.3,6.708l-.644-1.163a7.768,7.768,0,0,1-3,3.209A8.5,8.5,0,0,1,24.493,9.835Z" transform="translate(218.096 79.735)"/>
          <path id="パス_2035" data-name="パス 2035" d="M-25.41-2.194h1.493l.668-3.019c.1-.479.181-.949.264-1.419h.033c.074.47.165.94.264,1.419L-22-2.194h1.518l1.13-6.113H-20.51L-21-5.321c-.091.635-.181,1.287-.272,1.947h-.041c-.132-.66-.256-1.32-.388-1.947l-.7-2.986h-1.048l-.709,2.986c-.132.635-.264,1.287-.388,1.947h-.033c-.091-.66-.19-1.3-.28-1.947l-.487-2.986h-1.237Zm8.39.115A2.254,2.254,0,0,0-14.8-4.5,2.254,2.254,0,0,0-17.02-6.93,2.254,2.254,0,0,0-19.239-4.5,2.254,2.254,0,0,0-17.02-2.079Zm0-.99C-17.647-3.069-18-3.63-18-4.5s.355-1.436.982-1.436.982.569.982,1.436S-16.393-3.069-17.02-3.069Zm2.822.875h1.213V-4.95c.256-.668.693-.908,1.056-.908a1.543,1.543,0,0,1,.487.074l.206-1.048a1.307,1.307,0,0,0-.545-.1A1.6,1.6,0,0,0-13.093-6h-.025l-.091-.817h-.99Zm4.711.115a1.916,1.916,0,0,0,1.279-.594h.033l.091.478H-7.1V-8.778h-1.2v1.625l.041.726a1.59,1.59,0,0,0-1.172-.5A2.17,2.17,0,0,0-11.377-4.5C-11.377-2.987-10.634-2.079-9.488-2.079Zm.314-1c-.61,0-.957-.478-.957-1.435,0-.924.437-1.419.957-1.419a1.246,1.246,0,0,1,.866.347v2.03A1.051,1.051,0,0,1-9.174-3.077Zm3.061.883h1.221v-2.17h.817c1.312,0,2.36-.627,2.36-2.021,0-1.444-1.04-1.922-2.393-1.922h-2Zm1.221-3.135v-2H-4.2c.842,0,1.287.239,1.287.949s-.4,1.056-1.246,1.056Zm3.77,3.135H.091V-4.95c.256-.668.693-.908,1.056-.908a1.543,1.543,0,0,1,.487.074L1.84-6.831a1.307,1.307,0,0,0-.544-.1A1.6,1.6,0,0,0-.017-6H-.041l-.091-.817h-.99Zm5.1.115A2.909,2.909,0,0,0,5.585-2.59l-.412-.743a1.9,1.9,0,0,1-1.04.322A1.214,1.214,0,0,1,2.855-4.166H5.7a2.28,2.28,0,0,0,.058-.561c0-1.271-.66-2.2-1.931-2.2A2.264,2.264,0,0,0,1.675-4.5,2.243,2.243,0,0,0,3.977-2.079Zm-1.139-2.9A1.04,1.04,0,0,1,3.845-5.99c.594,0,.874.4.874,1.015Zm4.826,2.9c1.2,0,1.84-.652,1.84-1.46C9.5-4.4,8.828-4.7,8.217-4.933,7.73-5.115,7.3-5.239,7.3-5.577c0-.264.2-.446.619-.446a1.72,1.72,0,0,1,.99.4l.544-.734A2.561,2.561,0,0,0,7.887-6.93c-1.056,0-1.724.586-1.724,1.411,0,.776.652,1.13,1.237,1.353.487.19.965.347.965.693,0,.289-.206.487-.668.487a2.006,2.006,0,0,1-1.238-.5l-.553.759A2.93,2.93,0,0,0,7.664-2.079Zm3.671,0c1.2,0,1.84-.652,1.84-1.46,0-.858-.676-1.163-1.287-1.394-.487-.181-.916-.305-.916-.643,0-.264.2-.446.619-.446a1.72,1.72,0,0,1,.99.4l.544-.734a2.561,2.561,0,0,0-1.567-.569c-1.056,0-1.724.586-1.724,1.411,0,.776.652,1.13,1.238,1.353.487.19.965.347.965.693,0,.289-.206.487-.668.487a2.006,2.006,0,0,1-1.237-.5l-.553.759A2.93,2.93,0,0,0,11.335-2.079Z" transform="translate(240.645 314.302)"/>
          <path id="パス_2036" data-name="パス 2036" d="M-3.888-1.922c1.493,0,2.359-.833,2.359-2.863V-8.151H-2.7v3.473c0,1.27-.462,1.7-1.188,1.7-.709,0-1.155-.429-1.155-1.7V-8.151H-6.265v3.366C-6.265-2.755-5.373-1.922-3.888-1.922Zm2.681-.115h1.3L.74-3.391c.148-.314.3-.635.445-1.007h.033c.181.371.322.693.478,1.007l.685,1.353H3.734L2.018-5.132,3.627-8.151H2.34L1.763-6.889c-.132.289-.256.586-.4.965H1.317C1.136-6.3,1.012-6.6.863-6.889L.253-8.151H-1.1L.509-5.189Z" transform="translate(291.991 198.645)"/>
        </g>
      </g>
    </g>
  </g>
</svg>
