<svg xmlns="http://www.w3.org/2000/svg" xmlns:xlink="http://www.w3.org/1999/xlink" width="104" height="104" viewBox="0 0 104 104"><defs><linearGradient id="a" x1="0.5" x2="0.5" y2="1" gradientUnits="objectBoundingBox"><stop offset="0" stop-color="#9f9f9f"/><stop offset="0.527" stop-color="#9f9f9f"/><stop offset="1" stop-color="#324658"/></linearGradient></defs><g transform="translate(-16194 -9277)"><rect width="104" height="104" transform="translate(16194 9277)" fill="none"/><path d="M-5.33-59.8a14.54,14.54,0,0,0,1.755.13H-2.34a10.816,10.816,0,0,0,7.8-2.86,9.794,9.794,0,0,0,2.99-7.41,9.547,9.547,0,0,0-2.8-7.15A9.891,9.891,0,0,0-1.56-79.82,9.743,9.743,0,0,0-9.1-76.7a11.462,11.462,0,0,0-2.86,8.06H-35.49a42.173,42.173,0,0,1,3.835-13.65A32.7,32.7,0,0,1-24.18-92.365,31.176,31.176,0,0,1-13.52-98.6,40.59,40.59,0,0,1,0-100.75a40.744,40.744,0,0,1,13.195,2.015,29.7,29.7,0,0,1,10.14,5.72,24.909,24.909,0,0,1,6.5,8.97A29.368,29.368,0,0,1,32.11-72.28q0,7.02-2.665,11.5A23.932,23.932,0,0,1,21.84-53.04,21.732,21.732,0,0,1,33.6-44.655Q37.83-38.61,37.83-29.77a30.337,30.337,0,0,1-2.86,13.26,30.247,30.247,0,0,1-8,10.27A36.855,36.855,0,0,1,14.755.39,49.29,49.29,0,0,1-.78,2.73,46.105,46.105,0,0,1-21.19-1.69,33.391,33.391,0,0,1-35.75-15.73a28.07,28.07,0,0,1-3.315-8.58,44.962,44.962,0,0,1-.845-8.71h25.22q.26,6.89,4.03,10.465T-.52-18.98q6.76,0,9.88-3.64a13.3,13.3,0,0,0,3.12-8.97q0-6.37-3.77-9.62A13.287,13.287,0,0,0-.26-44.46a15.018,15.018,0,0,0-2.47.195q-1.17.2-2.6.455Z" transform="translate(16246.91 9377.75)" fill="url(#a)"/></g></svg>