<svg xmlns="http://www.w3.org/2000/svg" xmlns:xlink="http://www.w3.org/1999/xlink" width="104" height="104" viewBox="0 0 104 104"><defs><linearGradient id="a" x1="0.5" x2="0.5" y2="1" gradientUnits="objectBoundingBox"><stop offset="0" stop-color="#9f9f9f"/><stop offset="0.527" stop-color="#9f9f9f"/><stop offset="1" stop-color="#324658"/></linearGradient></defs><g transform="translate(-16189 -9032)"><rect width="104" height="104" transform="translate(16189 9032)" fill="none"/><path d="M38.35,0H-40.56l24.31-25.22Q-6.63-35.23-1.17-42.185A93.4,93.4,0,0,0,6.955-53.95a30.918,30.918,0,0,0,3.315-7.8,24.533,24.533,0,0,0,.65-5.07,13.106,13.106,0,0,0-.715-4.29A10.928,10.928,0,0,0,8.06-74.815a10.8,10.8,0,0,0-3.445-2.6A10.785,10.785,0,0,0-.13-78.39a10.174,10.174,0,0,0-8.125,3.38,12.453,12.453,0,0,0-2.925,8.45,31.9,31.9,0,0,0,.39,4.16H-38.61A41.832,41.832,0,0,1-35.815-78,35.382,35.382,0,0,1-27.95-90.09a34.736,34.736,0,0,1,12.025-7.8A41.457,41.457,0,0,1-.65-100.62a42.92,42.92,0,0,1,15.145,2.6A36.186,36.186,0,0,1,26.52-90.74a33.425,33.425,0,0,1,7.93,11.115A34.018,34.018,0,0,1,37.31-65.65a32.559,32.559,0,0,1-3.445,14.885A52.4,52.4,0,0,1,22.88-36.79L6.63-21.58H38.35Z" transform="translate(16242.56 9134.62)" fill="url(#a)"/></g></svg>