<svg xmlns="http://www.w3.org/2000/svg" xmlns:xlink="http://www.w3.org/1999/xlink" width="128" height="128" viewBox="0 0 128 128"><defs><linearGradient id="a" x1="0.5" x2="0.5" y2="1" gradientUnits="objectBoundingBox"><stop offset="0" stop-color="#6a92b5"/><stop offset="1" stop-color="#324658"/></linearGradient></defs><g transform="translate(-13978 -9295)"><rect width="128" height="128" transform="translate(13978 9295)" fill="none"/><path d="M-6.56-73.6a17.9,17.9,0,0,0,2.16.16h1.52a13.312,13.312,0,0,0,9.6-3.52,12.054,12.054,0,0,0,3.68-9.12,11.75,11.75,0,0,0-3.44-8.8,12.173,12.173,0,0,0-8.88-3.36A11.991,11.991,0,0,0-11.2-94.4a14.107,14.107,0,0,0-3.52,9.92H-43.68a51.905,51.905,0,0,1,4.72-16.8,40.24,40.24,0,0,1,9.2-12.4,38.37,38.37,0,0,1,13.12-7.68A49.957,49.957,0,0,1,0-124a50.146,50.146,0,0,1,16.24,2.48,36.556,36.556,0,0,1,12.48,7.04,30.657,30.657,0,0,1,8,11.04,36.145,36.145,0,0,1,2.8,14.48q0,8.64-3.28,14.16a29.455,29.455,0,0,1-9.36,9.52A26.747,26.747,0,0,1,41.36-54.96q5.2,7.44,5.2,18.32a37.337,37.337,0,0,1-3.52,16.32A37.227,37.227,0,0,1,33.2-7.68,45.36,45.36,0,0,1,18.16.48,60.665,60.665,0,0,1-.96,3.36,56.745,56.745,0,0,1-26.08-2.08,41.1,41.1,0,0,1-44-19.36a34.547,34.547,0,0,1-4.08-10.56,55.338,55.338,0,0,1-1.04-10.72h31.04q.32,8.48,4.96,12.88t12.48,4.4q8.32,0,12.16-4.48a16.375,16.375,0,0,0,3.84-11.04q0-7.84-4.64-11.84a16.354,16.354,0,0,0-11.04-4,18.484,18.484,0,0,0-3.04.24q-1.44.24-3.2.56Z" transform="translate(14043.12 9419)" fill="url(#a)"/></g></svg>