<svg xmlns="http://www.w3.org/2000/svg" xmlns:xlink="http://www.w3.org/1999/xlink" width="128" height="128" viewBox="0 0 128 128"><defs><linearGradient id="a" x1="0.5" x2="0.5" y2="1" gradientUnits="objectBoundingBox"><stop offset="0" stop-color="#6a92b5"/><stop offset="1" stop-color="#324658"/></linearGradient></defs><g transform="translate(-13978 -9741)"><rect width="128" height="128" transform="translate(13978 9741)" fill="none"/><path d="M31.84-120.64-2.4-81.28h.64A24.217,24.217,0,0,1,5.6-84.56a27.168,27.168,0,0,1,5.12-.56,38.45,38.45,0,0,1,16.16,3.36,40.029,40.029,0,0,1,12.8,9.2,42.248,42.248,0,0,1,8.48,13.68,46.061,46.061,0,0,1,3.04,16.8,44.933,44.933,0,0,1-3.52,17.84A41.9,41.9,0,0,1,37.52-9.84,47.956,47.956,0,0,1,21.44-.16,60.574,60.574,0,0,1,.16,3.36,61.069,61.069,0,0,1-21.28-.16a48.678,48.678,0,0,1-16.08-9.6A41.5,41.5,0,0,1-47.52-23.92a42.6,42.6,0,0,1-3.52-17.2,62.321,62.321,0,0,1,4.56-22.16,85.229,85.229,0,0,1,14-23.44l28-33.92ZM-20-41.44a18.889,18.889,0,0,0,1.6,7.76,20.8,20.8,0,0,0,4.32,6.32,20.8,20.8,0,0,0,6.32,4.32A18.889,18.889,0,0,0,0-21.44a18.889,18.889,0,0,0,7.76-1.6,20.8,20.8,0,0,0,6.32-4.32,20.8,20.8,0,0,0,4.32-6.32A18.889,18.889,0,0,0,20-41.44a18.889,18.889,0,0,0-1.6-7.76,20.8,20.8,0,0,0-4.32-6.32,20.8,20.8,0,0,0-6.32-4.32A18.889,18.889,0,0,0,0-61.44a18.889,18.889,0,0,0-7.76,1.6,20.8,20.8,0,0,0-6.32,4.32A20.8,20.8,0,0,0-18.4-49.2,18.889,18.889,0,0,0-20-41.44Z" transform="translate(14042.04 9863.64)" fill="url(#a)"/></g></svg>