<svg xmlns="http://www.w3.org/2000/svg" xmlns:xlink="http://www.w3.org/1999/xlink" width="128" height="128" viewBox="0 0 128 128"><defs><linearGradient id="a" x1="0.5" x2="0.5" y2="1" gradientUnits="objectBoundingBox"><stop offset="0" stop-color="#6a92b5"/><stop offset="1" stop-color="#324658"/></linearGradient></defs><g transform="translate(-13978 -9592)"><rect width="128" height="128" transform="translate(13978 9592)" fill="none"/><path d="M35.2-94.08H-6.56L-8.64-80.8q2.88-.32,5.28-.56T1.6-81.6a44.448,44.448,0,0,1,16.96,3.2A40.281,40.281,0,0,1,32-69.6a40.281,40.281,0,0,1,8.8,13.44A44.878,44.878,0,0,1,44-39.04a41.7,41.7,0,0,1-3.6,17.6A37.928,37.928,0,0,1,30.24-8.08,45.8,45.8,0,0,1,14.24.4,69.839,69.839,0,0,1-6.72,3.36,79.639,79.639,0,0,1-27.44.72,67.151,67.151,0,0,1-45.92-7.36l4.64-29.44A64.4,64.4,0,0,0-24.96-26.32a39.907,39.907,0,0,0,15.84,3.6q9.6,0,15.2-5.2a16.869,16.869,0,0,0,5.6-12.88A17.147,17.147,0,0,0,4.16-55.28Q-3.36-60.8-15.52-60.8a54.857,54.857,0,0,0-11.2,1.2,53.533,53.533,0,0,0-11.36,3.76L-28-120.64H35.2Z" transform="translate(14042.92 9714.64)" fill="url(#a)"/></g></svg>