<svg xmlns="http://www.w3.org/2000/svg" xmlns:xlink="http://www.w3.org/1999/xlink" width="104" height="104" viewBox="0 0 104 104"><defs><linearGradient id="a" x1="0.5" x2="0.5" y2="1" gradientUnits="objectBoundingBox"><stop offset="0" stop-color="#9f9f9f"/><stop offset="0.527" stop-color="#9f9f9f"/><stop offset="1" stop-color="#324658"/></linearGradient></defs><g transform="translate(-16189 -10247)"><rect width="104" height="104" transform="translate(16189 10247)" fill="none"/><path d="M25.87-98.02-1.95-66.04h.52a19.677,19.677,0,0,1,5.98-2.665,22.073,22.073,0,0,1,4.16-.455,31.241,31.241,0,0,1,13.13,2.73,32.524,32.524,0,0,1,10.4,7.475A34.327,34.327,0,0,1,39.13-47.84,37.425,37.425,0,0,1,41.6-34.19a36.508,36.508,0,0,1-2.86,14.5A34.041,34.041,0,0,1,30.485-8,38.964,38.964,0,0,1,17.42-.13,49.216,49.216,0,0,1,.13,2.73,49.619,49.619,0,0,1-17.29-.13a39.551,39.551,0,0,1-13.065-7.8,33.715,33.715,0,0,1-8.255-11.5A34.609,34.609,0,0,1-41.47-33.41a50.636,50.636,0,0,1,3.705-18.005A69.248,69.248,0,0,1-26.39-70.46L-3.64-98.02ZM-16.25-33.67a15.347,15.347,0,0,0,1.3,6.305,16.9,16.9,0,0,0,3.51,5.135,16.9,16.9,0,0,0,5.135,3.51A15.347,15.347,0,0,0,0-17.42a15.347,15.347,0,0,0,6.305-1.3,16.9,16.9,0,0,0,5.135-3.51,16.9,16.9,0,0,0,3.51-5.135,15.347,15.347,0,0,0,1.3-6.305,15.347,15.347,0,0,0-1.3-6.305,16.9,16.9,0,0,0-3.51-5.135,16.9,16.9,0,0,0-5.135-3.51A15.347,15.347,0,0,0,0-49.92a15.347,15.347,0,0,0-6.305,1.3,16.9,16.9,0,0,0-5.135,3.51,16.9,16.9,0,0,0-3.51,5.135A15.347,15.347,0,0,0-16.25-33.67Z" transform="translate(16240.47 10347.02)" fill="url(#a)"/></g></svg>