<svg xmlns="http://www.w3.org/2000/svg" xmlns:xlink="http://www.w3.org/1999/xlink" width="104" height="104" viewBox="0 0 104 104"><defs><linearGradient id="a" x1="0.5" x2="0.5" y2="1" gradientUnits="objectBoundingBox"><stop offset="0" stop-color="#9f9f9f"/><stop offset="0.527" stop-color="#9f9f9f"/><stop offset="1" stop-color="#324658"/></linearGradient></defs><g transform="translate(-16199 -9987)"><rect width="104" height="104" transform="translate(16199 9987)" fill="none"/><path d="M28.6-76.44H-5.33L-7.02-65.65q2.34-.26,4.29-.455T1.3-66.3a36.114,36.114,0,0,1,13.78,2.6A32.728,32.728,0,0,1,26-56.55a32.729,32.729,0,0,1,7.15,10.92,36.463,36.463,0,0,1,2.6,13.91,33.879,33.879,0,0,1-2.925,14.3A30.816,30.816,0,0,1,24.57-6.565a37.212,37.212,0,0,1-13,6.89A56.744,56.744,0,0,1-5.46,2.73,64.707,64.707,0,0,1-22.3.585,54.56,54.56,0,0,1-37.31-5.98l3.77-23.92a52.327,52.327,0,0,0,13.26,8.515A32.424,32.424,0,0,0-7.41-18.46q7.8,0,12.35-4.225A13.706,13.706,0,0,0,9.49-33.15,13.932,13.932,0,0,0,3.38-44.915Q-2.73-49.4-12.61-49.4a44.571,44.571,0,0,0-9.1.975,43.5,43.5,0,0,0-9.23,3.055l8.19-52.65H28.6Z" transform="translate(16251.31 10086.02)" fill="url(#a)"/></g></svg>