<svg xmlns="http://www.w3.org/2000/svg" xmlns:xlink="http://www.w3.org/1999/xlink" width="128" height="128" viewBox="0 0 128 128"><defs><linearGradient id="a" x1="0.5" x2="0.5" y2="1" gradientUnits="objectBoundingBox"><stop offset="0" stop-color="#6a92b5"/><stop offset="1" stop-color="#324658"/></linearGradient></defs><g transform="translate(-13978 -9148)"><rect width="128" height="128" transform="translate(13978 9148)" fill="none"/><path d="M47.2,0H-49.92L-20-31.04Q-8.16-43.36-1.44-51.92a114.955,114.955,0,0,0,10-14.48A38.053,38.053,0,0,0,12.64-76a30.194,30.194,0,0,0,.8-6.24,16.131,16.131,0,0,0-.88-5.28,13.45,13.45,0,0,0-2.64-4.56,13.291,13.291,0,0,0-4.24-3.2,13.275,13.275,0,0,0-5.84-1.2q-6.4,0-10,4.16a15.327,15.327,0,0,0-3.6,10.4,39.266,39.266,0,0,0,.48,5.12H-47.52A51.486,51.486,0,0,1-44.08-96a43.547,43.547,0,0,1,9.68-14.88,42.752,42.752,0,0,1,14.8-9.6A51.024,51.024,0,0,1-.8-123.84a52.825,52.825,0,0,1,18.64,3.2,44.537,44.537,0,0,1,14.8,8.96A41.139,41.139,0,0,1,42.4-98a41.868,41.868,0,0,1,3.52,17.2,40.073,40.073,0,0,1-4.24,18.32q-4.24,8.4-13.52,17.2l-20,18.72H47.2Z" transform="translate(14042.92 9273.84)" fill="url(#a)"/></g></svg>