<svg xmlns="http://www.w3.org/2000/svg" width="117.426" height="44" viewBox="0 0 117.426 44">
  <g id="グループ_2444" data-name="グループ 2444" transform="translate(-9057.648 -2457)">
    <text id="みさきち_さん" data-name="みさきち さん" transform="translate(9057.648 2476)" fill="#fff" font-size="16" font-family="SourceHanSansJP-Medium, Source Han Sans JP" font-weight="500"><tspan x="0" y="0">みさきち さん</tspan></text>
    <text id="_m_webchapi" data-name="@m_webchapi" transform="translate(9078.074 2497)" fill="#fff" font-size="14" font-family="SourceHanSansJP-Normal, Source Han Sans JP"><tspan x="0" y="0">@m_webchapi</tspan></text>
    <path id="パス_779" data-name="パス 779" d="M1814.016,917.1a3.24,3.24,0,0,1,2.1-3.763c1.642-.744,3.316.848,3.316.848l2-.8c0,.857-1.429,1.714-1.429,1.714a6.975,6.975,0,0,0,2-.286c0,.286-1.714,1.714-1.714,1.714,0,6.857-5.143,9.714-9.429,9.714s-4.857-1.714-4.857-1.714c3.429,0,4.572-1.429,4.572-1.429-.857.571-2.857-2-2.857-2a3.275,3.275,0,0,0,1.714,0c-1.714-.286-2.857-3.429-2.857-3.429.286.571,1.714.571,1.714.571a4.032,4.032,0,0,1-1.143-4.571C1808.857,916.525,1814.016,917.1,1814.016,917.1Z" transform="translate(7251.648 1572.76)" fill="#fff"/>
  </g>
</svg>
