<svg xmlns="http://www.w3.org/2000/svg" xmlns:xlink="http://www.w3.org/1999/xlink" width="100.545" height="84.057" viewBox="0 0 100.545 84.057">
  <defs>
    <filter id="パス_1718" x="0" y="0" width="100.545" height="84.057" filterUnits="userSpaceOnUse">
      <feOffset input="SourceAlpha"/>
      <feGaussianBlur stdDeviation="5" result="blur"/>
      <feFlood flood-opacity="0.161"/>
      <feComposite operator="in" in2="blur"/>
      <feComposite in="SourceGraphic"/>
    </filter>
  </defs>
  <g transform="matrix(1, 0, 0, 1, 0, 0)" filter="url(#パス_1718)">
    <path id="パス_1718-2" data-name="パス 1718" d="M-20.7-21.882l-3.243,2.77-2.433-2.77,2.5-17.569,3.243-2.838,2.365,2.838ZM-24.078,2.308l-3.243,2.838-2.433-2.838,2.433-17.569,3.243-2.77,2.433,2.77ZM-3.469,5.619-6.645,8.457H-24.483l-2.433-2.838,3.243-2.838H-5.9ZM.383,2.308-2.861,5.146-5.293,2.308-2.861-15.26l3.243-2.77,2.433,2.77ZM3.761-21.882.518-19.112l-2.433-2.77,2.5-17.569,3.176-2.838,2.433,2.838Zm-.405-20.88L.113-39.924H-17.659l-2.433-2.838,3.243-2.838H.923ZM13.9-21.882l-3.243,2.77-2.433-2.77,2.5-17.569,3.243-2.838,2.365,2.838ZM10.519,2.308,7.275,5.146,4.843,2.308,7.275-15.26l3.243-2.77,2.433,2.77ZM31.128,5.619,27.952,8.457H10.113L7.681,5.619l3.243-2.838H28.7Zm3.852-3.311L31.736,5.146,29.3,2.308,31.736-15.26l3.243-2.77,2.433,2.77Zm3.379-24.191-3.243,2.77-2.433-2.77,2.5-17.569,3.176-2.838,2.433,2.838Zm-.405-20.88-3.243,2.838H16.938l-2.433-2.838L17.749-45.6H35.52Z" transform="translate(44.75 60.6)" fill="#fff"/>
  </g>
</svg>
