<svg xmlns="http://www.w3.org/2000/svg" xmlns:xlink="http://www.w3.org/1999/xlink" width="149.277" height="134.744" viewBox="0 0 149.277 134.744">
  <defs>
    <linearGradient id="linear-gradient" x1="1" y1="1" x2="-0.249" y2="-0.555" gradientUnits="objectBoundingBox">
      <stop offset="0" stop-color="#2eb6c5"/>
      <stop offset="1" stop-color="#3a61bd"/>
    </linearGradient>
    <filter id="パス_1682" x="0" y="0" width="149.277" height="134.744" filterUnits="userSpaceOnUse">
      <feOffset input="SourceAlpha"/>
      <feGaussianBlur stdDeviation="5" result="blur"/>
      <feFlood flood-opacity="0.161"/>
      <feComposite operator="in" in2="blur"/>
      <feComposite in="SourceGraphic"/>
    </filter>
  </defs>
  <g transform="matrix(1, 0, 0, 1, 0, 0)" filter="url(#パス_1682)">
    <path id="パス_1682-2" data-name="パス 1682" d="M-11.986-47.862l-9.165,8.118-6.939-8.118,4.975-35.351L-13.95-91.2l6.939,7.987ZM-28.352-60.431l-7.987,7.07-5.5-6.416,1.178-7.987,15.319-13.486ZM-19.58,5.557l-9.165,7.987-7.07-6.677,5.237-36.66,9.165-8.118,6.808,8.118ZM27.555-47.731,18.39-39.745l-6.808-7.987L15.247-74.31,24.413-82.3l6.808,7.987ZM21.27-3.346,12.236,4.641,5.3-3.346l3.8-26.579,9.034-7.987,6.939,7.987Zm36.006,8.9-9.034,7.987H19.83L13.022,5.557,22.056-2.43H50.468Zm10.213-8.9L58.454,4.641,51.515-3.346l3.8-26.579,9.034-7.987,6.939,7.987Zm6.285-44.385-9.165,7.987L57.8-47.731,61.466-74.31,70.631-82.3l6.808,7.987ZM69.845-83.213,60.68-75.227H32.4L25.46-83.213,34.625-91.2H62.906Z" transform="translate(56.84 106.2)" fill="url(#linear-gradient)"/>
  </g>
</svg>
