<svg xmlns="http://www.w3.org/2000/svg" xmlns:xlink="http://www.w3.org/1999/xlink" width="154.561" height="131.476" viewBox="0 0 154.561 131.476"><defs><linearGradient id="a" x1="1.14" x2="0" y2="1" gradientUnits="objectBoundingBox"><stop offset="0" stop-color="#36d1dc"/><stop offset="1" stop-color="#5b86e5"/></linearGradient><filter id="b" x="0" y="0" width="154.561" height="131.476" filterUnits="userSpaceOnUse"><feOffset input="SourceAlpha"/><feGaussianBlur stdDeviation="5" result="c"/><feFlood flood-opacity="0.161"/><feComposite operator="in" in2="c"/><feComposite in="SourceGraphic"/></filter></defs><g transform="matrix(1, 0, 0, 1, 0, 0)" filter="url(#b)"><path d="M-36.751-43.488l-8.879,7.738-6.6-7.738,3.552-25.749,8.879-7.738,6.6,7.738Zm-6.089,43L-51.592,7.25-58.315-.487l3.678-25.749,8.752-7.738,6.723,7.738ZM-7.958,8.138l-8.752,7.738H-44.235l-6.6-7.738L-42.079.4h27.525ZM1.936-.487-6.816,7.25-13.539-.487-9.86-26.237l8.752-7.738,6.723,7.738Zm6.089-43L-.854-35.75l-6.6-7.738L-3.9-69.237,4.98-76.975l6.6,7.738ZM4.219-77.862-4.66-70.125h-27.4l-6.723-7.738L-29.9-85.6H-2.5ZM61.426-43.614,52.547-35.75l-6.723-7.864,4.82-34.248L59.524-85.6l6.723,7.738ZM45.571-55.791l-7.738,6.85-5.327-6.215,1.142-7.738L48.488-75.96Zm8.5,63.93L45.19,15.876l-6.85-6.469L43.414-26.11l8.879-7.864,6.6,7.864Z" transform="translate(73.32 100.6)" fill="url(#a)"/></g></svg>