<svg xmlns="http://www.w3.org/2000/svg" xmlns:xlink="http://www.w3.org/1999/xlink" width="60.275" height="53.2" viewBox="0 0 60.275 53.2"><defs><filter id="a" x="0" y="0" width="60.275" height="53.2" filterUnits="userSpaceOnUse"><feOffset input="SourceAlpha"/><feGaussianBlur stdDeviation="5" result="b"/><feFlood flood-opacity="0.161"/><feComposite operator="in" in2="b"/><feComposite in="SourceGraphic"/></filter></defs><g transform="translate(-13247 -1210)"><g transform="matrix(1, 0, 0, 1, 13247, 1210)" filter="url(#a)"><path d="M-11.252-13.021l-1.392,1.189-1.044-1.189,1.073-7.54,1.392-1.218,1.015,1.218ZM-12.7-2.639l-1.392,1.218-1.044-1.218,1.044-7.54,1.392-1.189,1.044,1.189Zm8.845,1.421L-5.22,0h-7.656L-13.92-1.218l1.392-1.218H-4.9ZM-2.2-2.639-3.6-1.421-4.64-2.639l1.044-7.54L-2.2-11.368l1.044,1.189Zm1.45-10.382-1.392,1.189L-3.19-13.021l1.073-7.54,1.363-1.218L.29-20.561Zm-.174-8.961L-2.32-20.764H-9.947l-1.044-1.218L-9.6-23.2h7.627ZM3.6-13.021,2.2-11.832,1.16-13.021l1.073-7.54,1.392-1.218L4.64-20.561ZM2.146-2.639.754-1.421-.29-2.639l1.044-7.54,1.392-1.189L3.19-10.179Zm8.845,1.421L9.628,0H1.972L.928-1.218,2.32-2.436H9.947Zm1.653-1.421L11.252-1.421,10.208-2.639l1.044-7.54,1.392-1.189,1.044,1.189Zm1.45-10.382L12.7-11.832l-1.044-1.189,1.073-7.54,1.363-1.218,1.044,1.218Zm-.174-8.961-1.392,1.218H4.9L3.857-21.982,5.249-23.2h7.627Z" transform="translate(30.14 38.2)" fill="#fff"/></g><rect width="32" height="24" transform="translate(13261 1225)" fill="none"/></g></svg>