<svg xmlns="http://www.w3.org/2000/svg" xmlns:xlink="http://www.w3.org/1999/xlink" width="88.92" height="78" viewBox="0 0 88.92 78"><defs><linearGradient id="a" x1="1" x2="0" y2="1" gradientUnits="objectBoundingBox"><stop offset="0" stop-color="#2eb6c5"/><stop offset="1" stop-color="#3a61bd"/></linearGradient><filter id="b" x="0" y="0" width="88.92" height="78" filterUnits="userSpaceOnUse"><feOffset input="SourceAlpha"/><feGaussianBlur stdDeviation="5" result="c"/><feFlood flood-opacity="0.161"/><feComposite operator="in" in2="c"/><feComposite in="SourceGraphic"/></filter></defs><g transform="translate(-13242 -1443)"><g transform="matrix(1, 0, 0, 1, 13242, 1443)" filter="url(#b)"><path d="M-22.5-28.08l-4.2,3.66-3.12-3.66,1.68-12.18,4.2-3.66,3.12,3.66ZM-25.38-7.74l-4.14,3.66L-32.7-7.74l1.74-12.18,4.14-3.66,3.18,3.66Zm16.5,4.08L-13.02,0H-26.04l-3.12-3.66,4.14-3.66H-12ZM-4.2-7.74-8.34-4.08l-3.18-3.66,1.74-12.18,4.14-3.66,3.18,3.66Zm2.88-20.34-4.2,3.66-3.12-3.66,1.68-12.18,4.2-3.66L.36-40.26Zm-1.8-16.26-4.2,3.66H-20.28l-3.18-3.66,4.2-3.66H-6.3Zm27.06,16.2-4.2,3.72-3.18-3.72,2.28-16.2L23.04-48l3.18,3.66Zm-7.5-5.76-3.66,3.24L10.26-33.6l.54-3.66,7.02-6.18ZM20.46-3.66,16.26,0,13.02-3.06l2.4-16.8,4.2-3.72,3.12,3.72Z" transform="translate(47.7 63)" fill="url(#a)"/></g><rect width="64" height="48" transform="translate(13254 1458)" fill="none"/></g></svg>