<svg xmlns="http://www.w3.org/2000/svg" xmlns:xlink="http://www.w3.org/1999/xlink" width="84.659" height="78" viewBox="0 0 84.659 78">
  <defs>
    <linearGradient id="linear-gradient" x1="1" y1="1" x2="-0.249" y2="-0.555" gradientUnits="objectBoundingBox">
      <stop offset="0" stop-color="#2eb6c5"/>
      <stop offset="1" stop-color="#3a61bd"/>
    </linearGradient>
    <filter id="パス_1651" x="0" y="0" width="84.659" height="78" filterUnits="userSpaceOnUse">
      <feOffset input="SourceAlpha"/>
      <feGaussianBlur stdDeviation="5" result="blur"/>
      <feFlood flood-opacity="0.161"/>
      <feComposite operator="in" in2="blur"/>
      <feComposite in="SourceGraphic"/>
    </filter>
  </defs>
  <g transform="matrix(1, 0, 0, 1, 0, 0)" filter="url(#パス_1651)">
    <path id="パス_1651-2" data-name="パス 1651" d="M-8.34-28.14l-4.2,3.72-3.18-3.72,2.28-16.2L-9.24-48l3.18,3.66Zm-7.5-5.76-3.66,3.24-2.52-2.94.54-3.66,7.02-6.18Zm4.02,30.24L-16.02,0l-3.24-3.06,2.4-16.8,4.2-3.72,3.12,3.72ZM9.78-28.08l-4.2,3.66L2.46-28.08,4.14-40.26l4.2-3.66,3.12,3.66ZM6.9-7.74,2.76-4.08-.42-7.74,1.32-19.92l4.14-3.66,3.18,3.66ZM23.4-3.66,19.26,0H6.24L3.12-3.66,7.26-7.32H20.28Zm4.68-4.08L23.94-4.08,20.76-7.74,22.5-19.92l4.14-3.66,3.18,3.66Zm2.88-20.34-4.2,3.66-3.12-3.66,1.68-12.18,4.2-3.66,3.12,3.66Zm-1.8-16.26-4.2,3.66H12L8.82-44.34,13.02-48H25.98Z" transform="translate(37.02 63)" fill="url(#linear-gradient)"/>
  </g>
</svg>
