<svg xmlns="http://www.w3.org/2000/svg" width="86.79" height="87.271" viewBox="0 0 86.79 87.271"><g transform="translate(-44.986 -4904.787)"><path d="M-15340.753,169.5a36.021,36.021,0,0,1-14.108-2.848,36.13,36.13,0,0,1-11.523-7.768,36.134,36.134,0,0,1-7.769-11.522,36.026,36.026,0,0,1-2.849-14.11,36.021,36.021,0,0,1,2.849-14.109,36.137,36.137,0,0,1,7.769-11.522,36.151,36.151,0,0,1,11.523-7.769A36.015,36.015,0,0,1-15340.753,97a36.148,36.148,0,0,1,24.541,9.569,36.132,36.132,0,0,1,11.569,23.446l-32.721,39.326C-15338.485,169.444-15339.626,169.5-15340.753,169.5Z" transform="translate(15421.988 4807.788)" fill="#f7f7f7"/><path d="M15867.234,5011.97h-83.312v-1h83.312Z" transform="translate(-13748.83 14104.336) rotate(-51)" fill="#141d83"/></g></svg>