<svg xmlns="http://www.w3.org/2000/svg" xmlns:xlink="http://www.w3.org/1999/xlink" width="280" height="896" viewBox="0 0 280 896">
  <defs>
    <clipPath id="clip-path">
      <rect width="14" height="896" fill="none"/>
    </clipPath>
  </defs>
  <g id="グループ_2412" data-name="グループ 2412" transform="translate(-8586 -11062.814)">
    <text id="起床" transform="translate(8674 11122.543)" fill="#3a61bd" font-size="16" font-family="SourceHanSansJP-Regular, Source Han Sans JP"><tspan x="-32" y="0">起床</tspan></text>
    <text id="出社" transform="translate(8665.5 11353.5)" fill="#3a61bd" font-size="16" font-family="SourceHanSansJP-Regular, Source Han Sans JP"><tspan x="-32" y="0">出社</tspan></text>
    <text id="起床_前日のドラマ_朝ご飯" data-name="起床
前日のドラマ
朝ご飯" transform="translate(8770 11193.114)" fill="#c14021" font-size="16" font-family="SourceHanSansJP-Regular, Source Han Sans JP"><tspan x="0" y="0">起床</tspan><tspan x="0" y="22">前日</tspan><tspan y="22">のドラマ</tspan><tspan x="0" y="44">朝</tspan><tspan y="44">ご</tspan><tspan y="44">飯</tspan></text>
    <path id="パス_1609" data-name="パス 1609" d="M7553,13808h-38v-2h38Z" transform="translate(1212 -2617.886)" fill="#d9791e"/>
    <path id="パス_1610" data-name="パス 1610" d="M7561.143,13808H7515v-2h46.143Z" transform="translate(1157.357 -2460.625)" fill="#3a61bd"/>
    <path id="パス_1611" data-name="パス 1611" d="M7561.143,13808H7515v-2h46.143Z" transform="translate(1164.857 -2690.582)" fill="#3a61bd"/>
    <g id="グループ_2407" data-name="グループ 2407" transform="translate(8538 197.929)">
      <g id="リピートグリッド_139" data-name="リピートグリッド 139" transform="translate(181 10864.886)" clip-path="url(#clip-path)">
        <g transform="translate(-176 -11024)">
          <circle id="楕円形_367" data-name="楕円形 367" cx="7" cy="7" r="7" transform="translate(176 11024)" fill="#fff"/>
        </g>
        <g transform="translate(-176 -10978)">
          <circle id="楕円形_367-2" data-name="楕円形 367" cx="7" cy="7" r="7" transform="translate(176 11024)" fill="#fff"/>
        </g>
        <g transform="translate(-176 -10932)">
          <circle id="楕円形_367-3" data-name="楕円形 367" cx="7" cy="7" r="7" transform="translate(176 11024)" fill="#fff"/>
        </g>
        <g transform="translate(-176 -10886)">
          <circle id="楕円形_367-4" data-name="楕円形 367" cx="7" cy="7" r="7" transform="translate(176 11024)" fill="#fff"/>
        </g>
        <g transform="translate(-176 -10840)">
          <circle id="楕円形_367-5" data-name="楕円形 367" cx="7" cy="7" r="7" transform="translate(176 11024)" fill="#fff"/>
        </g>
        <g transform="translate(-176 -10794)">
          <circle id="楕円形_367-6" data-name="楕円形 367" cx="7" cy="7" r="7" transform="translate(176 11024)" fill="#fff"/>
        </g>
        <g transform="translate(-176 -10748)">
          <circle id="楕円形_367-7" data-name="楕円形 367" cx="7" cy="7" r="7" transform="translate(176 11024)" fill="#fff"/>
        </g>
        <g transform="translate(-176 -10702)">
          <circle id="楕円形_367-8" data-name="楕円形 367" cx="7" cy="7" r="7" transform="translate(176 11024)" fill="#fff"/>
        </g>
        <g transform="translate(-176 -10656)">
          <circle id="楕円形_367-9" data-name="楕円形 367" cx="7" cy="7" r="7" transform="translate(176 11024)" fill="#fff"/>
        </g>
        <g transform="translate(-176 -10610)">
          <circle id="楕円形_367-10" data-name="楕円形 367" cx="7" cy="7" r="7" transform="translate(176 11024)" fill="#fff"/>
        </g>
        <g transform="translate(-176 -10564)">
          <circle id="楕円形_367-11" data-name="楕円形 367" cx="7" cy="7" r="7" transform="translate(176 11024)" fill="#fff"/>
        </g>
        <g transform="translate(-176 -10518)">
          <circle id="楕円形_367-12" data-name="楕円形 367" cx="7" cy="7" r="7" transform="translate(176 11024)" fill="#fff"/>
        </g>
        <g transform="translate(-176 -10472)">
          <circle id="楕円形_367-13" data-name="楕円形 367" cx="7" cy="7" r="7" transform="translate(176 11024)" fill="#fff"/>
        </g>
        <g transform="translate(-176 -10426)">
          <circle id="楕円形_367-14" data-name="楕円形 367" cx="7" cy="7" r="7" transform="translate(176 11024)" fill="#fff"/>
        </g>
        <g transform="translate(-176 -10380)">
          <circle id="楕円形_367-15" data-name="楕円形 367" cx="7" cy="7" r="7" transform="translate(176 11024)" fill="#fff"/>
        </g>
        <g transform="translate(-176 -10334)">
          <circle id="楕円形_367-16" data-name="楕円形 367" cx="7" cy="7" r="7" transform="translate(176 11024)" fill="#fff"/>
        </g>
        <g transform="translate(-176 -10288)">
          <circle id="楕円形_367-17" data-name="楕円形 367" cx="7" cy="7" r="7" transform="translate(176 11024)" fill="#fff"/>
        </g>
        <g transform="translate(-176 -10242)">
          <circle id="楕円形_367-18" data-name="楕円形 367" cx="7" cy="7" r="7" transform="translate(176 11024)" fill="#fff"/>
        </g>
        <g transform="translate(-176 -10196)">
          <circle id="楕円形_367-19" data-name="楕円形 367" cx="7" cy="7" r="7" transform="translate(176 11024)" fill="#fff"/>
        </g>
        <g transform="translate(-176 -10150)">
          <circle id="楕円形_367-20" data-name="楕円形 367" cx="7" cy="7" r="7" transform="translate(176 11024)" fill="#fff"/>
        </g>
      </g>
      <text id="_5:00" data-name="5:00" transform="translate(189 10900.886)" fill="#fff" font-size="16" font-family="SourceHanSansJP-Medium, Source Han Sans JP" font-weight="500"><tspan x="-16.064" y="0">5:00</tspan></text>
      <text id="_7:00" data-name="7:00" transform="translate(189 11040.886)" fill="#fff" font-size="16" font-family="SourceHanSansJP-Medium, Source Han Sans JP" font-weight="500"><tspan x="-16.064" y="0">7:00</tspan></text>
      <text id="_9:00" data-name="9:00" transform="translate(189 11182.886)" fill="#fff" font-size="16" font-family="SourceHanSansJP-Medium, Source Han Sans JP" font-weight="500"><tspan x="-16.064" y="0">9:00</tspan></text>
      <text id="_18:00" data-name="18:00" transform="translate(189 11318.886)" fill="#fff" font-size="16" font-family="SourceHanSansJP-Medium, Source Han Sans JP" font-weight="500"><tspan x="-20.624" y="0">18:00</tspan></text>
      <text id="_20:00" data-name="20:00" transform="translate(189 11452.886)" fill="#fff" font-size="16" font-family="SourceHanSansJP-Medium, Source Han Sans JP" font-weight="500"><tspan x="-20.624" y="0">20:00</tspan></text>
      <text id="_22:00" data-name="22:00" transform="translate(189 11547.886)" fill="#fff" font-size="16" font-family="SourceHanSansJP-Medium, Source Han Sans JP" font-weight="500"><tspan x="-20.624" y="0">22:00</tspan></text>
      <text id="_24:00" data-name="24:00" transform="translate(189 11688.886)" fill="#fff" font-size="16" font-family="SourceHanSansJP-Medium, Source Han Sans JP" font-weight="500"><tspan x="-20.624" y="0">24:00</tspan></text>
    </g>
    <text id="夕飯" transform="translate(8778 11583.386)" fill="#c14021" font-size="16" font-family="SourceHanSansJP-Regular, Source Han Sans JP"><tspan x="0" y="0">夕飯</tspan></text>
    <path id="パス_1612" data-name="パス 1612" d="M7553,13808h-38v-2h38Z" transform="translate(1218 -2230.614)" fill="#d9791e"/>
    <text id="自由時間" transform="translate(8778 11673.114)" fill="#c14021" font-size="16" font-family="SourceHanSansJP-Regular, Source Han Sans JP"><tspan x="0" y="0">自由時間</tspan></text>
    <path id="パス_1613" data-name="パス 1613" d="M7553,13808h-38v-2h38Z" transform="translate(1218 -2137.886)" fill="#d9791e"/>
    <text id="就寝" transform="translate(8786 11814)" fill="#c14021" font-size="16" font-family="SourceHanSansJP-Regular, Source Han Sans JP"><tspan x="0" y="0">就寝</tspan></text>
    <path id="パス_1614" data-name="パス 1614" d="M7560.5,13808H7515v-2h45.5Z" transform="translate(1218.5 -2000)" fill="#d9791e"/>
    <text id="就寝-2" data-name="就寝" transform="translate(8666 11857)" fill="#3a61bd" font-size="16" font-family="SourceHanSansJP-Regular, Source Han Sans JP"><tspan x="-32" y="0">就寝</tspan></text>
    <path id="パス_1615" data-name="パス 1615" d="M7561.143,13808H7515v-2h46.143Z" transform="translate(1157.857 -1956)" fill="#3a61bd"/>
    <text id="家事" transform="translate(8665 11536.886)" fill="#3a61bd" font-size="16" font-family="SourceHanSansJP-Regular, Source Han Sans JP"><tspan x="-32" y="0">家事</tspan></text>
    <path id="パス_1616" data-name="パス 1616" d="M7561.143,13808H7515v-2h46.143Z" transform="translate(1157.857 -2277.114)" fill="#3a61bd"/>
    <text id="帰宅_仮眠" data-name="帰宅＆仮眠" transform="translate(8666 11491.886)" fill="#3a61bd" font-size="16" font-family="SourceHanSansJP-Regular, Source Han Sans JP"><tspan x="-80" y="0">帰宅＆仮眠</tspan></text>
    <path id="パス_1617" data-name="パス 1617" d="M7561.143,13808H7515v-2h46.143Z" transform="translate(1157.857 -2322.114)" fill="#3a61bd"/>
  </g>
</svg>
