<svg xmlns="http://www.w3.org/2000/svg" xmlns:xlink="http://www.w3.org/1999/xlink" width="42" height="896" viewBox="0 0 42 896">
  <defs>
    <clipPath id="clip-path">
      <rect width="14" height="896" fill="none"/>
    </clipPath>
  </defs>
  <g id="グループ_2411" data-name="グループ 2411" transform="translate(-168 -10864.886)">
    <g id="リピートグリッド_139" data-name="リピートグリッド 139" transform="translate(181 10864.886)" clip-path="url(#clip-path)">
      <g transform="translate(-176 -11024)">
        <circle id="楕円形_367" data-name="楕円形 367" cx="7" cy="7" r="7" transform="translate(176 11024)" fill="#fff"/>
      </g>
      <g transform="translate(-176 -10978)">
        <circle id="楕円形_367-2" data-name="楕円形 367" cx="7" cy="7" r="7" transform="translate(176 11024)" fill="#fff"/>
      </g>
      <g transform="translate(-176 -10932)">
        <circle id="楕円形_367-3" data-name="楕円形 367" cx="7" cy="7" r="7" transform="translate(176 11024)" fill="#fff"/>
      </g>
      <g transform="translate(-176 -10886)">
        <circle id="楕円形_367-4" data-name="楕円形 367" cx="7" cy="7" r="7" transform="translate(176 11024)" fill="#fff"/>
      </g>
      <g transform="translate(-176 -10840)">
        <circle id="楕円形_367-5" data-name="楕円形 367" cx="7" cy="7" r="7" transform="translate(176 11024)" fill="#fff"/>
      </g>
      <g transform="translate(-176 -10794)">
        <circle id="楕円形_367-6" data-name="楕円形 367" cx="7" cy="7" r="7" transform="translate(176 11024)" fill="#fff"/>
      </g>
      <g transform="translate(-176 -10748)">
        <circle id="楕円形_367-7" data-name="楕円形 367" cx="7" cy="7" r="7" transform="translate(176 11024)" fill="#fff"/>
      </g>
      <g transform="translate(-176 -10702)">
        <circle id="楕円形_367-8" data-name="楕円形 367" cx="7" cy="7" r="7" transform="translate(176 11024)" fill="#fff"/>
      </g>
      <g transform="translate(-176 -10656)">
        <circle id="楕円形_367-9" data-name="楕円形 367" cx="7" cy="7" r="7" transform="translate(176 11024)" fill="#fff"/>
      </g>
      <g transform="translate(-176 -10610)">
        <circle id="楕円形_367-10" data-name="楕円形 367" cx="7" cy="7" r="7" transform="translate(176 11024)" fill="#fff"/>
      </g>
      <g transform="translate(-176 -10564)">
        <circle id="楕円形_367-11" data-name="楕円形 367" cx="7" cy="7" r="7" transform="translate(176 11024)" fill="#fff"/>
      </g>
      <g transform="translate(-176 -10518)">
        <circle id="楕円形_367-12" data-name="楕円形 367" cx="7" cy="7" r="7" transform="translate(176 11024)" fill="#fff"/>
      </g>
      <g transform="translate(-176 -10472)">
        <circle id="楕円形_367-13" data-name="楕円形 367" cx="7" cy="7" r="7" transform="translate(176 11024)" fill="#fff"/>
      </g>
      <g transform="translate(-176 -10426)">
        <circle id="楕円形_367-14" data-name="楕円形 367" cx="7" cy="7" r="7" transform="translate(176 11024)" fill="#fff"/>
      </g>
      <g transform="translate(-176 -10380)">
        <circle id="楕円形_367-15" data-name="楕円形 367" cx="7" cy="7" r="7" transform="translate(176 11024)" fill="#fff"/>
      </g>
      <g transform="translate(-176 -10334)">
        <circle id="楕円形_367-16" data-name="楕円形 367" cx="7" cy="7" r="7" transform="translate(176 11024)" fill="#fff"/>
      </g>
      <g transform="translate(-176 -10288)">
        <circle id="楕円形_367-17" data-name="楕円形 367" cx="7" cy="7" r="7" transform="translate(176 11024)" fill="#fff"/>
      </g>
      <g transform="translate(-176 -10242)">
        <circle id="楕円形_367-18" data-name="楕円形 367" cx="7" cy="7" r="7" transform="translate(176 11024)" fill="#fff"/>
      </g>
      <g transform="translate(-176 -10196)">
        <circle id="楕円形_367-19" data-name="楕円形 367" cx="7" cy="7" r="7" transform="translate(176 11024)" fill="#fff"/>
      </g>
      <g transform="translate(-176 -10150)">
        <circle id="楕円形_367-20" data-name="楕円形 367" cx="7" cy="7" r="7" transform="translate(176 11024)" fill="#fff"/>
      </g>
    </g>
    <text id="_5:00" data-name="5:00" transform="translate(189 10900.886)" fill="#fff" font-size="16" font-family="SourceHanSansJP-Medium, Source Han Sans JP" font-weight="500"><tspan x="-16.064" y="0">5:00</tspan></text>
    <text id="_7:00" data-name="7:00" transform="translate(189 11040.886)" fill="#fff" font-size="16" font-family="SourceHanSansJP-Medium, Source Han Sans JP" font-weight="500"><tspan x="-16.064" y="0">7:00</tspan></text>
    <text id="_9:00" data-name="9:00" transform="translate(189 11182.886)" fill="#fff" font-size="16" font-family="SourceHanSansJP-Medium, Source Han Sans JP" font-weight="500"><tspan x="-16.064" y="0">9:00</tspan></text>
    <text id="_18:00" data-name="18:00" transform="translate(189 11318.886)" fill="#fff" font-size="16" font-family="SourceHanSansJP-Medium, Source Han Sans JP" font-weight="500"><tspan x="-20.624" y="0">18:00</tspan></text>
    <text id="_20:00" data-name="20:00" transform="translate(189 11452.886)" fill="#fff" font-size="16" font-family="SourceHanSansJP-Medium, Source Han Sans JP" font-weight="500"><tspan x="-20.624" y="0">20:00</tspan></text>
    <text id="_22:00" data-name="22:00" transform="translate(189 11547.886)" fill="#fff" font-size="16" font-family="SourceHanSansJP-Medium, Source Han Sans JP" font-weight="500"><tspan x="-20.624" y="0">22:00</tspan></text>
    <text id="_24:00" data-name="24:00" transform="translate(189 11688.886)" fill="#fff" font-size="16" font-family="SourceHanSansJP-Medium, Source Han Sans JP" font-weight="500"><tspan x="-20.624" y="0">24:00</tspan></text>
  </g>
</svg>
