<svg xmlns="http://www.w3.org/2000/svg" width="110.083" height="110.083" viewBox="0 0 110.083 110.083">
  <g id="グループ_2609" data-name="グループ 2609" transform="translate(-31 -662.55)">
    <circle id="楕円形_427" data-name="楕円形 427" cx="55.042" cy="55.042" r="55.042" transform="translate(31 662.55)" fill="#243340"/>
    <path id="パス_1917" data-name="パス 1917" d="M-26.874-6.843a1.715,1.715,0,0,0-.628-.129q-.816,0-.816.886V-5.5h1.257v1.251h-1.257V0h-1.692V-4.249h-.924V-5.5h.924v-.682A1.98,1.98,0,0,1-29.4-7.7a2.335,2.335,0,0,1,1.665-.575,2.924,2.924,0,0,1,.859.107Zm3.25,6.977a2.957,2.957,0,0,1-2.162-.771,2.794,2.794,0,0,1-.787-2.092,2.794,2.794,0,0,1,.816-2.135,3.085,3.085,0,0,1,2.208-.771,2.921,2.921,0,0,1,2.148.771,2.74,2.74,0,0,1,.779,2.038,2.908,2.908,0,0,1-.8,2.165A2.989,2.989,0,0,1-23.625.134Zm.043-4.469a1.132,1.132,0,0,0-.935.414,1.824,1.824,0,0,0-.333,1.171q0,1.584,1.278,1.584,1.219,0,1.219-1.627Q-22.352-4.334-23.582-4.334Zm7.648.365a1.472,1.472,0,0,0-.714-.167,1.029,1.029,0,0,0-.865.406,1.769,1.769,0,0,0-.312,1.1V0h-1.7V-5.5h1.7v1.021h.021A1.468,1.468,0,0,1-16.352-5.6a1.093,1.093,0,0,1,.419.064Zm4.619-1.477a.17.17,0,0,1-.107-.021.185.185,0,0,1-.016-.1v-.7q0-.091.027-.107a.168.168,0,0,1,.1-.016l1.493.021h4.5l1.751-.021a.183.183,0,0,1,.113.021.2.2,0,0,1,.016.1l-.021.822v.714l.021.833q0,.091-.027.107a.2.2,0,0,1-.1.016L-5.32-3.8H-6.851l.011.763h2.412l1.542-.021q.134,0,.134.1,0,.016,0,.038-.016.1-.1.978A3.813,3.813,0,0,1-3.22-.4,1.364,1.364,0,0,1-4.514.167q-.376,0-.639-.021a.463.463,0,0,1-.3-.086.834.834,0,0,1-.1-.3A3.4,3.4,0,0,0-5.8-.988a6.429,6.429,0,0,0,1.09.113q.446,0,.559-.209a3.185,3.185,0,0,0,.177-1.047H-6.829l.027,1.01q.005.666.038,1.305.027.5.027.532,0,.1-.027.113a.17.17,0,0,1-.107.021H-7.8q-.086,0-.1-.027A.217.217,0,0,1-7.914.714L-7.9-.526v-.585l-.011-.451A8.263,8.263,0,0,1-11.427.553q-.242.064-.263.064-.1,0-.231-.263a2.949,2.949,0,0,0-.473-.682,8.827,8.827,0,0,0,3.776-1.8h-1.907l-.107.306a.158.158,0,0,1-.167.113q-.081,0-.43-.032-.564-.059-.564-.134a.162.162,0,0,1,.016-.054,13.585,13.585,0,0,0,.628-1.982,4.867,4.867,0,0,0,.129-.671q.016-.145.134-.145l1.493.021h1.445l-.016-.757H-9.821Zm6.741-.021h-2.3l.011.757h2.288Zm-5.661,2.433h2.31L-7.936-3.8h-2.095Zm2.363-4.023a5.158,5.158,0,0,0,.36-.4L-8.72-7.477a6.148,6.148,0,0,1,.3.559.244.244,0,0,1,.021.081q0,.043-.124.075l-.736.167a.906.906,0,0,1-.118.016q-.064,0-.1-.118A5.086,5.086,0,0,0-9.8-7.477h-.79a6.126,6.126,0,0,1-.816.935q-.172.177-.242.177t-.242-.2A2.8,2.8,0,0,0-12.426-7a5.422,5.422,0,0,0,1.4-1.762,2.28,2.28,0,0,0,.2-.5,9.44,9.44,0,0,1,.967.15q.167.032.167.145a.254.254,0,0,1-.086.156.863.863,0,0,0-.188.274l-.1.188H-8.8l1.284-.021a.2.2,0,0,1,.118.021.185.185,0,0,1,.016.1v.65a5.025,5.025,0,0,0,.671-1.133,2.675,2.675,0,0,0,.177-.516,7.11,7.11,0,0,1,.924.15q.177.048.177.145a.25.25,0,0,1-.091.156.849.849,0,0,0-.167.263l-.075.188h1.617l1.574-.021q.107,0,.107.118v.682q0,.124-.107.124l-1.574-.021h-.177q.14.22.312.559a.244.244,0,0,1,.021.081q0,.054-.134.086l-.714.167a.774.774,0,0,1-.118.016q-.064,0-.1-.107a6.735,6.735,0,0,0-.338-.8h-.827a6.5,6.5,0,0,1-.618.79q-.167.188-.231.188t-.252-.2A1.94,1.94,0,0,0-7.871-7.058Zm8.83.865a2.527,2.527,0,0,1,1-1.8A2.858,2.858,0,0,1,3.7-8.513a2.858,2.858,0,0,1,2.025.666,2.077,2.077,0,0,1,.639,1.6,2.5,2.5,0,0,1-.44,1.413A8.082,8.082,0,0,1,4.568-3.411a16.02,16.02,0,0,0-1.482,1.37,4.124,4.124,0,0,0-.671.951h3.98V.021H.884V-.967a11.261,11.261,0,0,1,2.541-3.1,7.157,7.157,0,0,0,1.208-1.3,1.672,1.672,0,0,0,.247-.892,1.091,1.091,0,0,0-.365-.886,1.252,1.252,0,0,0-.838-.269,1.118,1.118,0,0,0-.935.435,1.887,1.887,0,0,0-.349,1.074ZM16.83-.376q.51.032.945.032.338,0,.338-.381V-2.707H16.347a8.667,8.667,0,0,1-.4,2A6.394,6.394,0,0,1,15.3.6q-.129.209-.2.209-.054,0-.22-.167A2.823,2.823,0,0,0,14.2.129a4.961,4.961,0,0,0,.972-2.1,17.5,17.5,0,0,0,.2-3.131V-6.918l-.021-1.821a.183.183,0,0,1,.021-.113.2.2,0,0,1,.1-.016l1.133.021h1.348l1.133-.021q.091,0,.107.027a.2.2,0,0,1,.016.1l-.021,1.821V-1.96l.032,1.52a1.136,1.136,0,0,1-.317.9,2.282,2.282,0,0,1-1.354.285A.61.61,0,0,1,17.228.7a1,1,0,0,1-.1-.29A2.249,2.249,0,0,0,16.83-.376Zm-.419-3.309h1.7V-5.291h-1.67v.2Q16.444-4.313,16.411-3.685Zm1.7-4.152h-1.67v1.568h1.67Zm-6.961,6.2-1.375.021q-.086,0-.1-.021a.185.185,0,0,1-.016-.1v-.752q0-.086.021-.1a.185.185,0,0,1,.1-.016l.881.021V-6.843q-.3.005-.548.016l-.177.005a.2.2,0,0,1-.118-.021A.14.14,0,0,1,9.8-6.929v-.763q0-.086.027-.1a.217.217,0,0,1,.107-.016l.725.021v-.188a7.2,7.2,0,0,0-.064-1.144q.612.021,1.042.064.156.021.156.1a.711.711,0,0,1-.064.209,2.911,2.911,0,0,0-.054.757v.2h1.515V-8a7.328,7.328,0,0,0-.064-1.144q.9.059,1.037.075.156.021.156.1a1,1,0,0,1-.054.209,2.6,2.6,0,0,0-.07.768v.2q.226-.005.457-.016l.161-.005q.107,0,.107.118v.763a.1.1,0,0,1-.107.107l-.618-.011v4.249q.236-.005.467-.016l.161-.005q.107,0,.107.118v.752q0,.118-.107.118l-1.343-.021Zm.521-.945h1.515v-.849H11.674Zm0-3.411h1.515v-.849H11.674Zm0,1.692h1.515v-.822H11.674Zm.14,3.733A6.965,6.965,0,0,1,10.541.714.584.584,0,0,1,10.3.838q-.081,0-.247-.2A2.96,2.96,0,0,0,9.483.1a5.152,5.152,0,0,0,1.429-1.219,2.533,2.533,0,0,0,.263-.43,7.359,7.359,0,0,1,.849.387q.156.075.156.167t-.124.15A1.533,1.533,0,0,0,11.814-.569Zm1.708-.9a4.959,4.959,0,0,0,.935.956,3.106,3.106,0,0,0-.607.537q-.134.167-.188.167T13.479.054a5.863,5.863,0,0,1-.795-1.021.2.2,0,0,1-.038-.1q0-.048.081-.1l.575-.317a.322.322,0,0,1,.129-.07Q13.473-1.552,13.522-1.472Zm8.841,1.8-1.4.021a.17.17,0,0,1-.107-.021.185.185,0,0,1-.016-.1V-.7q0-.086.027-.1a.168.168,0,0,1,.1-.016l1.4.021h2.761v-2H23.915l-1.52.021q-.086,0-.1-.021a.185.185,0,0,1-.016-.1v-.9q0-.107.118-.107l1.52.021h1.208v-1.88h-2.31a8.576,8.576,0,0,1-.967,1.536q-.15.2-.209.2T21.4-4.195a2.374,2.374,0,0,0-.693-.489A9.506,9.506,0,0,0,22.47-7.9a3.211,3.211,0,0,0,.156-.725q.392.07,1.069.263.2.054.2.167a.368.368,0,0,1-.113.2,1.231,1.231,0,0,0-.209.419l-.263.725h1.815v-.575a12.883,12.883,0,0,0-.086-1.67q.768.021,1.241.081.177.016.177.118a.592.592,0,0,1-.054.22,4.952,4.952,0,0,0-.081,1.219v.607h1.891l1.509-.021q.1,0,.113.021a.185.185,0,0,1,.016.1v.908q0,.086-.021.1a.217.217,0,0,1-.107.016l-1.509-.021H26.321v1.88H27.7l1.52-.021q.118,0,.118.107v.9a.161.161,0,0,1-.019.1.161.161,0,0,1-.1.019L27.7-2.793H26.321v2h2.6l1.4-.021q.091,0,.107.021a.185.185,0,0,1,.016.1V.231a.161.161,0,0,1-.019.1.175.175,0,0,1-.1.019l-1.4-.021Z" transform="translate(86 719)" fill="#fff"/>
    <path id="パス_1916" data-name="パス 1916" d="M-37.445-.3V-2.014a3.3,3.3,0,0,0,1.015.588,3.263,3.263,0,0,0,1.106.2,2.454,2.454,0,0,0,.572-.059,1.34,1.34,0,0,0,.408-.164A.714.714,0,0,0-34.1-1.7a.616.616,0,0,0,.081-.309.668.668,0,0,0-.129-.4,1.387,1.387,0,0,0-.352-.328,3.676,3.676,0,0,0-.529-.29q-.306-.14-.661-.285a3.372,3.372,0,0,1-1.345-.918,2.005,2.005,0,0,1-.443-1.311,2.087,2.087,0,0,1,.242-1.034,2.053,2.053,0,0,1,.658-.712,2.95,2.95,0,0,1,.964-.411,4.954,4.954,0,0,1,1.16-.132,6.978,6.978,0,0,1,1.066.073,4.193,4.193,0,0,1,.857.223V-5.93a2.59,2.59,0,0,0-.422-.236,3.34,3.34,0,0,0-.47-.169,3.585,3.585,0,0,0-.481-.1,3.4,3.4,0,0,0-.454-.032,2.367,2.367,0,0,0-.537.056,1.378,1.378,0,0,0-.408.158.788.788,0,0,0-.258.244.579.579,0,0,0-.091.32.61.61,0,0,0,.1.346,1.171,1.171,0,0,0,.29.29,3.078,3.078,0,0,0,.457.269q.269.132.607.271a6.763,6.763,0,0,1,.83.411,2.95,2.95,0,0,1,.631.491,1.914,1.914,0,0,1,.4.626,2.211,2.211,0,0,1,.14.819,2.194,2.194,0,0,1-.244,1.082,1.984,1.984,0,0,1-.663.709,2.876,2.876,0,0,1-.975.389,5.634,5.634,0,0,1-1.174.118A6.526,6.526,0,0,1-36.454.027,3.64,3.64,0,0,1-37.445-.3Zm11.107.3h-4.587V-7.7h1.735v6.295h2.852Zm5.446,0H-22.5V-.79h-.021a1.792,1.792,0,0,1-1.638.924,1.714,1.714,0,0,1-1.26-.454,1.626,1.626,0,0,1-.459-1.211q0-1.6,1.9-1.848l1.493-.2q0-.9-.978-.9a3.337,3.337,0,0,0-1.869.585V-5.172a4.205,4.205,0,0,1,.969-.322,5.1,5.1,0,0,1,1.12-.14,2.077,2.077,0,0,1,2.353,2.347Zm-1.6-2.234V-2.6l-1,.129q-.827.107-.827.747a.617.617,0,0,0,.2.475.774.774,0,0,0,.545.185,1,1,0,0,0,.779-.33A1.193,1.193,0,0,0-22.486-2.234Zm2.578,2.089V-1.52a3.614,3.614,0,0,0,.835.376,2.769,2.769,0,0,0,.787.124,1.688,1.688,0,0,0,.712-.124.4.4,0,0,0,.26-.376.348.348,0,0,0-.118-.269,1.1,1.1,0,0,0-.3-.188,3.444,3.444,0,0,0-.406-.145q-.22-.064-.424-.145a4.066,4.066,0,0,1-.577-.266,1.669,1.669,0,0,1-.419-.33,1.3,1.3,0,0,1-.258-.435,1.736,1.736,0,0,1-.089-.585,1.507,1.507,0,0,1,.2-.795,1.645,1.645,0,0,1,.537-.545,2.454,2.454,0,0,1,.768-.312,4,4,0,0,1,.9-.1,4.992,4.992,0,0,1,.741.056,5.532,5.532,0,0,1,.741.164V-4.1a2.678,2.678,0,0,0-.69-.282,2.911,2.911,0,0,0-.722-.094,1.6,1.6,0,0,0-.314.03,1.035,1.035,0,0,0-.26.086.478.478,0,0,0-.177.145.334.334,0,0,0-.064.2.372.372,0,0,0,.1.258.84.84,0,0,0,.252.185,2.492,2.492,0,0,0,.346.14q.191.062.379.126a4.923,4.923,0,0,1,.612.258,1.958,1.958,0,0,1,.47.328,1.287,1.287,0,0,1,.3.44,1.565,1.565,0,0,1,.1.6,1.569,1.569,0,0,1-.212.835,1.7,1.7,0,0,1-.564.564,2.558,2.558,0,0,1-.811.317,4.5,4.5,0,0,1-.953.1A4.915,4.915,0,0,1-19.908-.145ZM-9.429,0h-1.692V-3.126q0-1.208-.881-1.208a.9.9,0,0,0-.73.338,1.305,1.305,0,0,0-.279.859V0h-1.7V-8.143h1.7v3.459h.021A1.929,1.929,0,0,1-11.3-5.634q1.869,0,1.869,2.256ZM-.266-.167A.446.446,0,0,0,.04-.242.312.312,0,0,0,.1-.462v-.5H-3.172v.494L-3.15.747q0,.113-.118.113h-.773q-.118,0-.118-.113L-4.138-.44V-.956l-.494.011q-.086,0-.107-.027a.217.217,0,0,1-.016-.107v-.6a.175.175,0,0,1,.019-.1.175.175,0,0,1,.1-.019l.156.005q.161.011.338.016V-3.056l-.021-1.2q0-.086.021-.1a.185.185,0,0,1,.1-.016l1.364.021h.585v-.516H-3.1L-4.59-4.85q-.086,0-.1-.027a.217.217,0,0,1-.016-.107v-.575q0-.086.021-.1a.185.185,0,0,1,.1-.016l1.488.021V-6.2q-.408.005-.725.016l-.226.005q-.086,0-.1-.021a.185.185,0,0,1-.016-.1v-.521q0-.107.118-.107l.951.021V-7.45q-.537.005-.945.016l-.209.005h-.07q-.086,0-.1-.021a.237.237,0,0,1-.016-.107v-.532q0-.086.021-.1a.185.185,0,0,1,.1-.016l1.225.021v-.177a3.376,3.376,0,0,0-.07-.822q.677.038,1,.075.167.016.167.086a.421.421,0,0,1-.054.177,1.292,1.292,0,0,0-.064.516v.145h1.09v-.177a3.376,3.376,0,0,0-.07-.822q.682.038,1,.075.167.016.167.086a.5.5,0,0,1-.064.2,1.238,1.238,0,0,0-.059.494v.145l1.429-.021q.091,0,.107.021a.185.185,0,0,1,.016.1v.532a.183.183,0,0,1-.021.113.2.2,0,0,1-.1.016L-.056-7.45v.542L1.1-6.929q.124,0,.124.107V-6.3q0,.086-.027.1a.168.168,0,0,1-.1.016L.943-6.187Q.486-6.2-.056-6.2v.548H.11L1.6-5.677q.113,0,.113.118v.575a.2.2,0,0,1-.019.113q-.019.021-.094.021L.11-4.872H-1.136v.516h.725L.964-4.377q.091,0,.107.021a.185.185,0,0,1,.016.1l-.021,1.3v1.176q.247-.005.462-.016L1.684-1.8q.086,0,.1.021a.2.2,0,0,1,.016.1v.6a.2.2,0,0,1-.019.113q-.019.021-.1.021L1.077-.956q.021.5.021.661A1.13,1.13,0,0,1,.846.548.82.82,0,0,1,.395.736,6.808,6.808,0,0,1-.454.779Q-.712.779-.76.725A.8.8,0,0,1-.862.44,2.309,2.309,0,0,0-1.1-.2Q-.647-.167-.266-.167Zm-.881-1.617H.1v-.58H-1.147ZM.1-3.6H-1.147v.575H.1ZM-3.172-1.783h1.09v-.58h-1.09Zm0-1.241h1.09V-3.6h-1.09Zm1.047-2.632h1.09V-6.2h-1.09Zm0-1.251h1.09V-7.45h-1.09ZM-4.987.559q0,.091-.021.107a.185.185,0,0,1-.1.016h-.747q-.091,0-.107-.021a.2.2,0,0,1-.016-.1V.252h-.967v.5a.17.17,0,0,1-.021.107.2.2,0,0,1-.1.016H-7.8A.183.183,0,0,1-7.914.859a.2.2,0,0,1-.016-.1l.021-1.649v-.7L-7.93-2.626q0-.091.027-.107a.2.2,0,0,1,.1-.016l1,.021h.677l1.015-.021q.086,0,.1.021a.2.2,0,0,1,.016.1l-.021.843v.763Zm-.988-2.374h-.967V-.661h.967ZM-7.017-7.272h1.01l1.166-.021a.17.17,0,0,1,.107.021.2.2,0,0,1,.016.1v.779q0,.1-.027.118a.168.168,0,0,1-.1.016l-1.166-.021h-1.01l-1.166.021q-.091,0-.107-.027a.217.217,0,0,1-.016-.107V-7.17q0-.091.021-.107a.2.2,0,0,1,.1-.016Zm.22-1.5h.736l.988-.021q.1,0,.113.021a.146.146,0,0,1,.021.1v.725q0,.091-.027.107a.217.217,0,0,1-.107.016l-.988-.021H-6.8l-1,.021q-.086,0-.1-.021a.2.2,0,0,1-.016-.1V-8.68q0-.086.021-.1A.185.185,0,0,1-7.8-8.8Zm.043,3.067h.591l.924-.021a.2.2,0,0,1,.118.021.2.2,0,0,1,.016.1v.714q0,.086-.027.1a.217.217,0,0,1-.107.016L-6.163-4.8h-.591l-.935.021A.17.17,0,0,1-7.8-4.8a.185.185,0,0,1-.016-.1v-.714q0-.091.021-.107a.2.2,0,0,1,.1-.016Zm0,1.488h.591l.924-.027a.2.2,0,0,1,.118.021.2.2,0,0,1,.016.1v.7q0,.091-.027.107A.217.217,0,0,1-5.24-3.3l-.924-.021h-.591l-.935.021A.17.17,0,0,1-7.8-3.319a.2.2,0,0,1-.016-.1v-.7a.17.17,0,0,1,.021-.107.2.2,0,0,1,.1-.016ZM11.062-1.574a.152.152,0,0,0,.15-.075.723.723,0,0,0,.027-.242V-5.479H10.4v4.4L10.417.757q0,.091-.027.107a.217.217,0,0,1-.107.016H9.4q-.086,0-.1-.021a.2.2,0,0,1-.016-.1l.021-1.826v-4.41h-.79v3.411L8.537-.736a.161.161,0,0,1-.019.1.161.161,0,0,1-.1.019H7.544q-.086,0-.1-.021a.185.185,0,0,1-.016-.1l.021-1.375V-4.963L7.426-6.354q0-.091.021-.107a.2.2,0,0,1,.1-.016l1.327.021h.43V-7.665H8.6l-1.407.021a.17.17,0,0,1-.107-.021.2.2,0,0,1-.016-.1V-8.6q0-.086.027-.1a.168.168,0,0,1,.1-.016L8.6-8.7h2.583l1.429-.021a.17.17,0,0,1,.107.021.185.185,0,0,1,.016.1v.838q0,.091-.021.107a.2.2,0,0,1-.1.016l-1.429-.021H10.4v1.208h.494l1.327-.021q.091,0,.107.021a.2.2,0,0,1,.016.1l-.021,1.482v1.638l.032,1.52a1.317,1.317,0,0,1-.2.865,1.479,1.479,0,0,1-1,.252l-.14.005q-.161,0-.193-.07a.917.917,0,0,1-.043-.274,1.439,1.439,0,0,0-.172-.671A3.462,3.462,0,0,0,11.062-1.574ZM5.653-7.7l.956-.021q.091,0,.107.021a.2.2,0,0,1,.016.1l-.021.972v1.16l.021.978q0,.086-.021.1a.2.2,0,0,1-.1.016l-.956-.021H4.181v.924H5.755l1-.021a.2.2,0,0,1,.118.021.185.185,0,0,1,.016.1L6.867-2.342V-.687l.021,1q0,.086-.027.1A.217.217,0,0,1,6.754.43H5.943q-.091,0-.107-.021a.185.185,0,0,1-.016-.1V-.054H4.181v.6q0,.118-.113.118H3.236a.175.175,0,0,1-.1-.019.161.161,0,0,1-.019-.1l.021-1.848V-5.742L3.113-7.595q0-.091.021-.107a.2.2,0,0,1,.1-.016l.956.021a7.607,7.607,0,0,0,.328-.849,3.535,3.535,0,0,0,.134-.639q.44.038,1.074.145.145.032.145.129a.317.317,0,0,1-.1.177,1.008,1.008,0,0,0-.15.274q-.322.747-.328.763ZM5.82-2.455H4.181v1.38H5.82ZM5.664-5.376V-6.7H4.181v1.321ZM17.421-6.929h3.244a50.419,50.419,0,0,1-.231,5.677,1.7,1.7,0,0,1-.58,1.273,1.8,1.8,0,0,1-.722.231A11.516,11.516,0,0,1,17.7.317l-.387-1.2q.489.043.816.043a4.435,4.435,0,0,0,.725-.043.351.351,0,0,0,.269-.177,1.786,1.786,0,0,0,.14-.548,36.464,36.464,0,0,0,.188-4.3H17.389a9.817,9.817,0,0,1-.908,3.98A6.875,6.875,0,0,1,14.354.408l-.816-.816a5.585,5.585,0,0,0,2.073-2.455,9.387,9.387,0,0,0,.569-3.045H13.823V-6.929H16.2V-8.766h1.23Q17.432-7.444,17.421-6.929Zm1.638-2.358.714-.161a9.931,9.931,0,0,1,.806,1.724l-.736.22A8.321,8.321,0,0,0,19.059-9.287Zm1.386-.193.7-.188a9.706,9.706,0,0,1,.784,1.66l-.73.231A9.236,9.236,0,0,0,20.445-9.48Zm5.5,4.506A24.7,24.7,0,0,1,23.12-3.19l-.693-.956a18.287,18.287,0,0,0,3.534-2.288,11.239,11.239,0,0,0,2.261-2.487l1.133.693A19.01,19.01,0,0,1,27.18-5.973V.483H25.945Zm7.127-.6a17.752,17.752,0,0,1,4.216,1.7l-.618,1.166a13.385,13.385,0,0,0-3.6-1.692V.473h-1.23V-8.8h1.23Zm1.772-3.454.725-.2A10.275,10.275,0,0,1,36.376-7.4l-.747.242A9.048,9.048,0,0,0,34.845-9.029ZM36.2-9.362l.714-.209A11.043,11.043,0,0,1,37.7-7.82l-.741.252A9.9,9.9,0,0,0,36.2-9.362Z" transform="translate(86 700.591)" fill="#fff"/>
  </g>
</svg>
