<svg xmlns="http://www.w3.org/2000/svg" width="16" height="13.104" viewBox="0 0 16 13.104">
  <path id="パス_779" data-name="パス 779" d="M1814.016,917.1a3.24,3.24,0,0,1,2.1-3.763c1.642-.744,3.316.848,3.316.848l2-.8c0,.857-1.429,1.714-1.429,1.714a6.975,6.975,0,0,0,2-.286c0,.286-1.714,1.714-1.714,1.714,0,6.857-5.143,9.714-9.429,9.714s-4.857-1.714-4.857-1.714c3.429,0,4.572-1.429,4.572-1.429-.857.571-2.857-2-2.857-2a3.275,3.275,0,0,0,1.714,0c-1.714-.286-2.857-3.429-2.857-3.429.286.571,1.714.571,1.714.571a4.032,4.032,0,0,1-1.143-4.571C1808.857,916.525,1814.016,917.1,1814.016,917.1Z" transform="translate(-1806 -913.135)" fill="#fff"/>
</svg>
